<svg width="56" height="56" viewBox="0 0 56 56" fill="none" xmlns="http://www.w3.org/2000/svg">
<g clip-path="url(#clip0)">
<path opacity="0.3" d="M9.07825 28.2535C8.95181 15.0916 18.7467 4.09708 31.4416 2.41216C30.3172 2.26472 29.1689 2.1875 28.0001 2.1875C13.711 2.1875 2.05134 13.9393 2.18883 28.2535L2.18762 53.8125L2.6155 53.3846C4.39984 51.6003 6.70492 50.4655 9.07726 50.0473L9.07825 28.2535Z" fill="#FF3CB1"/>
<path d="M55.9994 28.2746C55.928 35.7224 52.9665 42.7 47.6604 47.9225C42.3677 53.1315 35.3497 55.9999 27.8981 55.9999H27.8711C23.4633 56 19.2552 55.0114 15.3641 53.0614C11.6462 51.1982 7.1449 51.9494 4.16312 54.9314L3.73525 55.3593C3.31678 55.7776 2.75722 55.9999 2.18803 56C1.90618 56 1.62202 55.9455 1.35132 55.8334C0.53385 55.4948 0.000976562 54.6971 0.000976562 53.8123L0.00228906 28.2628C-0.0665077 20.7606 2.81869 13.677 8.12752 8.31686C13.4396 2.95367 20.4974 0 28.0009 0C35.5602 0 42.6289 2.93354 47.9047 8.2602C53.1973 13.6039 56.0721 20.7118 55.9994 28.2746ZM44.7962 11.339C40.3484 6.84817 34.3837 4.37499 28.0009 4.37499C21.6739 4.37499 15.7201 6.8683 11.2361 11.3955C6.75224 15.9227 4.31636 21.9021 4.37717 28.2325C4.37728 28.2395 4.37728 28.2466 4.37728 28.2536L4.37619 49.3702C6.44906 48.2494 8.75512 47.671 11.077 47.671C13.2013 47.671 15.3385 48.1548 17.3244 49.1501C20.6011 50.7923 24.1503 51.6249 27.8732 51.6249H27.8958C40.8589 51.6259 51.5007 41.134 51.6247 28.2325C51.686 21.8463 49.261 15.8468 44.7962 11.339Z" fill="#FF3CB1"/>
<path d="M43.2814 19.9844C44.4896 19.9844 45.4689 20.9637 45.4689 22.1719C45.4689 23.38 44.4896 24.3594 43.2814 24.3594H42.6252V27.2175C42.6252 36.3 35.218 43.7025 26.1135 43.7187C20.6041 43.7087 15.472 40.9785 12.3772 36.4153C11.6992 35.4154 11.9601 34.0552 12.9599 33.3771C13.9601 32.6991 15.3201 32.9601 15.9981 33.9597C18.2794 37.3238 22.0609 39.3365 26.1134 39.3438C32.802 39.3319 38.25 33.892 38.25 27.2176V20.4838C38.25 18.1799 36.4416 16.3752 34.1329 16.3752C31.8417 16.3752 30.0469 18.1528 30.0469 20.4221C30.0469 21.6302 29.0676 22.6096 27.8594 22.6096C26.6513 22.6096 25.6719 21.6302 25.6719 20.4221C25.6719 18.1524 26.5468 16.0318 28.1354 14.4505C29.7231 12.8702 31.8529 12 34.133 12C36.4139 12 38.5513 12.883 40.1512 14.4864C41.629 15.9672 42.4916 17.9038 42.6108 19.9844H43.2814Z" fill="#003DFF"/>
<path d="M20.3439 32.047C16.4026 32.047 12.9191 29.8178 11.2531 26.2296C10.5976 24.818 10.7054 23.1929 11.5417 21.8828C12.3753 20.5769 13.7982 19.7971 15.3482 19.7971H19.5784C20.7865 19.7971 21.7659 20.7765 21.7659 21.9846C21.7659 23.1928 20.7865 24.1721 19.5784 24.1721H15.3482C15.3174 24.1721 15.2708 24.1721 15.2297 24.2364C15.1844 24.3075 15.2092 24.3613 15.2212 24.3871C16.1618 26.4132 18.1249 27.672 20.3439 27.672C21.6201 27.672 22.822 27.2649 23.8197 26.4947C24.7762 25.7565 26.15 25.9335 26.888 26.8896C27.6262 27.8459 27.4494 29.2197 26.4931 29.9579C24.7226 31.3247 22.5961 32.047 20.3439 32.047Z" fill="#003DFF"/>
</g>
<defs>
<clipPath id="clip0">
<rect width="56" height="56" fill="white"/>
</clipPath>
</defs>
</svg>
