<svg width="28" height="28" viewBox="0 0 28 28" fill="none" xmlns="http://www.w3.org/2000/svg">
<path fill-rule="evenodd" clip-rule="evenodd" d="M7.7739 0.667236H20.2259C24.7606 0.667236 27.3206 3.23924 27.3339 7.7739V20.2272C27.3339 24.7606 24.7606 27.3339 20.2259 27.3339H7.7739C3.23924 27.3339 0.667236 24.7606 0.667236 20.2272V7.7739C0.667236 3.23924 3.23924 0.667236 7.7739 0.667236ZM14.0659 21.8139C14.6406 21.8139 15.1192 21.3872 15.1726 20.8139V7.22722C15.2259 6.81388 15.0272 6.39922 14.6672 6.17388C14.2926 5.94722 13.8392 5.94722 13.4806 6.17388C13.1192 6.39922 12.9206 6.81388 12.9592 7.22722V20.8139C13.0272 21.3872 13.5059 21.8139 14.0659 21.8139ZM20.2006 21.8139C20.7606 21.8139 21.2392 21.3873 21.3072 20.8139V16.4406C21.3459 16.0126 21.1472 15.6139 20.7859 15.3873C20.4272 15.1606 19.9739 15.1606 19.6006 15.3873C19.2392 15.6139 19.0406 16.0126 19.0939 16.4406V20.8139C19.1472 21.3873 19.6259 21.8139 20.2006 21.8139ZM8.95922 20.8139C8.90589 21.3872 8.42722 21.8139 7.85256 21.8139C7.27922 21.8139 6.79922 21.3872 6.74722 20.8139V11.6006C6.70722 11.1859 6.90589 10.7739 7.26722 10.5472C7.62589 10.3206 8.08055 10.3206 8.44056 10.5472C8.79922 10.7739 9.00056 11.1859 8.95922 11.6006V20.8139Z" fill="url(#paint0_linear)"/>
<defs>
<linearGradient id="paint0_linear" x1="14.0901" y1="0.667236" x2="14.0901" y2="27.3339" gradientUnits="userSpaceOnUse">
<stop stop-color="#FF3CB1"/>
<stop offset="1" stop-color="#D356FF"/>
</linearGradient>
</defs>
</svg>
