<svg width="76" height="76" viewBox="0 0 76 76" fill="none" xmlns="http://www.w3.org/2000/svg">
<g opacity="0.8" filter="url(#filter0_f)">
<path opacity="0.3" d="M32.2063 24.7656C32.2063 19.174 35.8552 14.4356 40.9016 12.7992C39.6786 12.4028 38.3739 12.1875 37.0188 12.1875C30.0721 12.1875 24.4407 17.8189 24.4407 24.7656C24.4407 31.7124 30.0721 37.3438 37.0188 37.3438C38.3739 37.3438 39.6786 37.1285 40.9016 36.732C35.8552 35.0957 32.2063 30.3572 32.2063 24.7656Z" fill="#FF3CB1"/>
<path d="M38.0032 39.5312C46.1449 39.5312 52.7688 32.9074 52.7688 24.7656C52.7688 16.6239 46.1449 10 38.0032 10C29.8614 10 23.2375 16.6239 23.2375 24.7656C23.2375 32.9074 29.8613 39.5312 38.0032 39.5312ZM38.0032 14.375C43.7326 14.375 48.3938 19.0362 48.3938 24.7656C48.3938 30.495 43.7326 35.1562 38.0032 35.1562C32.2738 35.1562 27.6125 30.495 27.6125 24.7656C27.6125 19.0362 32.2738 14.375 38.0032 14.375Z" fill="#FF3CB1"/>
<path d="M65.3223 51.7676C63.8962 49.0277 60.6495 47.8367 57.6271 48.9835C55.5195 49.7835 52.9424 50.7613 50.1373 51.5348C50.3961 50.2893 50.267 48.9703 49.7497 47.7163C48.9955 45.888 47.4453 44.5277 45.4968 43.9842C44.5008 43.7064 43.4195 43.6439 42.2828 43.7984C34.7875 44.8179 30.3254 42.2835 26.3881 40.0475C23.7415 38.5446 21.242 37.125 18.3158 37.125C14.597 37.125 11.5374 38.3186 11.5374 38.3186C10.3843 38.6794 9.7423 39.9066 10.1031 41.0597C10.464 42.2126 11.6909 42.855 12.8442 42.4939C12.8442 42.4939 15.472 41.5 18.3158 41.5C20.0863 41.5 21.9138 42.5379 24.2276 43.8518C27.6922 45.8192 32.2411 48.403 39.0028 48.4028C40.2187 48.4028 41.507 48.3191 42.8723 48.1335C43.4072 48.0607 43.9084 48.0832 44.3214 48.1983C44.7826 48.327 45.3969 48.6373 45.7055 49.3848C45.9448 49.9647 45.9567 50.5074 45.7409 50.9977C45.4763 51.5991 44.8732 52.0976 44.0432 52.4011C42.845 52.8391 41.2548 53.0725 39.3158 53.0938C37.2362 53.1091 35.095 52.8692 33.3092 52.4C32.1408 52.0929 30.9445 52.7913 30.6375 53.9598C30.3305 55.1282 31.0289 56.3244 32.1973 56.6314C34.2885 57.1809 36.8001 57.4689 39.2064 57.4689C47.5187 57.4316 54.6437 54.7956 59.1794 53.074C59.9397 52.7855 60.9663 52.8746 61.4247 53.7556C61.8351 54.544 61.5514 55.5603 60.7697 55.9779C55.2796 58.9109 48.9086 61.625 39.5468 61.625C31.2125 61.625 23.5357 58.4088 18.5633 55.7109C14.7329 53.6325 11.9337 54.289 11.6273 54.3707L11.6286 54.3756C10.6933 54.624 10.0032 55.4741 10.0032 56.4875C10.0032 57.6957 10.9825 58.675 12.1907 58.675C12.3721 58.675 12.5475 58.6505 12.7161 58.6089C12.9119 58.5754 14.3274 58.3901 16.4767 59.5563C21.8945 62.4958 30.2946 66 39.5468 66C51.2944 66 59.0865 61.8372 62.8312 59.8367C65.718 58.2944 66.8363 54.6759 65.3223 51.7676Z" fill="#1428BF"/>
<path d="M39.2063 57.4688C39.1703 57.4692 39.2872 57.4688 39.2063 57.4688V57.4688Z" fill="#1428BF"/>
</g>
<path opacity="0.3" d="M32.2063 24.7656C32.2063 19.174 35.8552 14.4356 40.9016 12.7992C39.6786 12.4028 38.3739 12.1875 37.0188 12.1875C30.0721 12.1875 24.4407 17.8189 24.4407 24.7656C24.4407 31.7124 30.0721 37.3438 37.0188 37.3438C38.3739 37.3438 39.6786 37.1285 40.9016 36.732C35.8552 35.0957 32.2063 30.3572 32.2063 24.7656Z" fill="#FF3CB1"/>
<path d="M38.0032 39.5312C46.1449 39.5312 52.7688 32.9074 52.7688 24.7656C52.7688 16.6239 46.1449 10 38.0032 10C29.8614 10 23.2375 16.6239 23.2375 24.7656C23.2375 32.9074 29.8613 39.5312 38.0032 39.5312ZM38.0032 14.375C43.7326 14.375 48.3938 19.0362 48.3938 24.7656C48.3938 30.495 43.7326 35.1562 38.0032 35.1562C32.2738 35.1562 27.6125 30.495 27.6125 24.7656C27.6125 19.0362 32.2738 14.375 38.0032 14.375Z" fill="#FF3CB1"/>
<path d="M65.3223 51.7676C63.8962 49.0277 60.6495 47.8367 57.6271 48.9835C55.5195 49.7835 52.9424 50.7613 50.1373 51.5348C50.3961 50.2893 50.267 48.9703 49.7497 47.7163C48.9955 45.888 47.4453 44.5277 45.4968 43.9842C44.5008 43.7064 43.4195 43.6439 42.2828 43.7984C34.7875 44.8179 30.3254 42.2835 26.3881 40.0475C23.7415 38.5446 21.242 37.125 18.3158 37.125C14.597 37.125 11.5374 38.3186 11.5374 38.3186C10.3843 38.6794 9.7423 39.9066 10.1031 41.0597C10.464 42.2126 11.6909 42.855 12.8442 42.4939C12.8442 42.4939 15.472 41.5 18.3158 41.5C20.0863 41.5 21.9138 42.5379 24.2276 43.8518C27.6922 45.8192 32.2411 48.403 39.0028 48.4028C40.2187 48.4028 41.507 48.3191 42.8723 48.1335C43.4072 48.0607 43.9084 48.0832 44.3214 48.1983C44.7826 48.327 45.3969 48.6373 45.7055 49.3848C45.9448 49.9647 45.9567 50.5074 45.7409 50.9977C45.4763 51.5991 44.8732 52.0976 44.0432 52.4011C42.845 52.8391 41.2548 53.0725 39.3158 53.0938C37.2362 53.1091 35.095 52.8692 33.3092 52.4C32.1408 52.0929 30.9445 52.7913 30.6375 53.9598C30.3305 55.1282 31.0289 56.3244 32.1973 56.6314C34.2885 57.1809 36.8001 57.4689 39.2064 57.4689C47.5187 57.4316 54.6437 54.7956 59.1794 53.074C59.9397 52.7855 60.9663 52.8746 61.4247 53.7556C61.8351 54.544 61.5514 55.5603 60.7697 55.9779C55.2796 58.9109 48.9086 61.625 39.5468 61.625C31.2125 61.625 23.5357 58.4088 18.5633 55.7109C14.7329 53.6325 11.9337 54.289 11.6273 54.3707L11.6286 54.3756C10.6933 54.624 10.0032 55.4741 10.0032 56.4875C10.0032 57.6957 10.9825 58.675 12.1907 58.675C12.3721 58.675 12.5475 58.6505 12.7161 58.6089C12.9119 58.5754 14.3274 58.3901 16.4767 59.5563C21.8945 62.4958 30.2946 66 39.5468 66C51.2944 66 59.0865 61.8372 62.8312 59.8367C65.718 58.2944 66.8363 54.6759 65.3223 51.7676Z" fill="#1428BF"/>
<path d="M39.2063 57.4688C39.1703 57.4692 39.2872 57.4688 39.2063 57.4688V57.4688Z" fill="#1428BF"/>
<defs>
<filter id="filter0_f" x="0" y="0" width="76" height="76" filterUnits="userSpaceOnUse" color-interpolation-filters="sRGB">
<feFlood flood-opacity="0" result="BackgroundImageFix"/>
<feBlend mode="normal" in="SourceGraphic" in2="BackgroundImageFix" result="shape"/>
<feGaussianBlur stdDeviation="5" result="effect1_foregroundBlur"/>
</filter>
</defs>
</svg>
