<svg width="56" height="56" viewBox="0 0 56 56" fill="none" xmlns="http://www.w3.org/2000/svg">
<path opacity="0.3" d="M22.2063 14.7656C22.2063 9.17405 25.8552 4.43559 30.9016 2.79923C29.6786 2.40275 28.3739 2.1875 27.0188 2.1875C20.0721 2.1875 14.4407 7.81889 14.4407 14.7656C14.4407 21.7124 20.0721 27.3438 27.0188 27.3438C28.3739 27.3438 29.6786 27.1285 30.9016 26.732C25.8552 25.0957 22.2063 20.3572 22.2063 14.7656Z" fill="#FF3CB1"/>
<path d="M28.0032 29.5312C36.1449 29.5312 42.7688 22.9074 42.7688 14.7656C42.7688 6.62386 36.1449 0 28.0032 0C19.8614 0 13.2375 6.62386 13.2375 14.7656C13.2375 22.9074 19.8613 29.5312 28.0032 29.5312ZM28.0032 4.375C33.7326 4.375 38.3938 9.03623 38.3938 14.7656C38.3938 20.495 33.7326 25.1562 28.0032 25.1562C22.2738 25.1562 17.6125 20.495 17.6125 14.7656C17.6125 9.03623 22.2738 4.375 28.0032 4.375Z" fill="#FF3CB1"/>
<path d="M55.3223 41.7676C53.8962 39.0277 50.6495 37.8367 47.6271 38.9835C45.5195 39.7835 42.9424 40.7613 40.1373 41.5348C40.3961 40.2893 40.267 38.9703 39.7497 37.7163C38.9955 35.888 37.4453 34.5277 35.4968 33.9842C34.5008 33.7064 33.4195 33.6439 32.2828 33.7984C24.7875 34.8179 20.3254 32.2835 16.3881 30.0475C13.7415 28.5446 11.242 27.125 8.31577 27.125C4.59702 27.125 1.53736 28.3186 1.53736 28.3186C0.38433 28.6794 -0.257701 29.9066 0.103127 31.0597C0.463955 32.2126 1.69092 32.855 2.84417 32.4939C2.84417 32.4939 5.47202 31.5 8.31577 31.5C10.0863 31.5 11.9138 32.5379 14.2276 33.8518C17.6922 35.8192 22.2411 38.403 29.0028 38.4028C30.2187 38.4028 31.507 38.3191 32.8723 38.1335C33.4072 38.0607 33.9084 38.0832 34.3214 38.1983C34.7826 38.327 35.3969 38.6373 35.7055 39.3848C35.9448 39.9647 35.9567 40.5074 35.7409 40.9977C35.4763 41.5991 34.8732 42.0976 34.0432 42.4011C32.845 42.8391 31.2548 43.0725 29.3158 43.0938C27.2362 43.1091 25.095 42.8692 23.3092 42.4C22.1408 42.0929 20.9445 42.7913 20.6375 43.9598C20.3305 45.1282 21.0289 46.3244 22.1973 46.6314C24.2885 47.1809 26.8001 47.4689 29.2064 47.4689C37.5187 47.4316 44.6437 44.7956 49.1794 43.074C49.9397 42.7855 50.9663 42.8746 51.4247 43.7556C51.8351 44.544 51.5514 45.5603 50.7697 45.9779C45.2796 48.9109 38.9086 51.625 29.5468 51.625C21.2125 51.625 13.5357 48.4088 8.56328 45.7109C4.73286 43.6325 1.93374 44.289 1.62727 44.3707L1.62858 44.3756C0.693314 44.624 0.00315798 45.4741 0.00315798 46.4875C0.00315798 47.6957 0.982502 48.675 2.19066 48.675C2.37211 48.675 2.54755 48.6505 2.7161 48.6089C2.91188 48.5754 4.32741 48.3901 6.47674 49.5563C11.8945 52.4958 20.2946 56 29.5468 56C41.2944 56 49.0865 51.8372 52.8312 49.8367C55.718 48.2944 56.8363 44.6759 55.3223 41.7676Z" fill="#1428BF"/>
<path d="M29.2063 47.4688C29.1703 47.4692 29.2872 47.4688 29.2063 47.4688V47.4688Z" fill="#1428BF"/>
</svg>
