<svg width="24" height="28" viewBox="0 0 24 28" fill="none" xmlns="http://www.w3.org/2000/svg">
<path fill-rule="evenodd" clip-rule="evenodd" d="M0.370574 19.9383C0.676374 19.5147 1.07144 19.163 1.46244 18.8165C2.57471 17.8307 4.30988 16.6618 5.72173 15.879C5.75564 15.8602 5.79005 15.8411 5.82495 15.8217C6.61108 15.3849 7.63917 14.8136 8.51212 14.7842H8.57388C9.28494 14.7842 9.95007 15.1821 10.2906 15.8219C10.6792 16.5521 10.7376 17.4673 10.7917 18.3143C10.7987 18.4243 10.8056 18.5332 10.8132 18.6403C10.8643 19.362 10.8939 20.1921 10.8939 21.0665C10.8939 22.1162 10.8552 23.1014 10.7812 23.9098C10.7116 24.6702 10.6346 25.4503 10.3523 26.1598C10.1829 26.5562 9.87247 26.8916 9.48606 27.1054C9.17725 27.2584 8.85102 27.3333 8.51212 27.3333C8.1558 27.3192 7.49066 27.0898 7.22778 26.9837C5.49368 26.3127 2.18227 24.1172 0.913766 22.7752C0.772291 22.6358 0.624082 22.4772 0.520953 22.3668C0.465928 22.3079 0.423736 22.2627 0.402247 22.2416C0.139361 21.9061 0 21.4941 0 21.0509C0 20.6562 0.123525 20.2598 0.370574 19.9383ZM9.54904 5.6951C10.2474 5.6951 10.8128 6.25218 10.8128 6.94033C10.8128 7.62848 10.2474 8.18555 9.54904 8.18555L3.44394 8.52885C2.55391 8.52885 1.83333 7.81729 1.83333 6.94033C1.83333 6.06336 2.55391 5.35336 3.44394 5.35336L9.54904 5.6951ZM13.6474 1.84003C13.8185 1.44368 14.1273 1.10818 14.5137 0.894402C14.8225 0.74148 15.1488 0.666578 15.4893 0.666578C15.844 0.680622 16.5107 0.910007 16.7736 1.01768C18.5062 1.6871 21.8177 3.8842 23.0878 5.22461C23.2259 5.36168 23.3711 5.51734 23.4739 5.62745L23.4739 5.62747L23.4739 5.6275C23.5314 5.68911 23.5756 5.73645 23.5977 5.75828C23.8606 6.09533 24 6.50573 24 6.94733C24 7.34524 23.8765 7.74159 23.6278 8.06148C23.5429 8.18036 23.3977 8.33831 23.2814 8.4592C23.1636 8.58173 23.0457 8.70269 22.925 8.82237C21.8664 9.87132 19.8666 11.2411 18.2771 12.1217L18.1698 12.1812C17.3848 12.6172 16.3599 13.1863 15.4893 13.2156H15.4275C14.7148 13.2156 14.0497 12.8192 13.7092 12.1779C13.5703 11.9147 13.4394 11.2754 13.3759 10.9651L13.3759 10.9651L13.3759 10.965L13.3735 10.9531C13.3509 10.8428 13.3267 10.7247 13.3115 10.6137C13.1866 9.70053 13.1058 8.37726 13.1058 6.93329C13.1058 5.88362 13.1446 4.89843 13.2185 4.09004C13.2881 3.32963 13.3651 2.54952 13.6474 1.84003ZM13.1874 21.0592C13.1874 21.7474 13.7527 22.3044 14.4511 22.3044L20.5561 22.6477C21.4461 22.6477 22.1667 21.9362 22.1667 21.0592C22.1667 20.1822 21.4461 19.4722 20.5561 19.4722L14.4511 19.814C13.7527 19.814 13.1874 20.3711 13.1874 21.0592Z" fill="url(#paint0_linear)"/>
<defs>
<linearGradient id="paint0_linear" x1="0" y1="13.9104" x2="24" y2="13.9104" gradientUnits="userSpaceOnUse">
<stop stop-color="#FF3CB1"/>
<stop offset="1" stop-color="#D356FF"/>
</linearGradient>
</defs>
</svg>
