<svg width="24" height="24" viewBox="0 0 24 24" fill="none" xmlns="http://www.w3.org/2000/svg">
<g opacity="0.9" clip-path="url(#clip0)">
<path d="M23.953 2.52711C23.9335 2.43849 23.891 2.35658 23.8297 2.28968C23.7684 2.22277 23.6905 2.17325 23.604 2.14611C23.2886 2.08366 22.9623 2.1068 22.659 2.21311C22.659 2.21311 1.62997 9.77211 0.428968 10.6091C0.170968 10.7891 0.0839678 10.8941 0.0409678 11.0171C-0.167032 11.6171 0.479968 11.8751 0.479968 11.8751L5.89997 13.6411C5.99161 13.6575 6.08585 13.6521 6.17497 13.6251C7.40697 12.8461 18.575 5.79111 19.224 5.55411C19.324 5.52411 19.401 5.55411 19.381 5.62911C19.123 6.53411 9.47197 15.1071 9.41897 15.1591C9.39315 15.1803 9.37304 15.2075 9.36046 15.2385C9.34789 15.2694 9.34325 15.3029 9.34697 15.3361L8.84097 20.6281C8.84097 20.6281 8.62897 22.2751 10.276 20.6281C11.444 19.4591 12.565 18.4911 13.125 18.0201C14.989 19.3071 16.994 20.7301 17.859 21.4751C18.0045 21.6159 18.1769 21.726 18.3659 21.7987C18.5549 21.8714 18.7566 21.9052 18.959 21.8981C19.2082 21.8677 19.4422 21.7622 19.63 21.5955C19.8177 21.4289 19.9503 21.209 20.01 20.9651C20.01 20.9651 23.84 5.54211 23.968 3.47611C23.981 3.27611 23.998 3.14411 24 3.00511C24.0062 2.84438 23.9904 2.68355 23.953 2.52711Z" fill="white"/>
</g>
<defs>
<clipPath id="clip0">
<rect width="24" height="24" fill="white"/>
</clipPath>
</defs>
</svg>
