<svg width="32" height="32" viewBox="0 0 32 32" fill="none" xmlns="http://www.w3.org/2000/svg">
<path d="M31.9627 22.7743C31.6962 25.5686 30.1057 27.4804 27.7845 28.8784L27.7809 28.8802C15.6468 33.9269 6.30175 29.9852 3.94872 28.7972H3.94695C3.3256 28.4389 2.76073 28.0541 2.23292 27.6092C-0.882687 24.9773 -0.716757 20.2094 2.59832 17.8423C2.8684 17.6499 2.94607 17.4592 2.93372 17.1591C2.85781 15.1962 3.22674 13.3109 4.1323 11.5775C6.2029 7.61636 9.4562 5.19801 13.8534 4.34011C14.0422 4.30304 14.134 4.21478 14.2205 4.04532C14.7007 3.10799 15.2938 2.24656 16.0493 1.5087C16.7907 0.783197 17.3679 0.832623 17.9928 1.66404C18.5312 2.38072 18.8842 3.19625 19.209 4.02414C19.2885 4.22537 19.3856 4.32069 19.6168 4.35953C22.4058 4.84143 24.8666 5.98176 26.833 8.06119C28.7642 10.1018 29.8939 12.5113 30.104 15.3339C30.1658 16.16 30.2575 16.9844 30.3229 17.8087C30.337 17.9888 30.4482 18.0965 30.5541 18.2094C31.7633 19.5033 32.1269 21.0691 31.9627 22.7743Z" fill="#980230"/>
<path d="M27.3115 29.1627C27.3398 29.1892 27.3662 29.2174 27.3945 29.2439L27.3115 29.1627Z" fill="#E1A0B0"/>
<path d="M26.7926 29.514C26.7626 29.5069 26.7431 29.4875 26.7325 29.4592L26.7926 29.514Z" fill="#E1A0B0"/>
<path d="M15.2461 5.2191C14.8578 5.75573 14.5418 6.26058 14.2982 6.80427C14.194 7.03728 14.0969 7.27558 14.0281 7.52095C13.8145 8.28706 14.0846 8.78838 14.8436 9.00727C16.0316 9.34796 17.2284 9.33384 18.4147 9.00727C19.1314 8.80956 19.345 8.40709 19.1402 7.67452C18.9337 6.9349 18.6283 6.23057 18.2911 5.54037C18.2452 5.44505 18.1552 5.36385 18.1905 5.21204C19.1278 5.2544 20.0422 5.43445 20.9425 5.69218C24.3882 6.6807 26.8295 8.83957 28.3158 12.0841C28.8595 13.2721 29.0025 14.5607 29.149 15.844C29.2443 16.6772 29.2108 17.5245 29.4491 18.34C29.4915 18.4848 29.5427 18.6136 29.6486 18.7213C31.0466 20.137 31.2178 21.8422 30.7889 23.6728C30.3494 25.5492 29.1084 26.8237 27.5532 27.8334C25.7774 28.9861 23.8021 29.6304 21.728 29.957C18.8701 30.4071 15.9928 30.4159 13.1208 30.167C10.5647 29.9446 8.05458 29.4574 5.66447 28.4918C4.27171 27.9287 3.00604 27.1644 2.05988 25.9534C0.261119 23.6551 0.848938 20.1176 3.32202 18.5783C3.81098 18.2747 3.96809 17.8881 3.9522 17.3727C3.80392 12.6772 6.01045 9.30383 9.87629 6.88547C11.4368 5.9093 13.1455 5.32678 14.999 5.21733C15.059 5.21557 15.119 5.2191 15.2461 5.2191Z" fill="#FEBFC8"/>
<path d="M16.6425 8.5642C16.1235 8.53949 15.5904 8.50242 15.0697 8.35944C14.6796 8.25176 14.579 8.10701 14.6937 7.72396C15.0273 6.61363 15.6699 5.68865 16.4801 4.87665C16.7219 4.63481 16.9179 4.66482 17.1173 4.94549C17.7599 5.84929 18.1676 6.86076 18.4977 7.91107C18.5789 8.16703 18.4607 8.26941 18.2453 8.33296C17.7263 8.48653 17.1968 8.55185 16.6425 8.5642Z" fill="white"/>
<path d="M14.8914 4.22016C15.428 3.30754 15.9576 2.51318 16.676 1.86182C16.9161 1.64469 17.1067 1.66941 17.3168 1.9236C17.864 2.59085 18.1941 3.36932 18.563 4.23604C17.3274 4.0454 16.1517 4.08247 14.8914 4.22016Z" fill="#F9FCFF"/>
<path d="M26.2895 17.6676C27.7581 17.6075 28.9867 18.882 28.9955 20.3666C29.0043 21.8334 27.7581 23.1273 26.2294 23.0867C24.8508 23.0497 23.5393 21.8935 23.5587 20.2589C23.571 19.0038 24.8579 17.5369 26.2895 17.6676Z" fill="#FE84AB"/>
<path d="M6.26293 23.2316C4.73953 23.2369 3.6239 21.95 3.60625 20.5961C3.58507 19.1344 4.72011 17.8105 6.33177 17.8158C7.97344 17.8211 9.03258 19.0427 9.05906 20.5519C9.08377 21.9218 7.9399 23.304 6.26293 23.2316Z" fill="#FE84AB"/>
<path d="M7.99108 17.8937C7.66804 17.5318 7.60979 17.0781 7.5992 16.6298C7.57272 15.5424 7.83574 14.5468 8.71659 13.8248C10.2259 12.5891 12.4818 13.0552 13.405 14.7763C13.5604 15.0658 13.7069 15.3588 13.7951 15.6765C13.8251 15.7825 13.8852 15.8795 13.7881 15.9802C13.6116 15.959 13.5621 15.7772 13.4068 15.673C13.4792 16.1532 13.4968 16.6104 13.4262 17.0676C13.3521 17.5406 13.2691 18.0084 12.8543 18.3244C12.4995 18.6969 12.0793 18.9546 11.5745 19.0676C10.2153 19.2741 9.10847 18.275 8.99902 16.8628C8.92312 15.8901 9.27969 15.0393 9.8428 14.2749C8.65657 14.8027 8.12877 15.763 8.07934 17.0393C8.06698 17.3253 8.15877 17.6236 7.99108 17.8937Z" fill="#980230"/>
<path d="M21.0908 19.0691C20.3017 19.0939 19.7104 18.7373 19.2603 18.1142C18.8649 17.7576 18.8613 17.2598 18.8066 16.7902C18.7678 16.446 18.7907 16.0947 18.8207 15.7205C18.6566 15.7717 18.6124 15.98 18.4359 15.9659C18.5083 14.7655 19.691 13.4469 20.909 13.2069C22.7801 12.8397 24.3388 13.9571 24.623 15.8423C24.7271 16.5361 24.6583 17.1857 24.3352 17.8847C24.2735 17.4451 24.3794 17.0656 24.2487 16.7055C24.1464 16.6331 24.1481 16.5166 24.1216 16.4125C23.8127 15.2139 23.4473 14.7638 22.3564 14.2466C22.5453 14.4037 22.6618 14.612 22.7748 14.8238C22.9019 15.0621 22.9954 15.3128 23.0855 15.5652C23.172 15.807 23.2179 16.0577 23.2461 16.3136C23.3732 17.4222 22.939 18.266 22.0158 18.8555C21.7474 19.0303 21.4456 19.2051 21.0908 19.0691Z" fill="#980230"/>
<path d="M12.616 20.9774C14.0282 23.9271 17.9434 23.733 19.5886 21.2369C19.6469 22.0454 18.8543 23.2599 18.2047 23.6429C16.8331 24.4514 15.4439 24.3314 14.1041 23.6129C13.082 23.0657 12.623 22.1248 12.616 20.9774Z" fill="#980230"/>
<path d="M21.0908 19.0692C22.5719 18.8433 23.4809 17.4752 23.1155 15.9959C22.9408 15.2934 22.6884 14.6226 22.1129 14.1248C23.1879 14.2271 24.1659 15.4116 24.2488 16.7038C24.2453 17.0198 24.2118 17.3393 24.2471 17.65C24.293 18.0719 24.0635 18.3314 23.7599 18.5132C23.029 18.9492 22.2082 19.1116 21.3715 19.1981C21.2515 19.214 21.1508 19.1822 21.0908 19.0692Z" fill="#FAF8FB"/>
<path d="M7.99104 17.8936C7.89925 16.785 8.01046 15.7294 8.80657 14.8592C9.15785 14.4744 9.59739 14.2272 10.1358 14.1107C9.46676 14.7956 9.11901 15.6288 9.08371 16.582C9.03075 17.9942 10.1623 19.1839 11.5727 19.0657C11.2249 19.2087 10.8754 19.1186 10.5382 19.0498C9.80392 18.898 9.05547 18.785 8.42175 18.3313C8.24876 18.2078 8.12696 18.0471 7.99104 17.8936Z" fill="#F5FAF8"/>
<path d="M12.8542 18.3244C13.4456 17.4665 13.412 16.5026 13.3132 15.4965C13.5886 15.5777 13.6698 15.7965 13.788 15.9801C13.9522 16.8257 13.6362 17.5282 13.1349 18.1725C13.0731 18.2484 12.9496 18.2749 12.8542 18.3244Z" fill="#FAF3F3"/>
<path d="M18.4359 15.966C18.6071 15.823 18.6795 15.5776 18.9567 15.4788C18.8313 16.4037 18.8366 17.2863 19.2603 18.1142C19.2179 18.2978 19.1614 18.2237 19.0838 18.1319C18.6742 17.6535 18.4871 17.0939 18.4553 16.4743C18.4465 16.3049 18.443 16.1354 18.4359 15.966Z" fill="#F7F5F7"/>
<path d="M12.3918 16.2694C12.3918 16.7372 12.1006 17.0885 11.7069 17.0973C11.3415 17.1044 11.1032 16.8219 11.1121 16.3895C11.1209 15.934 11.4333 15.5528 11.7987 15.5492C12.1535 15.5457 12.3918 15.8334 12.3918 16.2694Z" fill="#F5F7F8"/>
<path d="M21.1614 16.3966C21.1702 16.7832 20.9107 17.0992 20.5806 17.1027C20.1958 17.108 19.8728 16.7496 19.8534 16.2942C19.8357 15.89 20.0952 15.5546 20.4341 15.5457C20.8207 15.5387 21.1508 15.9253 21.1614 16.3966Z" fill="#F6F7F9"/>
</svg>
