<svg width="56" height="56" viewBox="0 0 56 56" fill="none" xmlns="http://www.w3.org/2000/svg">
<path opacity="0.3" d="M12.6726 24.0865L51.0435 6.92969C51.8093 6.58733 52.5864 6.40259 53.3488 6.35403C52.0285 3.06858 48.1248 1.13846 44.4807 2.76779L6.10982 19.9246C1.34687 22.0542 0.800407 28.5977 5.1441 31.4879L9.50628 34.3783C6.07132 31.3639 8.17557 26.0972 12.6726 24.0865Z" fill="#FF3CB1"/>
<path d="M40.6758 55.9916C38.9673 55.9916 37.2717 55.492 35.7981 54.5115L24.0559 46.6988C23.0501 46.0295 22.7773 44.6715 23.4464 43.6656C24.1157 42.6599 25.4738 42.3869 26.4796 43.0562L38.2217 50.869C39.4975 51.718 41.0359 51.8561 42.4423 51.2482C43.8488 50.6405 44.8023 49.4257 45.0584 47.9153L51.5615 9.55804C51.8397 7.91658 51.2201 6.32783 49.9039 5.30819C48.5875 4.28844 46.8941 4.08555 45.3738 4.76501L7.00293 21.9218C5.50464 22.5918 4.52864 23.968 4.39214 25.6032C4.25552 27.2385 4.98968 28.7576 6.35605 29.6667L11.7134 33.2311C12.7192 33.9004 12.992 35.2584 12.3228 36.2642C11.6535 37.2699 10.2955 37.5429 9.28973 36.8737L3.93241 33.3092C1.21892 31.5038 -0.239117 28.4869 0.0321456 25.2392C0.303298 21.9914 2.24162 19.258 5.21708 17.9277L43.5879 0.770896C46.5617 -0.558617 50.0084 -0.145489 52.5833 1.84938C55.1582 3.84403 56.4195 7.07807 55.8752 10.2892L49.3721 48.6465C48.8711 51.6016 46.9293 54.0756 44.178 55.2644C43.0512 55.7513 41.8603 55.9916 40.6758 55.9916Z" fill="#FF3CB1"/>
<path d="M16.8456 55.9989C15.6373 55.9989 14.658 55.0196 14.658 53.8113V43.71C14.658 40.5827 15.9321 37.527 18.1537 35.326L38.7132 14.9587C39.5714 14.1083 40.9566 14.115 41.8068 14.9733C42.6571 15.8316 42.6507 17.2167 41.7923 18.0669L21.2329 38.4342C19.8349 39.8191 19.0332 41.7421 19.0332 43.71V53.8113C19.0332 55.0196 18.0537 55.9989 16.8456 55.9989Z" fill="#003DFF"/>
</svg>
