<svg width="56" height="56" viewBox="0 0 56 56" fill="none" xmlns="http://www.w3.org/2000/svg">
<path opacity="0.3" d="M8.75281 42.8687V19.4159C5.14397 18.4869 2.438 15.3137 2.209 11.4724L2.19128 11.491V42.8687C2.19128 48.913 7.09121 53.8128 13.1355 53.8128H19.697C13.6527 53.8128 8.75281 48.913 8.75281 42.8687Z" fill="#FF3CB1"/>
<path d="M53.8093 15.4279C55.0173 15.4279 55.9965 14.4487 55.9965 13.2407V10.9442C55.9965 4.90955 51.0868 0 45.0522 0C45.0522 0 10.7673 0.00513986 10.6828 0.0150915C7.79694 0.11592 5.0248 1.3543 3.0266 3.44808C0.978416 5.59414 -0.0893629 8.38541 0.0111378 11.3222C0.00698221 11.3779 0.00479504 42.8686 0.00479504 42.8686C0.00479504 50.1093 5.89551 56 13.1362 56H45.0523C51.0869 56 55.9965 51.0905 55.9965 45.0558V28.4499C55.9965 22.4153 51.0869 17.5057 45.0523 17.5057H10.9406C7.42894 17.5057 4.54996 14.761 4.38625 11.2572C4.30303 9.4755 4.94398 7.77475 6.19089 6.46813C7.45585 5.14271 9.23238 4.38266 11.0648 4.38266C11.1294 4.38266 45.0521 4.37435 45.0521 4.37435C48.6747 4.37435 51.6219 7.32157 51.6219 10.9442V13.2407C51.6221 14.4487 52.6013 15.4279 53.8093 15.4279ZM10.9406 21.8801H45.0522C48.6748 21.8801 51.622 24.8273 51.622 28.4499V45.0558C51.622 48.6784 48.6748 51.6257 45.0522 51.6257H13.1362C8.30753 51.6257 4.37915 47.6973 4.37915 42.8686V19.7017C6.2085 21.072 8.48152 21.8801 10.9406 21.8801Z" fill="#FF3CB1"/>
<path d="M47.2472 36.7527C47.2472 38.2626 46.0232 39.4866 44.5132 39.4866C43.0033 39.4866 41.7793 38.2626 41.7793 36.7527C41.7793 35.2428 43.0033 34.0187 44.5132 34.0187C46.0232 34.0187 47.2472 35.2428 47.2472 36.7527ZM47.2472 10.944C47.2472 9.73603 46.268 8.75684 45.06 8.75684H10.9401C9.73213 8.75684 8.75293 9.73603 8.75293 10.944C8.75293 12.152 9.73213 13.1312 10.9401 13.1312H45.06C46.2679 13.1312 47.2472 12.152 47.2472 10.944Z" fill="#003DFF"/>
</svg>
