<svg width="30" height="24" viewBox="0 0 30 24" fill="none" xmlns="http://www.w3.org/2000/svg">
<path fill-rule="evenodd" clip-rule="evenodd" d="M29.6809 9.80857C29.4778 10.0059 29.2021 10.1186 28.912 10.1186C27.8385 10.1186 26.9681 10.9642 26.9681 11.993C26.9681 13.0288 27.8283 13.8701 28.8917 13.8814C29.4908 13.887 30 14.2929 30 14.8749V18.4897C30 21.5324 27.4613 24 24.3279 24H19.5986C19.1098 24 18.7137 23.6153 18.7137 23.1403V20.0963C18.7137 19.5044 18.235 19.0393 17.6257 19.0393C17.0309 19.0393 16.5377 19.5044 16.5377 20.0963V23.1403C16.5377 23.6153 16.1417 24 15.6543 24H5.67215C2.55319 24 0 21.5338 0 18.4897V14.8749C0 14.2929 0.509188 13.887 1.10832 13.8814C2.17311 13.8701 3.03192 13.0288 3.03192 11.993C3.03192 10.9924 2.19052 10.2314 1.08801 10.2314C0.797872 10.2314 0.522244 10.1186 0.319149 9.92131C0.116054 9.72401 0 9.45625 0 9.1744V5.52437C0 2.48597 2.55899 0 5.68665 0H15.6543C16.1417 0 16.5377 0.384733 16.5377 0.859659V4.46741C16.5377 5.04521 17.0309 5.52437 17.6257 5.52437C18.235 5.52437 18.7137 5.04521 18.7137 4.46741V0.859659C18.7137 0.384733 19.1098 0 19.5986 0H24.3279C27.4613 0 30 2.46624 30 5.51027V9.06165C30 9.34351 29.8839 9.61127 29.6809 9.80857ZM17.6257 16.3053C18.235 16.3053 18.7137 15.8262 18.7137 15.2484V9.61128C18.7137 9.03348 18.235 8.55432 17.6257 8.55432C17.0309 8.55432 16.5377 9.03348 16.5377 9.61128V15.2484C16.5377 15.8262 17.0309 16.3053 17.6257 16.3053Z" fill="url(#paint0_linear)"/>
<defs>
<linearGradient id="paint0_linear" x1="15.1007" y1="0" x2="15.1007" y2="24" gradientUnits="userSpaceOnUse">
<stop stop-color="#FF3CB1"/>
<stop offset="1" stop-color="#D356FF"/>
</linearGradient>
</defs>
</svg>
