<svg width="32" height="28" viewBox="0 0 32 28" fill="none" xmlns="http://www.w3.org/2000/svg">
<path d="M28 16.8561V15.3334C28 13.1281 26.2053 11.3334 24 11.3334V8.66675H26.6667V6.00008H24C22.5293 6.00008 21.3333 7.19608 21.3333 8.66675V11.3334H19.7067L17.2933 1.67608C17.144 1.08275 16.612 0.666748 16 0.666748H5.33333C4.596 0.666748 4 1.26408 4 2.00008C4 2.73608 4.596 3.33341 5.33333 3.33341H6.66667V11.4534C2.88933 12.0921 0 15.3774 0 19.3334C0 23.7454 3.588 27.3334 8 27.3334C10.9533 27.3334 13.532 25.7201 14.9173 23.3334H21.5227C22.1187 25.6267 24.188 27.3334 26.6667 27.3334C29.608 27.3334 32 24.9414 32 22.0001C32 19.5227 30.2947 17.4521 28 16.8561ZM16.9587 11.3334H9.33333V3.33341H14.9587L16.9587 11.3334ZM8 24.6667C5.05867 24.6667 2.66667 22.2747 2.66667 19.3334C2.66667 16.3921 5.05867 14.0001 8 14.0001C10.9413 14.0001 13.3333 16.3921 13.3333 19.3334C13.3333 22.2747 10.9413 24.6667 8 24.6667ZM26.6667 24.6667C25.196 24.6667 24 23.4707 24 22.0001C24 20.5307 25.196 19.3347 26.664 19.3334C26.6653 19.3334 26.6653 19.3334 26.6667 19.3334C26.668 19.3334 26.668 19.3334 26.6693 19.3334C28.1373 19.3347 29.3333 20.5307 29.3333 22.0001C29.3333 23.4707 28.1373 24.6667 26.6667 24.6667Z" fill="url(#paint0_linear)"/>
<defs>
<linearGradient id="paint0_linear" x1="16.1074" y1="0.666748" x2="16.1074" y2="27.3334" gradientUnits="userSpaceOnUse">
<stop stop-color="#FF3CB1"/>
<stop offset="1" stop-color="#D356FF"/>
</linearGradient>
</defs>
</svg>
