<svg width="50" height="50" viewBox="0 0 50 50" fill="none" xmlns="http://www.w3.org/2000/svg">
<path d="M48.781 26.968C49.4378 22.2664 48.6616 17.3664 46.2736 13.2202C45.4975 11.8712 44.582 10.6214 43.5074 9.51049C42.2935 8.24085 40.9203 7.12992 39.6069 5.95947C43.2288 9.1534 45.4975 13.6566 46.1343 18.4178C46.791 23.1987 45.8358 28.2376 43.6069 32.5226C41.398 36.7878 38.1343 40.4182 34.0547 42.9773C30.0149 45.5166 25.2985 46.9251 20.5024 46.806C16.1442 46.6672 11.8656 45.219 8.44274 42.5012C8.18404 42.3028 7.92533 42.0846 7.68652 41.8664C9.41787 43.3939 11.0895 45.0206 13.0597 46.2307C14.8706 47.3417 16.8806 48.1352 18.9502 48.6311C23.5472 49.7024 28.4228 49.1668 32.7611 47.3813C37.0995 45.5959 40.9203 42.6202 43.7462 38.8906C46.4129 35.3793 48.184 31.2728 48.781 26.968Z" fill="url(#paint0_linear)"/>
<path opacity="0.5" d="M32.8209 47.3615C34.3334 46.7466 35.7861 45.9729 37.1592 45.0603L35.5075 43.3146C35.3085 43.4534 35.1095 43.5725 34.9105 43.7113C30.7911 46.3101 25.9752 47.7385 21.0796 47.5996C17.6169 47.5004 14.1941 46.568 11.209 44.8421C11.8259 45.3182 12.4627 45.7943 13.1393 46.1911C14.9503 47.302 16.9602 48.0955 19.0299 48.5915C23.5871 49.6628 28.4627 49.147 32.8209 47.3615Z" fill="url(#paint1_linear)" fill-opacity="0.5"/>
<path d="M28.4226 1.11903C40.6614 2.40851 48.4624 13.6368 45.8555 26.234C43.2286 38.8113 31.1888 47.9765 18.9301 46.6871C6.6913 45.3976 -1.1097 34.1692 1.49727 21.5721C4.12413 8.99474 16.1838 -0.170439 28.4226 1.11903Z" fill="url(#paint2_linear)"/>
<path d="M28.2634 1.65467C16.4425 0.404872 4.82064 9.25265 2.27338 21.3935C2.07437 22.3259 1.93507 23.2583 1.85547 24.1709C6.81069 27.7417 12.8007 30.0826 19.5271 30.7769C28.5022 31.7093 37.4177 29.5867 45.1987 25.2024C47.348 13.3393 39.8654 2.86479 28.2634 1.65467Z" fill="url(#paint3_linear)"/>
<path opacity="0.5" d="M20.801 45.6157C9.87564 44.4651 1.91544 34.9825 4.3831 23.1987C6.83087 11.4348 18.1144 2.86473 29.5572 4.05502C39.1692 5.06676 44.801 13.1408 45.2189 22.068C45.6965 11.4744 38.5324 2.587 27.8856 1.45623C16.0249 0.226271 4.3433 9.09388 1.81594 21.2744C-0.731325 33.455 6.83087 44.3461 18.6916 45.5959C19.7662 45.7149 20.8408 45.7348 21.9154 45.6951C21.5373 45.6753 21.1592 45.6356 20.801 45.6157Z" fill="#94512A"/>
<path d="M26.6515 3.55918C27.348 3.55918 28.0445 3.59886 28.7212 3.65837C33.8356 4.194 38.2535 6.6936 41.1789 10.681C42.6913 12.764 43.746 15.1248 44.2833 17.7236C44.8406 20.4414 44.8207 23.2584 44.2236 26.1349C43.149 31.3126 40.2435 36.0936 36.0445 39.5851C31.8853 43.0369 26.8306 44.9414 21.7958 44.9414C21.0993 44.9414 20.4027 44.9017 19.7261 44.8422C14.6117 44.3066 10.1938 41.807 7.26842 37.8195C5.75598 35.7365 4.70125 33.3758 4.16394 30.777C3.60673 28.0592 3.62663 25.2422 4.22364 22.3657C5.29827 17.1879 8.20374 12.407 12.4027 8.91546C16.562 5.46364 21.6167 3.55918 26.6515 3.55918ZM26.6515 1.59521C15.348 1.61505 4.72116 10.3041 2.29329 21.9689C-0.29377 34.4074 7.42762 44.5446 19.5271 45.8142C20.2833 45.8936 21.0396 45.9333 21.7958 45.9333C33.0993 45.9333 42.8107 37.5815 45.2386 25.9167C47.8256 13.4782 41.0197 3.00372 28.9202 1.73408C28.1639 1.63489 27.4077 1.59521 26.6515 1.59521Z" fill="#E99855"/>
<path d="M26.134 2.98381C26.8305 2.98381 27.5271 3.02348 28.2236 3.083C33.3977 3.61862 37.8554 6.13806 40.8206 10.185C42.3529 12.2879 43.4076 14.6883 43.9649 17.3069C44.542 20.0445 44.5221 22.9012 43.9052 25.8174C42.8106 31.0547 39.8853 35.8753 35.6266 39.4065C31.4276 42.898 26.3131 44.8223 21.2385 44.8223C20.542 44.8223 19.8455 44.7826 19.1489 44.7231C13.9947 44.1875 9.5171 41.668 6.55193 37.6211C5.01959 35.5182 3.96487 33.1178 3.40765 30.4992C2.83054 27.7615 2.85044 24.9049 3.46735 21.9887C4.54198 16.7514 7.48725 11.9109 11.7261 8.3996C15.9251 4.9081 21.0395 2.98381 26.134 2.98381ZM26.134 1C14.7111 1 3.96487 9.78826 1.4972 21.5721C-1.12966 34.1494 6.67133 45.3976 18.93 46.687C19.7062 46.7664 20.4624 46.8061 21.2385 46.8061C32.6614 46.8061 43.4076 38.0178 45.8554 26.234C48.4823 13.6567 40.6813 2.4085 28.4226 1.11903C27.6664 1.03968 26.8902 1 26.134 1Z" fill="url(#paint4_linear)"/>
<path d="M37.9561 26.7299C36.9212 25.5198 35.8665 24.2898 34.8317 23.0797C34.772 23.0004 34.772 23.0004 34.6924 23.0599C33.6775 24.0518 32.6625 25.0238 31.6277 26.0158C31.5481 26.0951 31.568 26.0753 31.6277 26.1546C32.6625 27.3647 33.6974 28.5749 34.7521 29.785C34.7919 29.8445 34.8317 29.8445 34.8715 29.8048C35.8864 28.8129 36.9212 27.821 37.9362 26.8291C37.9561 26.8093 37.976 26.7894 37.9959 26.7894V26.7696C37.9959 26.7696 37.976 26.7498 37.9561 26.7299Z" fill="#94512A"/>
<path d="M15.8862 19.608C16.0255 19.7667 16.1847 19.9453 16.324 20.1238C16.3439 20.1436 16.3638 20.1635 16.3837 20.1833C16.9807 20.8578 17.5578 21.5323 18.1548 22.2068C18.2145 22.2663 18.2344 22.2663 18.2742 22.2266C20.0653 20.5404 21.8563 18.8343 23.6474 17.1283C23.7071 17.0687 23.7071 17.0687 23.7867 17.1481C25.5976 19.2113 27.4086 21.2942 29.2195 23.3971C29.2394 23.4169 29.2593 23.4368 29.2792 23.4764C29.319 23.4566 29.3389 23.4368 29.3588 23.4169C30.3737 22.425 31.4086 21.453 32.4235 20.4611C32.5031 20.4015 32.5031 20.4015 32.4235 20.3222C30.2344 17.8028 28.0454 15.2833 25.8762 12.8036C25.8563 12.7837 25.8364 12.7639 25.8165 12.7242C25.7966 12.7044 25.7767 12.6845 25.7568 12.6647C25.1001 11.9108 24.4235 11.157 23.7668 10.4032C23.727 10.3436 23.6872 10.3436 23.6474 10.4032C23.3688 10.6809 23.0902 10.9586 22.7917 11.2165C22.0553 11.9307 21.319 12.6449 20.5827 13.359C18.7519 15.1246 16.9011 16.8704 15.0504 18.6161C15.0106 18.6558 15.0106 18.6756 15.0504 18.7153C15.329 18.9732 15.6076 19.2906 15.8862 19.608Z" fill="#94512A"/>
<path d="M29.3783 28.317C29.3186 28.2376 29.3186 28.2376 29.2389 28.2972C27.4479 30.0032 25.637 31.6895 23.8459 33.3757C23.826 33.3955 23.826 33.4154 23.8061 33.4352C23.7663 33.3955 23.7464 33.3757 23.7464 33.3559C21.9355 31.253 20.1245 29.17 18.3136 27.087C18.234 27.0077 18.234 27.0077 18.1743 27.0672C17.8559 27.3648 17.5176 27.6822 17.1992 27.9798C16.9802 28.1781 16.7613 28.3765 16.5424 28.5749C16.0449 29.0113 15.5673 29.4676 15.0897 29.904C15.03 29.9636 15.03 29.9636 15.0897 30.0429C15.3683 30.3802 15.6668 30.6976 15.9454 31.0348C16.025 31.1737 16.1444 31.2927 16.2638 31.4117C16.2638 31.4117 16.2638 31.4117 16.2837 31.4117C16.3036 31.4316 16.3235 31.4514 16.3434 31.4713C18.035 33.4154 19.7265 35.3793 21.4181 37.3433C22.2141 38.2559 23.0101 39.1883 23.7862 40.1206C23.8061 40.1405 23.826 40.1802 23.8658 40.1802C23.8857 40.1603 23.8857 40.1603 23.9056 40.1405C24.622 39.4858 25.3385 38.8113 26.0549 38.1567C28.224 36.1332 30.3733 34.1097 32.5225 32.0664C32.5623 32.0267 32.5623 32.0069 32.5225 31.9474C31.4678 30.7372 30.433 29.5271 29.3783 28.317Z" fill="#94512A"/>
<path d="M23.8062 21.8695C23.7664 21.81 23.7266 21.81 23.6868 21.8497C22.652 22.8416 21.5973 23.8335 20.5426 24.8254C20.5028 24.8651 20.4829 24.8849 20.5426 24.9642C21.5973 26.1744 22.652 27.3845 23.6868 28.5946C23.7067 28.6144 23.7266 28.6541 23.7664 28.6938C23.7863 28.674 23.8062 28.6541 23.8062 28.6343C24.861 27.6424 25.9157 26.6505 26.9505 25.6586C26.9903 25.6189 26.9903 25.5991 26.9505 25.5395C25.9157 24.3096 24.861 23.0995 23.8062 21.8695Z" fill="#94512A"/>
<path d="M15.9257 24.3295C15.3287 23.655 14.7516 22.9805 14.1545 22.306C14.1346 22.2862 14.1147 22.2663 14.0948 22.2267C14.0749 22.2068 14.055 22.187 14.0351 22.1671C13.6172 21.691 13.2192 21.2348 12.8013 20.7586C12.7615 20.719 12.7416 20.719 12.7018 20.7586C12.4033 21.0364 12.1048 21.3141 11.8262 21.572C11.07 22.2663 10.3336 22.9607 9.57743 23.6352C9.55753 23.655 9.51773 23.6748 9.57743 23.7343C10.1147 24.3295 10.6322 24.9445 11.1695 25.5396C11.2889 25.6586 11.4083 25.7975 11.5277 25.9364C11.5277 25.976 11.5476 25.9959 11.5675 26.0157C11.6272 26.0951 11.6869 26.1546 11.7466 26.2339C11.7665 26.2736 11.8063 26.3133 11.8461 26.3133C11.866 26.3331 11.8859 26.353 11.9058 26.3728C12.1844 26.6704 12.4431 26.9878 12.7018 27.3052C12.7615 27.3647 12.7814 27.3647 12.8212 27.325C13.856 26.3728 14.8909 25.4007 15.9257 24.4485C15.9655 24.4088 15.9655 24.389 15.9257 24.3295Z" fill="#94512A"/>
<path d="M37.5576 26.3332C36.5228 25.1231 35.4681 23.8931 34.4332 22.683C34.3735 22.6036 34.3735 22.6036 34.2939 22.6631C33.279 23.6551 32.2641 24.6271 31.2293 25.619C31.1497 25.6984 31.1696 25.6785 31.2293 25.7579C32.2641 26.968 33.2989 28.1781 34.3536 29.3883C34.3934 29.4478 34.4332 29.4478 34.473 29.4081C35.488 28.4162 36.5228 27.4243 37.5377 26.4324C37.5576 26.4125 37.5775 26.3927 37.5974 26.3927V26.3729C37.5974 26.3729 37.5775 26.353 37.5576 26.3332Z" fill="#E28A50"/>
<path d="M15.4877 19.2113C15.627 19.37 15.7863 19.5485 15.9256 19.7271C15.9455 19.7469 15.9654 19.7668 15.9853 19.7866C16.5823 20.4611 17.1594 21.1356 17.7564 21.8101C17.8161 21.8696 17.836 21.8696 17.8758 21.8299C19.6668 20.1437 21.4579 18.4376 23.2489 16.7315C23.3086 16.672 23.3086 16.672 23.3882 16.7514C25.1992 18.8145 27.0101 20.8975 28.8211 23.0004C28.841 23.0202 28.8609 23.04 28.8808 23.0797C28.9206 23.0599 28.9405 23.04 28.9604 23.0202C29.9753 22.0283 31.0101 21.0562 32.0251 20.0643C32.1047 20.0048 32.1047 20.0048 32.0251 19.9255C29.836 17.406 27.647 14.8866 25.4778 12.4068C25.4579 12.387 25.438 12.3672 25.4181 12.3275C25.3982 12.3076 25.3783 12.2878 25.3584 12.268C24.7017 11.5141 24.0251 10.7603 23.3683 10.0064C23.3285 9.94691 23.2887 9.94691 23.2489 10.0064C22.9703 10.2842 22.6917 10.5619 22.3932 10.8198C21.6569 11.534 20.9206 12.2481 20.1843 12.9623C18.3534 14.7279 16.5027 16.4736 14.6519 18.2194C14.6121 18.2591 14.6121 18.2789 14.6519 18.3186C14.9305 18.5765 15.2091 18.8939 15.4877 19.2113Z" fill="#E28A50"/>
<path d="M28.9798 27.9202C28.9201 27.8408 28.9201 27.8408 28.8405 27.9003C27.0495 29.6064 25.2385 31.2926 23.4475 32.9789C23.4276 32.9987 23.4276 33.0185 23.4077 33.0384C23.3679 32.9987 23.348 32.9789 23.348 32.959C21.537 30.8562 19.7261 28.7732 17.9151 26.6902C17.8355 26.6108 17.8355 26.6108 17.7758 26.6704C17.4574 26.9679 17.1191 27.2853 16.8007 27.5829C16.5818 27.7813 16.3629 27.9797 16.144 28.178C15.6465 28.6145 15.1689 29.0708 14.6913 29.5072C14.6316 29.5667 14.6316 29.5667 14.6913 29.6461C14.9699 29.9833 15.2684 30.3007 15.547 30.638C15.6266 30.7768 15.746 30.8959 15.8654 31.0149C15.8654 31.0149 15.8654 31.0149 15.8853 31.0149C15.9052 31.0347 15.9251 31.0546 15.945 31.0744C17.6365 33.0185 19.3281 34.9825 21.0196 36.9465C21.8156 37.859 22.6117 38.7914 23.3878 39.7238C23.4077 39.7436 23.4276 39.7833 23.4674 39.7833C23.4873 39.7635 23.4873 39.7635 23.5072 39.7436C24.2236 39.089 24.94 38.4145 25.6564 37.7598C27.8256 35.7364 29.9748 33.7129 32.1241 31.6695C32.1639 31.6299 32.1639 31.61 32.1241 31.5505C31.0694 30.3404 30.0345 29.1303 28.9798 27.9202Z" fill="#E28A50"/>
<path d="M23.4078 21.4728C23.368 21.4133 23.3282 21.4133 23.2884 21.4529C22.2536 22.4448 21.1989 23.4367 20.1441 24.4287C20.1043 24.4683 20.0844 24.4882 20.1441 24.5675C21.1989 25.7776 22.2536 26.9878 23.2884 28.1979C23.3083 28.2177 23.3282 28.2574 23.368 28.2971C23.3879 28.2772 23.4078 28.2574 23.4078 28.2376C24.4625 27.2457 25.5173 26.2538 26.5521 25.2619C26.5919 25.2222 26.5919 25.2023 26.5521 25.1428C25.5173 23.9129 24.4625 22.7027 23.4078 21.4728Z" fill="#E28A50"/>
<path d="M15.5273 23.9328C14.9302 23.2583 14.3531 22.5838 13.7561 21.9093C13.7362 21.8894 13.7163 21.8696 13.6964 21.8299C13.6765 21.8101 13.6566 21.7903 13.6367 21.7704C13.2188 21.2943 12.8208 20.838 12.4029 20.3619C12.3631 20.3222 12.3432 20.3222 12.3034 20.3619C12.0049 20.6396 11.7064 20.9174 11.4277 21.1753C10.6715 21.8696 9.93521 22.5639 9.17899 23.2384C9.15909 23.2583 9.11929 23.2781 9.17899 23.3376C9.71631 23.9328 10.2337 24.5477 10.771 25.1429C10.8904 25.2619 11.0098 25.4008 11.1292 25.5396C11.1292 25.5793 11.1491 25.5992 11.169 25.619C11.2287 25.6983 11.2884 25.7579 11.3481 25.8372C11.368 25.8769 11.4078 25.9166 11.4476 25.9166C11.4675 25.9364 11.4875 25.9562 11.5074 25.9761C11.786 26.2737 12.0447 26.5911 12.3034 26.9085C12.3631 26.968 12.383 26.968 12.4228 26.9283C13.4576 25.9761 14.4924 25.004 15.5273 24.0518C15.5671 24.0121 15.5671 23.9923 15.5273 23.9328Z" fill="#E28A50"/>
<path d="M37.359 25.9364C36.3242 24.7263 35.2695 23.4964 34.2347 22.2862C34.175 22.2069 34.175 22.2069 34.0954 22.2664C33.0804 23.2583 32.0655 24.2304 31.0307 25.2223C30.9511 25.3016 30.971 25.2818 31.0307 25.3611C32.0655 26.5713 33.1003 27.7814 34.1551 28.9915C34.1949 29.051 34.2347 29.051 34.2745 29.0113C35.2894 28.0194 36.3242 27.0275 37.3391 26.0356C37.359 26.0158 37.3789 25.996 37.3988 25.996V25.9761C37.3988 25.9761 37.3789 25.9563 37.359 25.9364Z" fill="url(#paint5_linear)"/>
<path d="M15.2892 18.8146C15.4285 18.9733 15.5877 19.1518 15.727 19.3303C15.7469 19.3502 15.7668 19.37 15.7867 19.3899C16.3837 20.0644 16.9608 20.7388 17.5578 21.4133C17.6175 21.4729 17.6374 21.4729 17.6772 21.4332C19.4683 19.7469 21.2593 18.0409 23.0503 16.3348C23.1101 16.2753 23.1101 16.2753 23.1897 16.3546C25.0006 18.4178 26.8115 20.5008 28.6225 22.6036C28.6424 22.6235 28.6623 22.6433 28.6822 22.683C28.722 22.6631 28.7419 22.6433 28.7618 22.6235C29.7767 21.6316 30.8115 20.6595 31.8265 19.6676C31.9061 19.6081 31.9061 19.6081 31.8265 19.5287C29.6374 17.0093 27.4484 14.4899 25.2792 12.0101C25.2593 11.9903 25.2394 11.9704 25.2195 11.9308C25.1996 11.9109 25.1797 11.8911 25.1598 11.8712C24.5031 11.1174 23.8265 10.3635 23.1698 9.6097C23.13 9.55018 23.0901 9.55018 23.0503 9.6097C22.7717 9.88743 22.4931 10.1652 22.1946 10.4231C21.4583 11.1372 20.722 11.8514 19.9857 12.5656C18.1548 14.3312 16.3041 16.0769 14.4533 17.8227C14.4135 17.8623 14.4135 17.8822 14.4533 17.9218C14.7319 18.1797 15.0105 18.4971 15.2892 18.8146Z" fill="url(#paint6_linear)"/>
<path d="M28.7816 27.5235C28.7219 27.4441 28.7219 27.4441 28.6423 27.5037C26.8513 29.2097 25.0404 30.896 23.2493 32.5822C23.2294 32.602 23.2294 32.6219 23.2095 32.6417C23.1697 32.602 23.1498 32.5822 23.1498 32.5624C21.3389 30.4595 19.5279 28.3765 17.717 26.2935C17.6374 26.2142 17.6374 26.2142 17.5777 26.2737C17.2593 26.5713 16.9209 26.8887 16.6025 27.1862C16.3836 27.3846 16.1647 27.583 15.9458 27.7814C15.4483 28.2178 14.9707 28.6741 14.4931 29.1105C14.4334 29.17 14.4334 29.17 14.4931 29.2494C14.7717 29.5866 15.0702 29.9041 15.3488 30.2413C15.4284 30.3802 15.5478 30.4992 15.6672 30.6182C15.6672 30.6182 15.6672 30.6182 15.6871 30.6182C15.707 30.6381 15.7269 30.6579 15.7468 30.6777C17.4384 32.6219 19.1299 34.5858 20.8214 36.5498C21.6175 37.4624 22.4135 38.3947 23.1896 39.3271C23.2095 39.347 23.2294 39.3866 23.2692 39.3866C23.2891 39.3668 23.2891 39.3668 23.309 39.347C24.0254 38.6923 24.7418 38.0178 25.4583 37.3632C27.6274 35.3397 29.7767 33.3162 31.9259 31.2729C31.9657 31.2332 31.9657 31.2134 31.9259 31.1539C30.8712 29.9437 29.8364 28.7336 28.7816 27.5235Z" fill="url(#paint7_linear)"/>
<path d="M23.2095 21.0761C23.1697 21.0165 23.1299 21.0165 23.0901 21.0562C22.0552 22.0481 21.0005 23.04 19.9458 24.0319C19.906 24.0716 19.8861 24.0914 19.9458 24.1708C21.0005 25.3809 22.0552 26.591 23.0901 27.8012C23.11 27.821 23.1299 27.8607 23.1697 27.9004C23.1896 27.8805 23.2095 27.8607 23.2095 27.8408C24.2642 26.8489 25.3189 25.857 26.3537 24.8651C26.3935 24.8255 26.3935 24.8056 26.3537 24.7461C25.3189 23.5161 24.2642 22.306 23.2095 21.0761Z" fill="url(#paint8_linear)"/>
<path d="M15.329 23.536C14.732 22.8615 14.1549 22.187 13.5579 21.5125C13.538 21.4927 13.5181 21.4729 13.4982 21.4332C13.4783 21.4133 13.4584 21.3935 13.4385 21.3737C13.0206 20.8975 12.6225 20.4413 12.2046 19.9652C12.1648 19.9255 12.1449 19.9255 12.1051 19.9652C11.8066 20.2429 11.5081 20.5206 11.2295 20.7785C10.4733 21.4729 9.73697 22.1672 8.98075 22.8417C8.96085 22.8615 8.92105 22.8814 8.98075 22.9409C9.51806 23.536 10.0355 24.151 10.5728 24.7461C10.6922 24.8652 10.8116 25.004 10.931 25.1429C10.931 25.1826 10.9509 25.2024 10.9708 25.2222C11.0305 25.3016 11.0902 25.3611 11.1499 25.4405C11.1698 25.4801 11.2096 25.5198 11.2494 25.5198C11.2693 25.5397 11.2892 25.5595 11.3091 25.5793C11.5877 25.8769 11.8464 26.1943 12.1051 26.5117C12.1648 26.5712 12.1847 26.5712 12.2245 26.5316C13.2594 25.5793 14.2942 24.6073 15.329 23.655C15.3688 23.6154 15.3688 23.5955 15.329 23.536Z" fill="url(#paint9_linear)"/>
<path d="M16.8 12.264L14 11.464L16.5429 13.032L16.8571 13.8L16.1429 17L17.5143 14.088L18.2 13.736L21 14.536L18.4571 12.968L18.1714 12.2L18.8571 9L17.4857 11.912L16.8 12.264Z" fill="white"/>
<path opacity="0.7" d="M28.3632 1.11903C27.5871 1.03968 26.8308 1 26.0547 1C14.6517 1 3.90547 9.78826 1.43781 21.5721C1.21891 22.6433 1.0796 23.6947 1 24.7263C1.63682 25.1628 2.27363 25.5794 2.93035 25.996C2.95025 24.6668 3.10945 23.3377 3.38806 21.9887C4.48259 16.7514 7.42786 11.9109 11.6667 8.39959C15.8657 4.9081 20.9801 2.98381 26.0547 2.98381C26.7512 2.98381 27.4478 3.02348 28.1443 3.083C33.3184 3.61862 37.7761 6.13806 40.7413 10.185C42.2736 12.2879 43.3284 14.6883 43.8856 17.3069C44.4627 20.0445 44.4428 22.9012 43.8259 25.8174C43.7861 26.0555 43.7264 26.2935 43.6667 26.5316C44.4428 26.1348 45.199 25.7182 45.9552 25.3016C48.0249 13.1012 40.3035 2.36883 28.3632 1.11903Z" fill="url(#paint10_linear)"/>
<defs>
<linearGradient id="paint0_linear" x1="53.4771" y1="-16.6312" x2="13.6525" y2="66.6475" gradientUnits="userSpaceOnUse">
<stop stop-color="#FFD243"/>
<stop offset="1" stop-color="#CD571B"/>
</linearGradient>
<linearGradient id="paint1_linear" x1="29.8818" y1="33.089" x2="19.5931" y2="54.6039" gradientUnits="userSpaceOnUse">
<stop stop-color="#E08C3C"/>
<stop offset="1" stop-color="#FFD06F"/>
</linearGradient>
<linearGradient id="paint2_linear" x1="11.211" y1="86.1867" x2="38.5263" y2="-51.118" gradientUnits="userSpaceOnUse">
<stop stop-color="#F5942A"/>
<stop offset="1" stop-color="#F5D85D"/>
</linearGradient>
<linearGradient id="paint3_linear" x1="16.9568" y1="57.2131" x2="34.8118" y2="-32.5375" gradientUnits="userSpaceOnUse">
<stop stop-color="#E08C3C"/>
<stop offset="1" stop-color="#FFD06F"/>
</linearGradient>
<linearGradient id="paint4_linear" x1="32.6742" y1="-11.4491" x2="9.29272" y2="81.0304" gradientUnits="userSpaceOnUse">
<stop offset="0.199" stop-color="#FFDE43"/>
<stop offset="0.5646" stop-color="#FFD23E"/>
<stop offset="1" stop-color="#FFBD37"/>
</linearGradient>
<linearGradient id="paint5_linear" x1="23.174" y1="9.56506" x2="23.174" y2="39.3866" gradientUnits="userSpaceOnUse">
<stop stop-color="#FFF7C6"/>
<stop offset="1" stop-color="#FFE968"/>
</linearGradient>
<linearGradient id="paint6_linear" x1="23.174" y1="9.56506" x2="23.174" y2="39.3866" gradientUnits="userSpaceOnUse">
<stop stop-color="#FFF7C6"/>
<stop offset="1" stop-color="#FFE968"/>
</linearGradient>
<linearGradient id="paint7_linear" x1="23.174" y1="9.56506" x2="23.174" y2="39.3866" gradientUnits="userSpaceOnUse">
<stop stop-color="#FFF7C6"/>
<stop offset="1" stop-color="#FFE968"/>
</linearGradient>
<linearGradient id="paint8_linear" x1="23.174" y1="9.56506" x2="23.174" y2="39.3866" gradientUnits="userSpaceOnUse">
<stop stop-color="#FFF7C6"/>
<stop offset="1" stop-color="#FFE968"/>
</linearGradient>
<linearGradient id="paint9_linear" x1="23.174" y1="9.56506" x2="23.174" y2="39.3866" gradientUnits="userSpaceOnUse">
<stop stop-color="#FFF7C6"/>
<stop offset="1" stop-color="#FFE968"/>
</linearGradient>
<linearGradient id="paint10_linear" x1="31.4505" y1="-7.06211" x2="16.2252" y2="53.1581" gradientUnits="userSpaceOnUse">
<stop offset="0.0180995" stop-color="#FFFFA0"/>
<stop offset="0.9762" stop-color="#FFEB6A"/>
</linearGradient>
</defs>
</svg>
