<svg width="48" height="48" viewBox="0 0 48 48" fill="none" xmlns="http://www.w3.org/2000/svg">
<path d="M43.7219 37.3783C43.7716 37.3277 43.7716 37.2771 43.8213 37.176C44.0203 36.8219 44.2193 36.4679 44.3685 36.0632L46.1094 32.3709C45.9602 32.725 45.7612 33.1296 45.5623 33.4837C45.5125 33.5342 45.5125 33.5848 45.4628 33.686C45.2638 34.04 45.0649 34.3435 44.8659 34.6976C44.8162 34.7481 44.7664 34.8493 44.7167 34.8999C44.5674 35.1528 44.3685 35.4057 44.2193 35.6586C44.1198 35.7597 44.0203 35.9115 43.9706 36.0126C43.7716 36.2655 43.5726 36.5184 43.3737 36.7713C43.3239 36.8725 43.2244 36.9231 43.1747 37.0242C42.8763 37.3277 42.6275 37.6312 42.3291 37.9347C42.2296 38.0358 42.1799 38.0864 42.0804 38.137C41.8317 38.3393 41.6327 38.5922 41.384 38.7945C41.2845 38.8957 41.1353 38.9968 41.0358 39.098C40.8369 39.3003 40.6379 39.4521 40.3892 39.6038C40.24 39.7049 40.1405 39.8061 39.9913 39.9073C39.7923 40.059 39.5436 40.2107 39.3447 40.3625C39.1954 40.4636 39.0959 40.5648 38.9467 40.666C38.698 40.8177 38.4493 40.9694 38.2006 41.1212C38.0514 41.2223 37.9519 41.2729 37.8027 41.3741C37.5042 41.5764 37.156 41.7281 36.8576 41.8799C36.8079 41.9304 36.7581 41.981 36.7084 41.981C36.3105 42.1833 35.9125 42.3351 35.5146 42.5374C35.4151 42.588 35.2659 42.6386 35.1664 42.6891C34.868 42.7903 34.5695 42.942 34.2711 43.0432C34.1219 43.0938 33.9726 43.1444 33.7737 43.1949C33.525 43.2961 33.2265 43.3467 32.9281 43.4478C32.7788 43.4984 32.5799 43.549 32.4307 43.5996C32.1322 43.6502 31.8835 43.7513 31.5851 43.8019C31.4358 43.8525 31.2369 43.8525 31.0877 43.9031C30.7892 43.9536 30.441 44.0042 30.1426 44.0548C29.9934 44.0548 29.8441 44.1054 29.6949 44.1054C29.2472 44.1559 28.7498 44.2065 28.2524 44.2571C15.6182 45.1675 3.87937 36.0126 1.98921 23.823C1.69076 21.9515 1.64102 20.1307 1.83999 18.3604C1.88973 17.8546 1.93947 17.3488 2.03895 16.843C2.18817 16.0843 2.3374 15.3762 2.53636 14.6681C2.83481 13.7071 3.18299 12.7966 3.58092 11.9368L1.83999 15.6291C0.198536 19.1696 -0.448096 23.216 0.198536 27.5153C2.13843 39.7049 13.927 48.8598 26.5612 47.9494C27.0586 47.8988 27.5063 47.8483 28.0037 47.7977C28.1529 47.7977 28.3022 47.7471 28.4514 47.7471C28.7498 47.6965 29.098 47.6459 29.3965 47.5954C29.5457 47.5448 29.7446 47.5448 29.8939 47.4942C30.1923 47.4436 30.441 47.3425 30.7395 47.2919C30.8887 47.2413 31.0877 47.1907 31.2369 47.1401C31.5353 47.039 31.784 46.9884 32.0825 46.8872C32.2317 46.8367 32.3809 46.7861 32.5799 46.7355C32.8783 46.6343 33.1768 46.5332 33.4752 46.3814C33.5747 46.3309 33.7239 46.2803 33.8234 46.2297C34.2213 46.078 34.6193 45.8757 35.0172 45.6733C35.0669 45.6228 35.1167 45.6228 35.2162 45.5722C35.5643 45.4204 35.8628 45.2181 36.211 45.0664C36.3602 45.0158 36.4597 44.9146 36.6089 44.8135C36.8576 44.6617 37.1063 44.51 37.355 44.3583C37.5042 44.2571 37.6037 44.1559 37.7529 44.0548C37.9519 43.903 38.2006 43.7513 38.3996 43.5996C38.5488 43.4984 38.6483 43.3973 38.7975 43.2961C38.9965 43.1444 39.2452 42.942 39.4441 42.7903C39.5436 42.6891 39.6928 42.588 39.7923 42.4868C40.041 42.2845 40.24 42.0316 40.4887 41.8293C40.5882 41.7787 40.6379 41.6776 40.7374 41.627C41.0358 41.3235 41.3343 41.02 41.583 40.7165C41.6327 40.6154 41.7322 40.5648 41.782 40.4636C41.9809 40.2107 42.1799 39.9578 42.3788 39.7049C42.4783 39.6038 42.5778 39.4521 42.6275 39.3509C42.727 39.1992 42.8265 39.0474 42.926 38.8957C42.9757 38.7945 43.0752 38.6934 43.125 38.5922C43.1747 38.5416 43.2244 38.4405 43.2742 38.3899C43.3239 38.0358 43.5229 37.7323 43.7219 37.3783Z" fill="url(#paint0_linear)"/>
<path d="M47.7519 20.5353C45.8618 8.29505 34.1229 -0.859848 21.439 0.0505835C8.80478 0.961015 0.100116 11.5827 1.99027 23.823C3.88043 36.0126 15.6193 45.1675 28.2535 44.2571C40.8877 43.3467 49.6421 32.725 47.7519 20.5353Z" fill="url(#paint1_linear)"/>
<path opacity="0.7" d="M47.7519 20.5353C45.8618 8.29505 34.1229 -0.859848 21.439 0.0505835C8.80478 0.961015 0.100116 11.5827 1.99027 23.823C3.88043 36.0126 15.6193 45.1675 28.2535 44.2571C40.8877 43.3467 49.6421 32.725 47.7519 20.5353ZM28.2535 44.1054C27.7063 44.1559 27.1094 44.1559 26.5126 44.1559C14.5747 44.1559 3.88043 35.2034 2.08975 23.7724C1.19442 18.1075 2.6369 12.5437 6.06903 8.14331C9.74986 3.48999 15.2214 0.657538 21.4887 0.202322C22.0359 0.151743 22.6328 0.151743 23.2297 0.151743C35.1675 0.151743 45.8618 9.10432 47.6525 20.5353C48.5478 26.2002 47.1053 31.764 43.6732 36.1644C39.9426 40.8177 34.5208 43.6502 28.2535 44.1054Z" fill="url(#paint2_linear)"/>
<path d="M44.2882 31.4769C44.3425 31.4211 44.3425 31.3096 44.3968 31.2538C44.5053 31.0865 44.5596 30.8634 44.6682 30.6961C44.7225 30.5846 44.7225 30.5288 44.7768 30.4173C44.8311 30.25 44.9397 30.0269 44.994 29.8596C45.0483 29.7481 45.0483 29.6923 45.1026 29.5808C45.1569 29.3577 45.2654 29.0789 45.3197 28.8558C45.3197 28.8 45.3197 28.8 45.374 28.7443C45.4283 28.4654 45.5369 28.1866 45.5912 27.9078C45.5912 27.7962 45.6455 27.7405 45.6455 27.6289C45.6998 27.4059 45.7541 27.1828 45.7541 27.0155C45.7541 26.9039 45.8084 26.7924 45.8084 26.6809C45.8627 26.4578 45.8627 26.2905 45.917 26.0674C45.917 25.9559 45.917 25.9001 45.9713 25.7886C46.0255 25.5098 46.0256 25.2309 46.0256 24.9521V24.8963C46.0256 24.6175 46.0255 24.2829 46.0798 23.9483C46.0798 23.8367 46.0798 23.781 46.0798 23.6694C46.0798 23.4464 46.0798 23.2233 46.0798 23.0002C46.0798 22.8887 46.0798 22.7771 46.0798 22.6656C46.0798 22.4425 46.0256 22.2195 46.0256 21.9964C46.0256 21.8849 46.0256 21.7733 46.0256 21.7176C45.9713 21.3829 45.9713 21.1041 45.917 20.7695C45.8627 20.4349 45.8084 20.1561 45.7541 19.8215C45.7541 19.7099 45.6998 19.5984 45.6998 19.5426C45.6455 19.3195 45.5912 19.0965 45.5369 18.8734C45.5369 18.7619 45.4826 18.6503 45.4283 18.5388C45.374 18.3157 45.3197 18.0927 45.2654 17.9254C45.2112 17.8138 45.2112 17.7581 45.1569 17.6465C45.1569 17.5907 45.1569 17.5907 45.1026 17.535C45.0483 17.4234 44.994 17.3119 44.994 17.2004C44.9397 17.0331 44.8854 16.81 44.7768 16.6427C44.7225 16.4754 44.6682 16.3639 44.6139 16.1966C44.5596 16.0293 44.451 15.862 44.3968 15.6389C44.3425 15.4716 44.2882 15.36 44.1796 15.1927C44.1253 15.0254 44.0167 14.8581 43.9081 14.6908C43.8538 14.5235 43.7452 14.412 43.6909 14.2447C43.5824 14.0774 43.5281 13.9101 43.4195 13.7428C43.3652 13.5755 43.2566 13.4639 43.2023 13.2966C43.0937 13.1293 42.9851 12.962 42.9308 12.7947C42.8223 12.6832 42.768 12.5159 42.6594 12.4044C42.5508 12.2371 42.4422 12.0698 42.3336 11.9582C42.225 11.8467 42.1707 11.6794 42.0622 11.5678C41.9536 11.4005 41.845 11.289 41.7364 11.1217C41.6278 11.0102 41.5192 10.8429 41.4649 10.7313C41.3563 10.564 41.2478 10.4525 41.0849 10.2852C41.0306 10.2294 40.9763 10.1179 40.8677 10.0621C40.8134 10.0064 40.8134 10.0064 40.7591 9.95058C40.4877 9.61598 40.2162 9.33714 39.8904 9.00253L39.8361 8.94677C39.5647 8.66793 39.2389 8.38909 38.9675 8.11025C38.8589 8.05448 38.8046 7.94295 38.696 7.88718C38.4245 7.66411 38.1531 7.44104 37.8816 7.21797C37.8273 7.1622 37.773 7.10643 37.6644 7.05067C37.3387 6.77183 37.0129 6.54876 36.6329 6.26992L36.5786 6.21415C36.47 6.15838 36.4157 6.10262 36.3071 6.04685C36.0899 5.93531 35.927 5.76801 35.7099 5.65648C35.6013 5.60071 35.4384 5.48917 35.3298 5.4334C35.1669 5.32187 34.9498 5.21033 34.7326 5.0988C34.624 5.04303 34.4611 4.9315 34.3525 4.87573C34.1354 4.76419 33.9725 4.65266 33.7553 4.54112C33.6467 4.48536 33.4839 4.42959 33.3753 4.31805C33.1581 4.20652 32.9409 4.09498 32.7238 4.03921C32.6152 3.98345 32.5609 3.92768 32.4523 3.92768C32.398 3.92768 32.398 3.92768 32.3437 3.87191C32.1808 3.81614 32.0179 3.76038 31.8551 3.70461C31.6922 3.64884 31.5293 3.59307 31.3664 3.53731C31.2035 3.48154 31.0407 3.42577 30.8778 3.37C30.7149 3.31423 30.552 3.25847 30.3891 3.2027C30.2263 3.14693 30.0634 3.09116 29.9005 3.0354C29.629 2.81233 29.4662 2.75656 29.3033 2.75656C29.1404 2.70079 28.9775 2.64502 28.8146 2.64502C28.7061 2.58926 28.5432 2.58926 28.4346 2.53349C28.3803 2.53349 28.3803 2.53349 28.326 2.53349C28.2174 2.47772 28.0545 2.47772 27.946 2.42195C27.6745 2.36619 27.5116 2.31042 27.2944 2.25465C27.1316 2.25465 27.023 2.19888 26.8601 2.19888C26.6429 2.14311 26.48 2.14311 26.2629 2.08735C26.1 2.08735 25.9914 2.03158 25.8285 2.03158C25.6114 2.03158 25.4485 1.97581 25.2313 1.97581C25.0684 1.97581 24.9598 1.97581 24.797 1.92004C24.7427 1.92004 24.6341 1.92004 24.5798 1.92004C24.5255 1.92004 24.4169 1.92004 24.3626 1.92004C24.0912 1.92004 23.7654 1.92004 23.4939 1.92004C23.3853 1.92004 23.2225 1.92004 23.1139 1.92004C22.6795 1.92004 22.2995 1.92004 21.8651 1.97581C21.5394 1.97581 21.2136 2.03158 20.8879 2.08735C20.8879 2.08735 20.8879 2.08735 20.8336 2.08735C20.725 2.08735 20.6707 2.08735 20.5621 2.14311C20.3449 2.14311 20.0735 2.19888 19.8563 2.25465C19.7477 2.25465 19.6391 2.31042 19.4762 2.31042C19.2591 2.36619 19.0419 2.36619 18.879 2.42195C18.7704 2.47772 18.6076 2.47772 18.499 2.53349C18.3361 2.58926 18.1189 2.64502 17.956 2.70079C17.8475 2.75656 17.6846 2.75656 17.576 2.81233C17.4131 2.81233 17.3045 2.81233 17.2502 2.86809C17.1959 2.86809 17.0873 2.92386 17.0331 2.92386C16.8702 2.97963 16.7073 3.0354 16.5987 3.09116C16.4358 3.14693 16.273 3.2027 16.1101 3.25847C15.9472 3.31423 15.8386 3.37 15.6757 3.42577C15.5129 3.48154 15.35 3.53731 15.1871 3.64884C15.0242 3.70461 14.9156 3.76038 14.7527 3.87191C14.5899 3.92768 14.427 4.03921 14.3184 4.09498C14.1555 4.15075 14.0469 4.26228 13.8841 4.31805C13.8298 4.37382 13.7755 4.37382 13.6669 4.42959C13.6126 4.48535 13.5583 4.48536 13.4497 4.54112C13.2868 4.65266 13.0697 4.76419 12.9068 4.87573C12.7982 4.9315 12.6896 5.04303 12.5267 5.0988C12.3639 5.21033 12.1467 5.32187 11.9838 5.4334C11.8752 5.48917 11.7666 5.60071 11.658 5.65648C11.4409 5.76801 11.278 5.93531 11.1151 6.10262C11.0065 6.15838 10.9522 6.21415 10.8436 6.32569C10.5722 6.54876 10.3007 6.77183 10.0835 6.9949C9.75779 7.27374 9.43203 7.60834 9.16056 7.88718C9.10627 7.94295 8.99768 8.05448 8.94339 8.11025C8.67193 8.44486 8.34617 8.7237 8.0747 9.0583C8.02041 9.11407 8.02041 9.11407 7.96612 9.16984C7.69465 9.50444 7.47748 9.78328 7.26031 10.1179C7.20601 10.1737 7.15172 10.2852 7.09743 10.341C6.88025 10.6756 6.60879 11.0659 6.39162 11.4563C6.39162 11.4563 6.39162 11.5121 6.33732 11.5121C6.06586 11.9582 5.84869 12.4601 5.57722 12.962C5.52293 13.0178 5.52293 13.1293 5.46864 13.1851C5.36005 13.3524 5.30576 13.5755 5.25146 13.7428C5.19717 13.8543 5.19717 13.9101 5.14288 14.0216C5.08858 14.1889 4.98 14.412 4.9257 14.5793C4.87141 14.6908 4.87141 14.7466 4.81712 14.8581C4.65424 15.4158 4.49136 15.9735 4.32848 16.5869C4.32848 16.6985 4.27419 16.7542 4.27419 16.8658C4.21989 17.0888 4.1656 17.2561 4.1656 17.4792C4.1656 17.5907 4.11131 17.7023 4.11131 17.8138C4.05702 18.0369 4.05702 18.2042 4.00272 18.4273C4.00272 18.5388 4.00272 18.5946 3.94843 18.7061C3.89414 19.3195 3.83984 19.933 3.83984 20.5464C3.83984 20.658 3.83984 20.7137 3.83984 20.8253C3.83984 21.0483 3.83984 21.2714 3.83984 21.4945C3.83984 21.606 3.83984 21.7176 3.83984 21.8291C3.83984 22.0522 3.89414 22.2752 3.89414 22.4983C3.89414 22.6098 3.89414 22.7214 3.89414 22.7771C3.94843 23.1117 3.94843 23.3906 4.00272 23.7252C4.05702 24.0598 4.11131 24.3386 4.1656 24.6732C4.1656 24.7848 4.2199 24.8963 4.2199 24.9521C4.27419 25.1751 4.32848 25.3982 4.38277 25.6213C4.43707 25.7328 4.43707 25.8444 4.49136 25.9559C4.54565 26.179 4.59995 26.402 4.65424 26.5693C4.70853 26.6809 4.70853 26.7924 4.76283 26.8482C4.76283 26.9039 4.76283 26.9597 4.81712 26.9597C4.81712 27.0155 4.87141 27.0712 4.87141 27.127C4.98 27.4616 5.14288 27.852 5.25146 28.1866C5.30576 28.2981 5.30576 28.3539 5.36005 28.4654C5.52293 28.8558 5.7401 29.302 5.90298 29.6923C5.95727 29.7481 5.95727 29.8596 6.01157 29.9154C6.17445 30.25 6.33732 30.5846 6.5545 30.9192C6.60879 31.0307 6.66308 31.0865 6.71738 31.1981C6.93455 31.5884 7.20601 31.9788 7.42319 32.3134C7.42319 32.3134 7.42318 32.3692 7.47748 32.3692C7.53177 32.4807 7.58606 32.5365 7.64036 32.5922C7.80324 32.8153 7.91182 32.9826 8.0747 33.2057C8.18329 33.3172 8.23758 33.4288 8.34617 33.5403C8.50905 33.7076 8.61763 33.8749 8.78051 34.0422C8.8891 34.1537 8.99768 34.2653 9.05198 34.3768C9.21486 34.5441 9.32344 34.7114 9.48632 34.8787C9.59491 34.9902 9.70349 35.1018 9.81208 35.2133C9.97496 35.3806 10.1378 35.5479 10.3007 35.6595C10.355 35.7152 10.4093 35.771 10.5179 35.8825C10.5722 35.9383 10.6265 35.9383 10.6265 35.9941C10.7351 36.1056 10.8979 36.2171 11.0065 36.3287C11.1151 36.4402 11.278 36.5517 11.3866 36.6633C11.4952 36.7748 11.658 36.8863 11.7666 36.9979C11.8752 37.1094 12.0381 37.221 12.1467 37.3325C12.3096 37.444 12.4181 37.5556 12.581 37.6671C12.6896 37.7786 12.8525 37.8902 12.9611 37.9459C13.124 38.0575 13.2325 38.169 13.3954 38.2248C13.504 38.2805 13.6126 38.3363 13.6669 38.4478C13.7212 38.5036 13.7755 38.5036 13.7755 38.5594C13.8841 38.6151 14.0469 38.7267 14.1555 38.7824C14.3184 38.894 14.4813 39.0055 14.6442 39.0613C14.7527 39.1171 14.9156 39.2286 15.0242 39.2844C15.1871 39.3959 15.35 39.4517 15.5128 39.5632C15.6214 39.619 15.7843 39.7305 15.8929 39.7863C16.0558 39.8978 16.2187 39.9536 16.3815 40.0093C16.5444 40.0651 16.653 40.1209 16.8159 40.2324C16.8702 40.2882 16.9788 40.2882 17.0331 40.3439C17.1416 40.3997 17.1959 40.3997 17.3045 40.4555C17.4131 40.5112 17.576 40.567 17.6846 40.6228C17.8475 40.6785 18.0103 40.7901 18.2275 40.8458C18.3361 40.9016 18.499 40.9574 18.6076 41.0132C18.7704 41.0689 18.9876 41.1247 19.1505 41.1805C19.2591 41.2362 19.422 41.292 19.5305 41.292C19.7477 41.3478 19.9106 41.4035 20.1278 41.4593C20.2363 41.5151 20.3992 41.5151 20.5078 41.5708C20.5621 41.5708 20.5621 41.5708 20.6164 41.5708C20.7793 41.6266 20.9964 41.6824 21.1593 41.6824C21.2679 41.6824 21.3765 41.7381 21.4851 41.7381C21.8108 41.7939 22.0823 41.8497 22.4081 41.9054H22.4624C22.7881 41.9612 23.1139 42.017 23.4396 42.0727C23.5482 42.0727 23.6568 42.0727 23.7654 42.1285C23.9826 42.1285 24.1997 42.1843 24.3626 42.1843C24.4169 42.1843 24.4169 42.1843 24.4712 42.1843C24.5798 42.1843 24.6341 42.1843 24.7427 42.1843C24.9598 42.1843 25.2313 42.24 25.4485 42.24C25.5571 42.24 25.6657 42.24 25.7742 42.24C25.9914 42.24 26.2086 42.24 26.48 42.24C26.5886 42.24 26.6972 42.24 26.8058 42.24C27.1316 42.24 27.4573 42.24 27.7831 42.1843C28.0545 42.1843 28.326 42.1285 28.5432 42.1285C28.5975 42.1285 28.6518 42.1285 28.6518 42.1285C28.8689 42.1285 29.0861 42.0727 29.3576 42.017C29.5205 42.017 29.629 41.9612 29.7919 41.9612C30.0634 41.9054 30.2806 41.8497 30.552 41.7939C30.6606 41.7939 30.7692 41.7381 30.8778 41.7381C31.2578 41.6824 31.5836 41.5708 31.9094 41.4593C31.9636 41.4593 32.0179 41.4035 32.1265 41.4035C32.398 41.3478 32.6695 41.2362 32.9409 41.1247H32.9952C33.0495 41.1247 33.1038 41.0689 33.1581 41.0689C33.4839 40.9574 33.8096 40.8458 34.0811 40.7343C34.1897 40.6785 34.2982 40.6228 34.4068 40.567C34.7326 40.4555 35.0041 40.2882 35.3298 40.1209C35.3841 40.0651 35.4927 40.0651 35.547 40.0093C35.927 39.842 36.2528 39.619 36.5786 39.4517C36.6871 39.3959 36.7414 39.3401 36.85 39.2844C37.1215 39.1171 37.393 38.9497 37.6101 38.7824C37.6644 38.7267 37.7187 38.7267 37.773 38.6709C37.8273 38.6151 37.8816 38.6151 37.9359 38.5594C38.0988 38.4478 38.2616 38.3363 38.3702 38.2248C38.4788 38.1132 38.5874 38.0575 38.696 37.9459C38.8589 37.8344 39.0217 37.7229 39.1303 37.5556C39.2389 37.444 39.3475 37.3883 39.4561 37.2767C39.619 37.1652 39.7818 36.9979 39.8904 36.8863C39.999 36.7748 40.0533 36.719 40.1619 36.6075C40.3248 36.4402 40.4877 36.2729 40.6505 36.1056C40.7048 36.0498 40.8134 35.9383 40.8677 35.8825C41.0849 35.6595 41.3021 35.3806 41.5192 35.1576C41.5735 35.1018 41.5735 35.1018 41.6278 35.046C41.7907 34.8229 41.9536 34.5999 42.1164 34.3768C42.1707 34.2653 42.225 34.2095 42.3336 34.098C42.4422 33.9307 42.6051 33.7634 42.7137 33.5403C42.768 33.4288 42.8765 33.3172 42.9308 33.2057C43.0394 33.0384 43.148 32.8711 43.2566 32.7038C43.2566 32.648 43.3109 32.648 43.3109 32.5922C43.4195 32.4249 43.4738 32.2576 43.5824 32.0903C43.5824 32.0346 43.6367 32.0346 43.6367 31.9788C44.0167 32.0346 44.1253 31.7557 44.2882 31.4769Z" fill="url(#paint3_linear)"/>
<path d="M43.9475 21.6125C45.5247 32.1598 38.1457 41.3668 27.3871 42.1826C16.6284 42.9984 6.60205 35.0151 5.02487 24.4096C3.39136 13.8623 10.8267 4.65524 21.5853 3.8977C32.344 3.08189 42.3703 11.0069 43.9475 21.6125Z" fill="url(#paint4_linear)"/>
<path d="M39.2529 22.0386C39.3092 22.3816 39.6465 22.6674 39.9838 22.6103L41.6705 22.4959C42.0078 22.4959 42.2889 22.1529 42.2327 21.8099C42.1765 21.4669 41.8391 21.181 41.5018 21.2382L39.8151 21.3525C39.4216 21.3525 39.1967 21.6384 39.2529 22.0386ZM26.2094 38.2176L26.4343 39.8184C26.4905 40.1614 26.8279 40.4473 27.1652 40.3901C27.5025 40.3901 27.7837 40.0471 27.7274 39.704L27.5025 38.1033C27.4463 37.7603 27.109 37.4744 26.7717 37.5316C26.3781 37.5888 26.1532 37.8746 26.2094 38.2176ZM21.3181 6.37402L21.543 8.03195C21.5992 8.37497 21.9366 8.66082 22.2739 8.60365C22.6112 8.60365 22.8923 8.26063 22.8361 7.91761L22.6112 6.25968C22.555 5.91666 22.2177 5.63082 21.8803 5.68798C21.4868 5.74515 21.2619 6.031 21.3181 6.37402ZM13.1659 14.8923C13.2222 15.121 13.3346 15.3497 13.5595 15.5212L23.0048 23.0105L17.1577 30.1567C16.9328 30.3854 16.8766 30.7284 16.9328 31.0142C16.989 31.3001 17.1577 31.6431 17.4388 31.8146C18.001 32.272 18.7881 32.2148 19.1817 31.7003L25.0288 24.4969C25.7034 24.3254 26.1532 23.6965 26.0408 22.9533C25.9283 22.1529 25.1412 21.524 24.2979 21.5812C24.2417 21.5812 24.1854 21.5812 24.1292 21.6384L14.6277 14.1491C14.2342 13.8061 13.6157 13.8633 13.3346 14.2635C13.1659 14.435 13.1097 14.6637 13.1659 14.8923ZM6.81286 24.3254C6.86909 24.6684 7.20642 24.9542 7.54375 24.8971L9.17419 24.7827C9.51152 24.7827 9.79263 24.4397 9.73641 24.0967C9.68018 23.7537 9.34285 23.4678 9.00552 23.525L7.37508 23.6393C7.03775 23.6965 6.75664 23.9823 6.81286 24.3254Z" fill="#F0AF56"/>
<defs>
<linearGradient id="paint0_linear" x1="51.1058" y1="-6.91878" x2="24.0459" y2="68.8181" gradientUnits="userSpaceOnUse">
<stop stop-color="#FFD243"/>
<stop offset="1" stop-color="#CD571B"/>
</linearGradient>
<linearGradient id="paint1_linear" x1="21.2091" y1="-3.26946" x2="28.3735" y2="44.9285" gradientUnits="userSpaceOnUse">
<stop offset="0.0317008" stop-color="#FCE878"/>
<stop offset="0.0526506" stop-color="#FCE676"/>
<stop offset="0.6976" stop-color="#FEB432"/>
<stop offset="1" stop-color="#FFA018"/>
</linearGradient>
<linearGradient id="paint2_linear" x1="32.4522" y1="51.7757" x2="19.0753" y2="1.28025" gradientUnits="userSpaceOnUse">
<stop stop-color="#FFE6B9" stop-opacity="0"/>
<stop offset="0.3821" stop-color="#FFF3DE" stop-opacity="0.4239"/>
<stop offset="0.7037" stop-color="#FFFCF6" stop-opacity="0.7807"/>
<stop offset="0.9014" stop-color="white"/>
</linearGradient>
<linearGradient id="paint3_linear" x1="33.3358" y1="-9.03807" x2="13.7501" y2="72.8865" gradientUnits="userSpaceOnUse">
<stop offset="0.199" stop-color="#F2B259"/>
<stop offset="0.5646" stop-color="#EDA952"/>
<stop offset="1" stop-color="#FFBD37"/>
</linearGradient>
<linearGradient id="paint4_linear" x1="19.5124" y1="5.46535" x2="29.5787" y2="38.6956" gradientUnits="userSpaceOnUse">
<stop offset="0.0377152" stop-color="white"/>
<stop offset="0.3405" stop-color="#FFF7EA"/>
<stop offset="0.9985" stop-color="#FFEBCD"/>
</linearGradient>
</defs>
</svg>
