<svg width="8" height="8" viewBox="0 0 8 8" fill="none" xmlns="http://www.w3.org/2000/svg">
    <path d="M3.246 7.08715C3.20733 7.04948 3.042 6.90725 2.906 6.77476C2.05067 5.99801 0.650667 3.97171 0.223333 2.91115C0.154667 2.75008 0.00933333 2.34287 0 2.1253C0 1.91683 0.048 1.7181 0.145333 1.52845C0.281333 1.29205 0.495333 1.10241 0.748 0.998498C0.923333 0.931604 1.448 0.827691 1.45733 0.827691C2.03133 0.723778 2.964 0.666626 3.99467 0.666626C4.97667 0.666626 5.87133 0.723778 6.454 0.808857C6.46333 0.818599 7.11533 0.922512 7.33867 1.03617C7.74667 1.24464 8 1.65185 8 2.08764V2.1253C7.99 2.40912 7.73667 3.00597 7.72733 3.00597C7.29933 4.00938 5.968 5.98892 5.08333 6.7845C5.08333 6.7845 4.856 7.00856 4.714 7.10598C4.51 7.25796 4.25733 7.33329 4.00467 7.33329C3.72267 7.33329 3.46 7.24821 3.246 7.08715Z" fill="white"/>
</svg>
