<svg width="24" height="24" viewBox="0 0 24 24" fill="none" xmlns="http://www.w3.org/2000/svg">
<path d="M12 24C18.6274 24 24 18.6274 24 12C24 5.37258 18.6274 0 12 0C5.37258 0 0 5.37258 0 12C0 18.6274 5.37258 24 12 24Z" fill="white"/>
<path d="M4.99382 11.8959L13.0747 8.56642C13.8724 8.2196 16.5776 7.10977 16.5776 7.10977C16.5776 7.10977 17.8262 6.62422 17.7221 7.80341C17.6875 8.28896 17.41 9.98838 17.1325 11.8265L16.2655 17.2716C16.2655 17.2716 16.1961 18.0693 15.6065 18.208C15.0169 18.3468 14.0458 17.7225 13.8724 17.5838C13.7337 17.4797 11.2713 15.919 10.3695 15.156C10.1268 14.9479 9.84931 14.5317 10.4042 14.0462C11.6528 12.9017 13.1441 11.4797 14.0458 10.578C14.462 10.1618 14.8782 9.1907 13.1441 10.3699L8.25393 13.6647C8.25393 13.6647 7.69902 14.0115 6.65856 13.6994C5.6181 13.3872 4.40422 12.971 4.40422 12.971C4.40422 12.971 3.57185 12.4508 4.99382 11.8959Z" fill="#120221"/>
</svg>
