<svg width="24" height="24" viewBox="0 0 24 24" fill="none" xmlns="http://www.w3.org/2000/svg">
<path d="M24 4.5998C23.1 4.9998 22.2 5.29981 21.2 5.39981C22.2 4.79981 23 3.79981 23.4 2.6998C22.4 3.2998 21.4 3.69981 20.3 3.89981C19.4 2.8998 18.1 2.2998 16.7 2.2998C14 2.2998 11.8 4.4998 11.8 7.1998C11.8 7.5998 11.8 7.99981 11.9 8.29981C7.7 8.09981 4.1 6.09981 1.7 3.0998C1.2 3.8998 1 4.69981 1 5.59981C1 7.29981 1.9 8.79981 3.2 9.69981C2.4 9.69981 1.6 9.49981 1 9.09981C1 9.09981 1 9.0998 1 9.19981C1 11.5998 2.7 13.5998 4.9 13.9998C4.5 14.0998 4.1 14.1998 3.6 14.1998C3.3 14.1998 3 14.1998 2.7 14.0998C3.3 16.0998 5.1 17.4998 7.3 17.4998C5.6 18.7998 3.5 19.5998 1.2 19.5998C0.8 19.5998 0.4 19.5998 0 19.4998C2.2 20.8998 4.8 21.6998 7.5 21.6998C16.6 21.6998 21.5 14.1998 21.5 7.6998C21.5 7.4998 21.5 7.29981 21.5 7.09981C22.5 6.39981 23.3 5.4998 24 4.5998Z" fill="white"/>
</svg>
