<svg width="515" height="593" viewBox="0 0 515 593" fill="none" xmlns="http://www.w3.org/2000/svg">
<g opacity="0.7" filter="url(#filter0_f)">
<ellipse cx="257.5" cy="550.5" rx="233.5" ry="18.5" fill="black"/>
</g>
<g opacity="0.8" filter="url(#filter1_f)">
<ellipse cx="257.5" cy="550.5" rx="119.5" ry="18.5" fill="black"/>
</g>
<path d="M321.943 65.9287C321.943 102.371 292.427 131.888 256.015 131.888C219.603 131.888 190.086 102.371 190.086 65.9287C190.086 29.5167 219.603 0 256.015 0C292.427 0 321.943 29.5167 321.943 65.9287Z" fill="url(#paint0_linear)"/>
<path d="M305.462 65.929C305.462 93.238 283.324 115.376 256.015 115.376C228.706 115.376 206.568 93.238 206.568 65.929C206.568 38.62 228.706 16.4824 256.015 16.4824C283.324 16.4824 305.462 38.62 305.462 65.929Z" fill="url(#paint1_linear)"/>
<path d="M292.638 65.9289C292.638 86.1612 276.216 102.583 256.014 102.583C235.782 102.583 219.391 86.1914 219.391 65.9289C219.391 45.6966 235.782 29.3052 256.014 29.3052C276.216 29.3052 292.638 45.6966 292.638 65.9289Z" fill="url(#paint2_linear)"/>
<path d="M256.014 62.4507C120.437 62.4507 10.1426 172.745 10.1426 308.323C10.1426 443.9 120.437 554.194 256.014 554.194C391.592 554.194 501.886 443.87 501.886 308.323C501.886 172.715 391.562 62.4507 256.014 62.4507Z" fill="url(#paint3_linear)"/>
<path d="M256.014 77.5718C128.784 77.5718 25.2637 181.062 25.2637 308.322C25.2637 435.553 128.784 539.073 256.014 539.073C383.245 539.073 486.765 435.523 486.765 308.322C486.765 181.062 383.245 77.5718 256.014 77.5718Z" fill="url(#paint4_linear)"/>
<path d="M473.58 308.292C473.58 428.476 376.169 525.888 255.985 525.888C135.801 525.888 38.3896 428.476 38.3896 308.292C38.3896 188.139 135.801 90.7275 255.985 90.7275C376.169 90.7275 473.58 188.139 473.58 308.292Z" fill="#C22B5D"/>
<path d="M497.29 308.292C497.29 313.343 493.177 317.486 488.096 317.486C483.046 317.486 478.933 313.343 478.933 308.292C478.933 303.242 483.046 299.099 488.096 299.099C493.177 299.099 497.29 303.242 497.29 308.292Z" fill="#F2F2D0"/>
<path d="M492.179 303.574C491.484 307.99 487.673 311.347 483.107 311.347C482.865 311.347 482.593 311.256 482.351 311.256C483.379 313.524 485.587 315.066 488.218 315.066C491.817 315.066 494.72 312.163 494.72 308.595C494.75 306.538 493.692 304.754 492.179 303.574Z" fill="#D6A651"/>
<path opacity="0.0434783" d="M505.516 308.292C505.516 317.909 497.714 325.682 488.097 325.682C478.51 325.682 470.707 317.909 470.707 308.292C470.707 298.645 478.51 290.903 488.097 290.903C497.714 290.903 505.516 298.645 505.516 308.292Z" fill="#F3F3DD"/>
<path opacity="0.0869565" d="M505.032 308.292C505.032 317.637 497.441 325.198 488.096 325.198C478.751 325.198 471.19 317.637 471.19 308.292C471.19 298.917 478.751 291.387 488.096 291.387C497.441 291.387 505.032 298.917 505.032 308.292Z" fill="#F3F3DB"/>
<path opacity="0.1304" d="M504.548 308.292C504.548 317.365 497.169 324.714 488.096 324.714C479.024 324.714 471.675 317.365 471.675 308.292C471.675 299.189 479.024 291.871 488.096 291.871C497.199 291.871 504.548 299.189 504.548 308.292Z" fill="#F4F4D9"/>
<path opacity="0.1739" d="M504.094 308.292C504.094 317.123 496.927 324.26 488.126 324.26C479.326 324.26 472.188 317.123 472.188 308.292C472.188 299.431 479.326 292.324 488.126 292.324C496.927 292.354 504.094 299.461 504.094 308.292Z" fill="#F4F4D7"/>
<path opacity="0.2174" d="M503.61 308.292C503.61 316.851 496.654 323.776 488.126 323.776C479.597 323.776 472.642 316.851 472.642 308.292C472.642 299.703 479.567 292.808 488.126 292.808C496.654 292.838 503.61 299.734 503.61 308.292Z" fill="#F5F5D5"/>
<path opacity="0.2609" d="M503.127 308.292C503.127 316.579 496.382 323.293 488.096 323.293C479.81 323.293 473.096 316.579 473.096 308.292C473.096 299.976 479.81 293.292 488.096 293.292C496.382 293.292 503.127 299.976 503.127 308.292Z" fill="#F5F5D3"/>
<path opacity="0.3043" d="M502.643 308.292C502.643 316.307 496.111 322.809 488.097 322.809C480.082 322.809 473.58 316.307 473.58 308.292C473.58 300.248 480.082 293.776 488.097 293.776C496.141 293.776 502.643 300.248 502.643 308.292Z" fill="#F6F6D1"/>
<path opacity="0.3478" d="M502.159 308.292C502.159 316.065 495.868 322.325 488.096 322.325C480.354 322.325 474.063 316.034 474.063 308.292C474.063 300.52 480.354 294.26 488.096 294.26C495.868 294.26 502.159 300.52 502.159 308.292Z" fill="#F7F7CF"/>
<path opacity="0.3913" d="M501.675 308.292C501.675 315.792 495.597 321.871 488.096 321.871C480.627 321.871 474.548 315.792 474.548 308.292C474.548 300.762 480.627 294.713 488.096 294.713C495.597 294.744 501.675 300.792 501.675 308.292Z" fill="#F7F7CD"/>
<path opacity="0.4348" d="M501.221 308.292C501.221 315.52 495.354 321.387 488.126 321.387C480.898 321.387 475.062 315.52 475.062 308.292C475.062 301.034 480.929 295.197 488.126 295.197C495.324 295.228 501.221 301.064 501.221 308.292Z" fill="#F8F8CB"/>
<path opacity="0.4783" d="M500.737 308.292C500.737 315.248 495.082 320.903 488.126 320.903C481.17 320.903 475.515 315.248 475.515 308.292C475.515 301.306 481.17 295.681 488.126 295.681C495.082 295.681 500.737 301.306 500.737 308.292Z" fill="#F8F8C9"/>
<path opacity="0.5217" d="M500.254 308.292C500.254 315.006 494.81 320.42 488.096 320.42C481.412 320.42 475.969 314.976 475.969 308.292C475.969 301.578 481.412 296.165 488.096 296.165C494.81 296.165 500.254 301.578 500.254 308.292Z" fill="#F9F9C8"/>
<path opacity="0.5652" d="M499.77 308.292C499.77 314.734 494.538 319.936 488.097 319.936C481.685 319.936 476.453 314.704 476.453 308.292C476.453 301.851 481.655 296.649 488.097 296.649C494.538 296.649 499.77 301.851 499.77 308.292Z" fill="#F9F9C6"/>
<path opacity="0.6087" d="M499.286 308.292C499.286 314.462 494.266 319.482 488.096 319.482C481.927 319.482 476.937 314.462 476.937 308.292C476.937 302.093 481.927 297.103 488.096 297.103C494.266 297.133 499.286 302.123 499.286 308.292Z" fill="#FAFAC4"/>
<path opacity="0.6522" d="M498.802 308.292C498.802 314.19 493.994 318.998 488.096 318.998C482.199 318.998 477.421 314.22 477.421 308.292C477.421 302.365 482.199 297.586 488.096 297.586C494.024 297.617 498.802 302.395 498.802 308.292Z" fill="#FAFAC2"/>
<path opacity="0.6957" d="M498.348 308.292C498.348 313.948 493.751 318.514 488.126 318.514C482.501 318.514 477.935 313.948 477.935 308.292C477.935 302.637 482.501 298.07 488.126 298.07C493.751 298.07 498.348 302.667 498.348 308.292Z" fill="#FBFBC0"/>
<path opacity="0.7391" d="M497.864 308.292C497.864 313.676 493.479 318.03 488.126 318.03C482.773 318.03 478.388 313.676 478.388 308.292C478.388 302.909 482.743 298.554 488.126 298.554C493.479 298.554 497.864 302.909 497.864 308.292Z" fill="#FCFCBE"/>
<path opacity="0.7826" d="M497.38 308.292C497.38 313.403 493.237 317.546 488.096 317.546C482.985 317.546 478.842 313.403 478.842 308.292C478.842 303.181 482.985 299.038 488.096 299.038C493.237 299.038 497.38 303.181 497.38 308.292Z" fill="#FCFCBC"/>
<path opacity="0.8261" d="M496.897 308.292C496.897 313.131 492.966 317.093 488.097 317.093C483.258 317.093 479.326 313.161 479.326 308.292C479.326 303.453 483.258 299.492 488.097 299.492C492.966 299.522 496.897 303.453 496.897 308.292Z" fill="#FDFDBA"/>
<path opacity="0.8696" d="M496.413 308.292C496.413 312.859 492.693 316.609 488.096 316.609C483.529 316.609 479.81 312.889 479.81 308.292C479.81 303.695 483.529 299.976 488.096 299.976C492.693 300.006 496.413 303.726 496.413 308.292Z" fill="#FDFDB8"/>
<path opacity="0.913" d="M495.929 308.292C495.929 312.617 492.421 316.125 488.096 316.125C483.772 316.125 480.294 312.617 480.294 308.292C480.294 303.968 483.802 300.459 488.096 300.459C492.421 300.459 495.929 303.998 495.929 308.292Z" fill="#FEFEB6"/>
<path opacity="0.9565" d="M495.475 308.292C495.475 312.345 492.179 315.641 488.126 315.641C484.074 315.641 480.808 312.345 480.808 308.292C480.808 304.24 484.104 300.943 488.126 300.943C492.179 300.943 495.475 304.24 495.475 308.292Z" fill="#FEFEB4"/>
<path d="M494.991 308.292C494.991 312.073 491.906 315.157 488.126 315.157C484.345 315.157 481.261 312.073 481.261 308.292C481.261 304.512 484.345 301.427 488.126 301.427C491.906 301.427 494.991 304.512 494.991 308.292Z" fill="#FFFFB2"/>
<path d="M265.179 540.434C265.179 545.485 261.066 549.628 255.985 549.628C250.934 549.628 246.821 545.485 246.821 540.434C246.821 535.383 250.934 531.24 255.985 531.24C261.066 531.24 265.179 535.383 265.179 540.434Z" fill="#F2F2D0"/>
<path d="M260.068 535.716C259.373 540.131 255.592 543.488 250.995 543.488C250.753 543.488 250.481 543.397 250.239 543.397C251.268 545.666 253.505 547.208 256.137 547.208C259.735 547.208 262.639 544.305 262.639 540.736C262.608 538.68 261.58 536.895 260.068 535.716Z" fill="#D6A651"/>
<path opacity="0.0434783" d="M273.405 540.434C273.405 550.051 265.602 557.823 255.985 557.823C246.398 557.823 238.596 550.051 238.596 540.434C238.596 530.787 246.398 523.044 255.985 523.044C265.602 523.044 273.405 530.787 273.405 540.434Z" fill="#F3F3DD"/>
<path opacity="0.0869565" d="M272.921 540.434C272.921 549.809 265.33 557.34 255.985 557.34C246.67 557.34 239.079 549.779 239.079 540.434C239.079 531.059 246.67 523.528 255.985 523.528C265.33 523.528 272.921 531.059 272.921 540.434Z" fill="#F3F3DB"/>
<path opacity="0.1304" d="M272.437 540.434C272.437 549.537 265.058 556.856 255.985 556.856C246.912 556.856 239.563 549.507 239.563 540.434C239.563 531.331 246.943 524.012 255.985 524.012C265.058 524.012 272.437 531.331 272.437 540.434Z" fill="#F4F4D9"/>
<path opacity="0.1739" d="M271.953 540.434C271.953 549.265 264.785 556.402 255.985 556.402C247.184 556.402 240.047 549.265 240.047 540.434C240.047 531.573 247.184 524.496 255.985 524.496C264.815 524.496 271.953 531.573 271.953 540.434Z" fill="#F4F4D7"/>
<path opacity="0.2174" d="M271.499 540.434C271.499 548.993 264.543 555.918 255.984 555.918C247.456 555.918 240.5 548.993 240.5 540.434C240.5 531.845 247.426 524.95 255.984 524.95C264.543 524.95 271.499 531.845 271.499 540.434Z" fill="#F5F5D5"/>
<path opacity="0.2609" d="M271.015 540.434C271.015 548.72 264.271 555.434 255.985 555.434C247.728 555.434 240.984 548.72 240.984 540.434C240.984 532.117 247.698 525.434 255.985 525.434C264.271 525.434 271.015 532.117 271.015 540.434Z" fill="#F5F5D3"/>
<path opacity="0.3043" d="M270.532 540.434C270.532 548.478 264.03 554.95 255.985 554.95C247.971 554.95 241.469 548.448 241.469 540.434C241.469 532.389 247.971 525.917 255.985 525.917C263.999 525.917 270.532 532.389 270.532 540.434Z" fill="#F6F6D1"/>
<path opacity="0.3478" d="M270.047 540.434C270.047 548.206 263.757 554.466 255.985 554.466C248.243 554.466 241.952 548.176 241.952 540.434C241.952 532.662 248.243 526.401 255.985 526.401C263.757 526.401 270.047 532.662 270.047 540.434Z" fill="#F7F7CF"/>
<path opacity="0.3913" d="M269.564 540.434C269.564 547.934 263.485 554.012 255.985 554.012C248.515 554.012 242.437 547.934 242.437 540.434C242.437 532.903 248.515 526.885 255.985 526.885C263.485 526.855 269.564 532.903 269.564 540.434Z" fill="#F7F7CD"/>
<path opacity="0.4348" d="M269.08 540.434C269.08 547.662 263.213 553.529 255.985 553.529C248.787 553.529 242.92 547.662 242.92 540.434C242.92 533.176 248.787 527.339 255.985 527.339C263.213 527.339 269.08 533.176 269.08 540.434Z" fill="#F8F8CB"/>
<path opacity="0.4783" d="M268.626 540.434C268.626 547.42 262.97 553.045 255.984 553.045C249.028 553.045 243.373 547.42 243.373 540.434C243.373 533.448 249.028 527.823 255.984 527.823C262.94 527.823 268.626 533.448 268.626 540.434Z" fill="#F8F8C9"/>
<path opacity="0.5217" d="M268.142 540.434C268.142 547.148 262.699 552.561 255.985 552.561C249.301 552.561 243.857 547.148 243.857 540.434C243.857 533.72 249.301 528.307 255.985 528.307C262.699 528.307 268.142 533.72 268.142 540.434Z" fill="#F9F9C8"/>
<path opacity="0.5652" d="M267.659 540.434C267.659 546.876 262.427 552.108 255.985 552.108C249.574 552.108 244.342 546.906 244.342 540.434C244.342 533.992 249.574 528.791 255.985 528.791C262.427 528.791 267.659 533.992 267.659 540.434Z" fill="#F9F9C6"/>
<path opacity="0.6087" d="M267.174 540.434C267.174 546.603 262.154 551.624 255.985 551.624C249.845 551.624 244.825 546.634 244.825 540.434C244.825 534.264 249.845 529.244 255.985 529.244C262.154 529.244 267.174 534.234 267.174 540.434Z" fill="#FAFAC4"/>
<path opacity="0.6522" d="M266.691 540.434C266.691 546.361 261.882 551.14 255.985 551.14C250.088 551.14 245.31 546.361 245.31 540.434C245.31 534.506 250.118 529.728 255.985 529.728C261.913 529.728 266.691 534.506 266.691 540.434Z" fill="#FAFAC2"/>
<path opacity="0.6957" d="M266.207 540.434C266.207 546.089 261.61 550.656 255.985 550.656C250.36 550.656 245.793 546.089 245.793 540.434C245.793 534.779 250.36 530.212 255.985 530.212C261.64 530.212 266.207 534.779 266.207 540.434Z" fill="#FBFBC0"/>
<path opacity="0.7391" d="M265.753 540.434C265.753 545.817 261.398 550.172 255.984 550.172C250.631 550.172 246.246 545.817 246.246 540.434C246.246 535.051 250.601 530.696 255.984 530.696C261.367 530.696 265.753 535.051 265.753 540.434Z" fill="#FCFCBE"/>
<path opacity="0.7826" d="M265.269 540.434C265.269 545.545 261.126 549.718 255.985 549.718C250.904 549.718 246.73 545.575 246.73 540.434C246.73 535.323 250.874 531.18 255.985 531.18C261.096 531.18 265.269 535.323 265.269 540.434Z" fill="#FCFCBC"/>
<path opacity="0.8261" d="M264.786 540.434C264.786 545.273 260.854 549.234 255.985 549.234C251.146 549.234 247.215 545.303 247.215 540.434C247.215 535.595 251.146 531.633 255.985 531.633C260.854 531.633 264.786 535.565 264.786 540.434Z" fill="#FDFDBA"/>
<path opacity="0.8696" d="M264.301 540.434C264.301 545.031 260.582 548.751 255.985 548.751C251.418 548.751 247.698 545.031 247.698 540.434C247.698 535.837 251.418 532.117 255.985 532.117C260.582 532.117 264.301 535.837 264.301 540.434Z" fill="#FDFDB8"/>
<path opacity="0.913" d="M263.818 540.434C263.818 544.759 260.31 548.267 255.985 548.267C251.691 548.267 248.183 544.759 248.183 540.434C248.183 536.109 251.691 532.601 255.985 532.601C260.31 532.601 263.818 536.109 263.818 540.434Z" fill="#FEFEB6"/>
<path opacity="0.9565" d="M263.334 540.434C263.334 544.486 260.037 547.783 255.985 547.783C251.962 547.783 248.666 544.486 248.666 540.434C248.666 536.381 251.962 533.085 255.985 533.085C260.067 533.085 263.334 536.381 263.334 540.434Z" fill="#FEFEB4"/>
<path d="M262.88 540.434C262.88 544.214 259.795 547.329 255.984 547.329C252.204 547.329 249.119 544.244 249.119 540.434C249.119 536.653 252.204 533.569 255.984 533.569C259.795 533.538 262.88 536.653 262.88 540.434Z" fill="#FFFFB2"/>
<path d="M33.0672 309.321C33.0672 314.371 28.9542 318.514 23.8734 318.514C18.8229 318.514 14.71 314.371 14.71 309.321C14.71 304.27 18.8229 300.127 23.8734 300.127C28.9542 300.127 33.0672 304.27 33.0672 309.321Z" fill="#F2F2D0"/>
<path d="M27.9568 304.603C27.2612 309.018 23.4809 312.375 18.884 312.375C18.6421 312.375 18.3699 312.284 18.1279 312.284C19.1562 314.552 21.3639 316.095 24.0252 316.095C27.5938 316.095 30.5274 313.191 30.5274 309.623C30.4971 307.536 29.4689 305.782 27.9568 304.603Z" fill="#D6A651"/>
<path opacity="0.0434783" d="M41.2935 309.321C41.2935 318.938 33.491 326.71 23.8738 326.71C14.287 326.71 6.48438 318.938 6.48438 309.321C6.48438 299.673 14.287 291.931 23.8738 291.931C33.491 291.931 41.2935 299.673 41.2935 309.321Z" fill="#F3F3DD"/>
<path opacity="0.0869565" d="M40.8092 309.321C40.8092 318.666 33.2183 326.226 23.8734 326.226C14.5284 326.226 6.96777 318.666 6.96777 309.321C6.96777 299.945 14.5587 292.415 23.8734 292.415C33.2183 292.415 40.8092 299.945 40.8092 309.321Z" fill="#F3F3DB"/>
<path opacity="0.1304" d="M40.3258 309.321C40.3258 318.424 32.9466 325.742 23.8738 325.742C14.8011 325.742 7.45215 318.393 7.45215 309.321C7.45215 300.218 14.8313 292.899 23.8738 292.899C32.9466 292.899 40.3258 300.218 40.3258 309.321Z" fill="#F4F4D9"/>
<path opacity="0.1739" d="M39.8414 309.321C39.8414 318.151 32.6739 325.258 23.8733 325.258C15.0728 325.258 7.90527 318.121 7.90527 309.321C7.90527 300.46 15.0425 293.353 23.8733 293.353C32.6739 293.383 39.8414 300.49 39.8414 309.321Z" fill="#F4F4D7"/>
<path opacity="0.2174" d="M39.357 309.321C39.357 317.879 32.4012 324.805 23.8729 324.805C15.3445 324.805 8.38867 317.879 8.38867 309.321C8.38867 300.732 15.3142 293.836 23.8729 293.836C32.4315 293.836 39.357 300.732 39.357 309.321Z" fill="#F5F5D5"/>
<path opacity="0.2609" d="M38.9039 309.321C38.9039 317.607 32.1598 324.321 23.8734 324.321C15.5869 324.321 8.87305 317.637 8.87305 309.321C8.87305 301.004 15.5869 294.32 23.8734 294.32C32.1598 294.32 38.9039 301.004 38.9039 309.321Z" fill="#F5F5D3"/>
<path opacity="0.3043" d="M38.4205 309.321C38.4205 317.335 31.8881 323.837 23.8738 323.837C15.8596 323.837 9.35742 317.365 9.35742 309.321C9.35742 301.276 15.8596 294.804 23.8738 294.804C31.8881 294.804 38.4205 301.276 38.4205 309.321Z" fill="#F6F6D1"/>
<path opacity="0.3478" d="M37.9361 309.321C37.9361 317.093 31.6457 323.353 23.8734 323.353C16.1313 323.353 9.84082 317.093 9.84082 309.321C9.84082 301.548 16.1313 295.288 23.8734 295.288C31.6155 295.288 37.9361 301.548 37.9361 309.321Z" fill="#F7F7CF"/>
<path opacity="0.3913" d="M37.4528 309.321C37.4528 316.821 31.374 322.869 23.8739 322.869C16.4039 322.869 10.3252 316.821 10.3252 309.321C10.3252 301.79 16.4039 295.742 23.8739 295.742C31.374 295.772 37.4528 301.82 37.4528 309.321Z" fill="#F7F7CD"/>
<path opacity="0.4348" d="M36.9684 309.321C36.9684 316.549 31.1013 322.416 23.8734 322.416C16.6454 322.416 10.8086 316.579 10.8086 309.321C10.8086 302.062 16.6756 296.226 23.8734 296.226C31.1013 296.226 36.9684 302.062 36.9684 309.321Z" fill="#F8F8CB"/>
<path opacity="0.4783" d="M36.484 309.321C36.484 316.276 30.8286 321.932 23.8729 321.932C16.9171 321.932 11.2617 316.307 11.2617 309.321C11.2617 302.335 16.9171 296.709 23.8729 296.709C30.8286 296.709 36.484 302.335 36.484 309.321Z" fill="#F8F8C9"/>
<path opacity="0.5217" d="M36.0309 309.321C36.0309 316.035 30.5872 321.448 23.8734 321.448C17.1898 321.448 11.7461 316.035 11.7461 309.321C11.7461 302.607 17.1898 297.193 23.8734 297.193C30.5872 297.193 36.0309 302.607 36.0309 309.321Z" fill="#F9F9C8"/>
<path opacity="0.5652" d="M35.5475 309.321C35.5475 315.762 30.3155 320.964 23.8738 320.964C17.4624 320.964 12.2305 315.762 12.2305 309.321C12.2305 302.879 17.4624 297.677 23.8738 297.677C30.3155 297.677 35.5475 302.879 35.5475 309.321Z" fill="#F9F9C6"/>
<path opacity="0.6087" d="M35.0631 309.321C35.0631 315.49 30.0428 320.48 23.8734 320.48C17.7039 320.48 12.7139 315.49 12.7139 309.321C12.7139 303.121 17.7039 298.131 23.8734 298.131C30.0428 298.161 35.0631 303.151 35.0631 309.321Z" fill="#FAFAC4"/>
<path opacity="0.6522" d="M34.5797 309.321C34.5797 315.218 29.7712 320.026 23.8739 320.026C17.9766 320.026 13.1982 315.248 13.1982 309.321C13.1982 303.393 17.9766 298.615 23.8739 298.615C29.7712 298.615 34.5797 303.393 34.5797 309.321Z" fill="#FAFAC2"/>
<path opacity="0.6957" d="M34.0954 309.321C34.0954 314.946 29.4985 319.543 23.8734 319.543C18.2483 319.543 13.6816 314.976 13.6816 309.321C13.6816 303.665 18.2483 299.099 23.8734 299.099C29.5287 299.099 34.0954 303.665 34.0954 309.321Z" fill="#FBFBC0"/>
<path opacity="0.7391" d="M33.611 309.321C33.611 314.704 29.256 319.059 23.8729 319.059C18.5199 319.059 14.1348 314.704 14.1348 309.321C14.1348 303.937 18.4897 299.583 23.8729 299.583C29.256 299.583 33.611 303.937 33.611 309.321Z" fill="#FCFCBE"/>
<path opacity="0.7826" d="M33.1275 309.321C33.1275 314.432 28.9843 318.575 23.8431 318.575C18.7321 318.575 14.5889 314.432 14.5889 309.321C14.5889 304.21 18.7321 300.066 23.8431 300.066C28.9843 300.066 33.1275 304.21 33.1275 309.321Z" fill="#FCFCBC"/>
<path opacity="0.8261" d="M32.6744 309.321C32.6744 314.159 28.7429 318.091 23.8739 318.091C19.035 318.091 15.1035 314.159 15.1035 309.321C15.1035 304.452 19.035 300.52 23.8739 300.52C28.7127 300.55 32.6744 304.482 32.6744 309.321Z" fill="#FDFDBA"/>
<path opacity="0.8696" d="M32.1901 309.321C32.1901 313.887 28.4702 317.637 23.8734 317.637C19.3067 317.637 15.5869 313.917 15.5869 309.321C15.5869 304.724 19.3067 301.004 23.8734 301.004C28.4702 301.004 32.1901 304.724 32.1901 309.321Z" fill="#FDFDB8"/>
<path opacity="0.913" d="M31.7067 309.321C31.7067 313.645 28.1986 317.153 23.8739 317.153C19.5794 317.153 16.0713 313.645 16.0713 309.321C16.0713 304.996 19.5794 301.488 23.8739 301.488C28.1986 301.488 31.7067 304.996 31.7067 309.321Z" fill="#FEFEB6"/>
<path opacity="0.9565" d="M31.2223 309.321C31.2223 313.373 27.9259 316.67 23.8734 316.67C19.8209 316.67 16.5547 313.373 16.5547 309.321C16.5547 305.268 19.8511 301.972 23.8734 301.972C27.9259 301.972 31.2223 305.268 31.2223 309.321Z" fill="#FEFEB4"/>
<path d="M30.7379 309.321C30.7379 313.101 27.6532 316.186 23.8729 316.186C20.0926 316.186 17.0078 313.101 17.0078 309.321C17.0078 305.54 20.0926 302.456 23.8729 302.456C27.6834 302.456 30.7379 305.54 30.7379 309.321Z" fill="#FFFFB2"/>
<path d="M101.053 144.196C101.053 149.247 96.9396 153.36 91.8588 153.39C86.8083 153.39 82.6953 149.247 82.6953 144.196C82.6953 139.116 86.8083 135.003 91.8588 135.003C96.9396 134.972 101.053 139.116 101.053 144.196Z" fill="#F2F2D0"/>
<path d="M95.9421 139.479C95.2465 143.833 91.4662 147.221 86.8693 147.221C86.5972 147.251 86.3552 147.16 86.1133 147.16C87.1415 149.398 89.3795 150.971 92.0106 150.94C95.5792 150.94 98.4825 148.037 98.4825 144.499C98.5127 142.412 97.4542 140.628 95.9421 139.479Z" fill="#D6A651"/>
<path opacity="0.0434783" d="M109.279 144.196C109.279 153.813 101.476 161.555 91.8592 161.586C82.2723 161.586 74.4697 153.813 74.4697 144.196C74.4697 134.518 82.2723 126.807 91.8592 126.807C101.446 126.807 109.279 134.518 109.279 144.196Z" fill="#F3F3DD"/>
<path opacity="0.0869565" d="M108.795 144.196C108.795 153.541 101.204 161.071 91.8587 161.102C82.544 161.102 74.9531 153.541 74.9531 144.196C74.9531 134.791 82.5138 127.291 91.8587 127.291C101.173 127.291 108.795 134.791 108.795 144.196Z" fill="#F3F3DB"/>
<path opacity="0.1304" d="M108.311 144.196C108.311 153.269 100.932 160.618 91.8592 160.618C82.7864 160.618 75.4375 153.269 75.4375 144.196C75.4375 135.063 82.7864 127.744 91.8592 127.744C100.932 127.774 108.311 135.063 108.311 144.196Z" fill="#F4F4D9"/>
<path opacity="0.1739" d="M107.827 144.196C107.827 153.027 100.659 160.134 91.8587 160.134C83.0581 160.134 75.9209 152.997 75.9209 144.196C75.9209 135.335 83.0581 128.228 91.8587 128.228C100.659 128.228 107.827 135.335 107.827 144.196Z" fill="#F4F4D7"/>
<path opacity="0.2174" d="M107.343 144.196C107.343 152.755 100.388 159.65 91.829 159.68C83.3006 159.68 76.3449 152.755 76.3751 144.196C76.3751 135.577 83.3006 128.712 91.829 128.712C100.388 128.712 107.343 135.607 107.343 144.196Z" fill="#F5F5D5"/>
<path opacity="0.2609" d="M106.889 144.196C106.889 152.483 100.145 159.166 91.8587 159.196C83.6025 159.196 76.8584 152.483 76.8584 144.196C76.8584 135.849 83.5722 129.196 91.8587 129.196C100.145 129.196 106.889 135.849 106.889 144.196Z" fill="#F5F5D3"/>
<path opacity="0.3043" d="M106.406 144.196C106.406 152.21 99.9037 158.713 91.8592 158.713C83.8449 158.713 77.3428 152.21 77.3428 144.196C77.3428 136.121 83.8449 129.65 91.8592 129.68C99.8735 129.68 106.406 136.121 106.406 144.196Z" fill="#F6F6D1"/>
<path opacity="0.3478" d="M105.922 144.196C105.922 151.938 99.6311 158.229 91.8587 158.229C84.1166 158.229 77.8262 151.938 77.8262 144.196C77.8262 136.394 84.1166 130.133 91.8587 130.133C99.6008 130.164 105.922 136.394 105.922 144.196Z" fill="#F7F7CF"/>
<path opacity="0.3913" d="M105.438 144.196C105.438 151.696 99.3594 157.745 91.8592 157.775C84.3893 157.775 78.3105 151.696 78.3105 144.196C78.3105 136.666 84.3893 130.617 91.8592 130.617C99.3594 130.617 105.438 136.666 105.438 144.196Z" fill="#F7F7CD"/>
<path opacity="0.4348" d="M104.954 144.196C104.954 151.424 99.0867 157.261 91.8587 157.291C84.661 157.291 78.7939 151.424 78.7939 144.196C78.7939 136.908 84.661 131.101 91.8587 131.101C99.0867 131.101 104.954 136.938 104.954 144.196Z" fill="#F8F8CB"/>
<path opacity="0.4783" d="M104.469 144.196C104.469 151.152 98.8141 156.807 91.8583 156.807C84.9026 156.807 79.2472 151.152 79.2775 144.196C79.2775 137.18 84.9328 131.555 91.8583 131.585C98.8141 131.585 104.469 137.18 104.469 144.196Z" fill="#F8F8C9"/>
<path opacity="0.5217" d="M104.016 144.196C104.016 150.88 98.5727 156.324 91.8589 156.324C85.1753 156.324 79.7316 150.88 79.7618 144.196C79.7618 137.452 85.1753 132.039 91.8589 132.069C98.5425 132.069 104.016 137.452 104.016 144.196Z" fill="#F9F9C8"/>
<path opacity="0.5652" d="M103.533 144.196C103.533 150.608 98.3009 155.84 91.8592 155.84C85.4478 155.84 80.2158 150.608 80.2158 144.196C80.2158 137.724 85.4175 132.523 91.8592 132.553C98.3009 132.553 103.533 137.724 103.533 144.196Z" fill="#F9F9C6"/>
<path opacity="0.6087" d="M103.048 144.196C103.048 150.366 98.0282 155.356 91.8587 155.386C85.7195 155.386 80.6992 150.366 80.6992 144.196C80.6992 137.996 85.6892 133.006 91.8587 133.006C98.0282 133.006 103.048 137.996 103.048 144.196Z" fill="#FAFAC4"/>
<path opacity="0.6522" d="M102.565 144.196C102.565 150.093 97.7565 154.871 91.8592 154.902C85.9922 154.902 81.1836 150.093 81.1836 144.196C81.1836 138.238 85.9619 133.46 91.8592 133.49C97.7565 133.49 102.565 138.238 102.565 144.196Z" fill="#FAFAC2"/>
<path opacity="0.6957" d="M102.081 144.196C102.081 149.821 97.5141 154.418 91.8587 154.418C86.2336 154.418 81.667 149.821 81.667 144.196C81.667 138.511 86.2336 133.944 91.8587 133.974C97.5141 133.974 102.081 138.511 102.081 144.196Z" fill="#FBFBC0"/>
<path opacity="0.7391" d="M101.597 144.196C101.597 149.549 97.2426 153.934 91.8594 153.934C86.5064 153.934 82.1213 149.549 82.1515 144.196C82.1515 138.783 86.5064 134.458 91.8594 134.458C97.2426 134.428 101.597 138.783 101.597 144.196Z" fill="#FCFCBE"/>
<path opacity="0.7826" d="M101.113 144.196C101.113 149.277 96.9699 153.451 91.8286 153.451C86.7479 153.451 82.5744 149.307 82.6047 144.196C82.6047 139.055 86.7479 134.942 91.8286 134.942C96.9699 134.912 101.113 139.055 101.113 144.196Z" fill="#FCFCBC"/>
<path opacity="0.8261" d="M100.659 144.196C100.659 149.035 96.7275 152.966 91.8584 152.997C87.0499 152.997 83.0881 149.065 83.1183 144.196C83.1183 139.327 87.0499 135.426 91.8584 135.396C96.6973 135.396 100.659 139.327 100.659 144.196Z" fill="#FDFDBA"/>
<path opacity="0.8696" d="M100.175 144.196C100.175 148.763 96.4556 152.513 91.8587 152.513C87.2921 152.513 83.5723 148.793 83.5723 144.196C83.5723 139.569 87.2921 135.91 91.8587 135.879C96.4556 135.879 100.175 139.569 100.175 144.196Z" fill="#FDFDB8"/>
<path opacity="0.913" d="M99.692 144.196C99.692 148.491 96.1839 152.029 91.8592 152.029C87.5648 152.029 84.0566 148.521 84.0566 144.196C84.0566 139.841 87.5345 136.363 91.8592 136.363C96.1839 136.363 99.692 139.841 99.692 144.196Z" fill="#FEFEB6"/>
<path opacity="0.9565" d="M99.2077 144.196C99.2077 148.219 95.9112 151.545 91.8587 151.545C87.8365 151.545 84.54 148.249 84.54 144.196C84.54 140.114 87.8062 136.847 91.8587 136.847C95.9112 136.817 99.2077 140.114 99.2077 144.196Z" fill="#FEFEB4"/>
<path d="M98.7235 144.196C98.7235 147.946 95.6388 151.061 91.8585 151.061C88.1084 151.061 84.9934 147.976 85.0237 144.196C85.0237 140.385 88.0782 137.27 91.8585 137.331C95.669 137.331 98.7235 140.385 98.7235 144.196Z" fill="#FFFFB2"/>
<path d="M429.306 144.166C429.306 149.247 425.223 153.39 420.142 153.36C415.092 153.36 410.979 149.247 410.979 144.166C410.979 139.146 415.092 135.003 420.142 135.003C425.193 134.972 429.306 139.116 429.306 144.166Z" fill="#F2F2D0"/>
<path d="M424.194 139.479C423.529 143.833 419.718 147.221 415.121 147.221C414.91 147.221 414.637 147.13 414.365 147.16C415.393 149.398 417.662 150.94 420.263 150.94C423.831 150.971 426.734 148.067 426.765 144.499C426.765 142.412 425.706 140.628 424.194 139.479Z" fill="#D6A651"/>
<path opacity="0.0434783" d="M437.531 144.196C437.531 153.813 429.728 161.555 420.111 161.555C410.524 161.555 402.722 153.813 402.722 144.166C402.722 134.518 410.524 126.776 420.111 126.776C429.728 126.776 437.531 134.549 437.531 144.196Z" fill="#F3F3DD"/>
<path opacity="0.0869565" d="M437.047 144.196C437.047 153.541 429.457 161.071 420.112 161.071C410.797 161.071 403.206 153.541 403.206 144.166C403.206 134.791 410.797 127.26 420.142 127.26C429.457 127.26 437.047 134.821 437.047 144.196Z" fill="#F3F3DB"/>
<path opacity="0.1304" d="M436.563 144.196C436.563 153.299 429.184 160.618 420.111 160.618C411.069 160.618 403.689 153.299 403.689 144.166C403.689 135.063 411.069 127.744 420.141 127.744C429.184 127.744 436.563 135.063 436.563 144.196Z" fill="#F4F4D9"/>
<path opacity="0.1739" d="M436.08 144.196C436.08 153.027 428.942 160.134 420.112 160.134C411.311 160.134 404.174 153.027 404.144 144.166C404.144 135.335 411.311 128.228 420.112 128.228C428.942 128.228 436.08 135.335 436.08 144.196Z" fill="#F4F4D7"/>
<path opacity="0.2174" d="M435.595 144.196C435.595 152.755 428.67 159.65 420.111 159.65C411.583 159.65 404.657 152.755 404.627 144.166C404.627 135.607 411.553 128.682 420.111 128.682C428.67 128.682 435.595 135.607 435.595 144.196Z" fill="#F5F5D5"/>
<path opacity="0.2609" d="M435.142 144.196C435.142 152.483 428.428 159.166 420.112 159.166C411.855 159.166 405.111 152.483 405.111 144.166C405.111 135.849 411.825 129.166 420.112 129.166C428.398 129.166 435.112 135.879 435.142 144.196Z" fill="#F5F5D3"/>
<path opacity="0.3043" d="M434.658 144.196C434.658 152.241 428.156 158.713 420.111 158.713C412.097 158.713 405.595 152.241 405.595 144.196C405.595 136.152 412.097 129.68 420.141 129.68C428.156 129.65 434.658 136.152 434.658 144.196Z" fill="#F6F6D1"/>
<path opacity="0.3478" d="M434.174 144.196C434.174 151.968 427.884 158.229 420.112 158.229C412.37 158.229 406.079 151.968 406.079 144.166C406.079 136.394 412.37 130.133 420.142 130.133C427.884 130.133 434.174 136.394 434.174 144.196Z" fill="#F7F7CF"/>
<path opacity="0.3913" d="M433.691 144.196C433.691 151.696 427.612 157.745 420.112 157.745C412.642 157.745 406.563 151.696 406.533 144.166C406.533 136.666 412.612 130.617 420.112 130.617C427.612 130.617 433.691 136.666 433.691 144.196Z" fill="#F7F7CD"/>
<path opacity="0.4348" d="M433.207 144.196C433.207 151.424 427.34 157.261 420.112 157.261C412.914 157.261 407.047 151.424 407.017 144.166C407.017 136.938 412.884 131.071 420.112 131.071C427.34 131.071 433.207 136.938 433.207 144.196Z" fill="#F8F8CB"/>
<path opacity="0.4783" d="M432.754 144.196C432.754 151.182 427.098 156.807 420.142 156.807C413.187 156.807 407.531 151.182 407.531 144.196C407.531 137.21 413.187 131.585 420.142 131.585C427.098 131.555 432.723 137.21 432.754 144.196Z" fill="#F8F8C9"/>
<path opacity="0.5217" d="M432.269 144.196C432.269 150.91 426.826 156.324 420.112 156.324C413.428 156.324 407.984 150.91 407.984 144.196C407.984 137.482 413.428 132.069 420.112 132.069C426.826 132.039 432.239 137.452 432.269 144.196Z" fill="#F9F9C8"/>
<path opacity="0.5652" d="M431.785 144.166C431.785 150.608 426.553 155.809 420.111 155.809C413.7 155.809 408.468 150.608 408.468 144.166C408.468 137.724 413.7 132.522 420.141 132.522C426.553 132.522 431.785 137.724 431.785 144.166Z" fill="#F9F9C6"/>
<path opacity="0.6087" d="M431.301 144.166C431.301 150.335 426.281 155.325 420.112 155.325C413.942 155.325 408.952 150.335 408.922 144.136C408.922 137.966 413.942 132.976 420.112 132.976C426.311 133.006 431.301 137.996 431.301 144.166Z" fill="#FAFAC4"/>
<path opacity="0.6522" d="M430.818 144.166C430.818 150.093 426.009 154.841 420.112 154.841C414.215 154.841 409.436 150.063 409.406 144.136C409.406 138.208 414.215 133.43 420.112 133.43C426.04 133.46 430.818 138.268 430.818 144.166Z" fill="#FAFAC2"/>
<path opacity="0.6957" d="M430.364 144.166C430.364 149.821 425.767 154.388 420.142 154.388C414.517 154.388 409.92 149.821 409.92 144.166C409.92 138.51 414.517 133.944 420.142 133.944C425.767 133.944 430.334 138.51 430.364 144.166Z" fill="#FBFBC0"/>
<path opacity="0.7391" d="M429.881 144.166C429.881 149.549 425.495 153.904 420.142 153.904C414.789 153.904 410.404 149.549 410.404 144.166C410.404 138.783 414.789 134.428 420.142 134.428C425.495 134.428 429.881 138.783 429.881 144.166Z" fill="#FCFCBE"/>
<path opacity="0.7826" d="M429.396 144.166C429.396 149.277 425.253 153.42 420.112 153.42C415.001 153.42 410.857 149.277 410.857 144.166C410.857 139.055 415.031 134.912 420.142 134.912C425.253 134.912 429.396 139.055 429.396 144.166Z" fill="#FCFCBC"/>
<path opacity="0.8261" d="M428.913 144.166C428.913 149.005 424.981 152.936 420.112 152.936C415.273 152.936 411.312 149.005 411.312 144.136C411.312 139.297 415.273 135.335 420.112 135.335C424.981 135.365 428.913 139.327 428.913 144.166Z" fill="#FDFDBA"/>
<path opacity="0.8696" d="M428.428 144.166C428.428 148.763 424.708 152.483 420.112 152.483C415.545 152.483 411.795 148.763 411.795 144.166C411.795 139.569 415.515 135.849 420.112 135.849C424.708 135.849 428.428 139.569 428.428 144.166Z" fill="#FDFDB8"/>
<path opacity="0.913" d="M427.974 144.166C427.974 148.49 424.466 151.999 420.141 151.999C415.817 151.999 412.309 148.49 412.309 144.166C412.309 139.841 415.817 136.333 420.141 136.333C424.436 136.333 427.944 139.841 427.974 144.166Z" fill="#FEFEB6"/>
<path opacity="0.9565" d="M427.491 144.166C427.491 148.218 424.194 151.515 420.142 151.515C416.089 151.515 412.793 148.218 412.793 144.166C412.793 140.113 416.089 136.817 420.142 136.817C424.194 136.817 427.491 140.113 427.491 144.166Z" fill="#FEFEB4"/>
<path d="M427.007 144.166C427.007 147.946 423.923 151.031 420.142 151.031C416.362 151.031 413.277 147.946 413.277 144.166C413.277 140.386 416.362 137.301 420.142 137.301C423.923 137.301 426.977 140.386 427.007 144.166Z" fill="#FFFFB2"/>
<path d="M168.372 96.7152C168.372 101.796 164.289 105.939 159.208 105.909C154.158 105.909 150.045 101.796 150.045 96.7152C150.045 91.695 154.158 87.5518 159.208 87.5518C164.289 87.5518 168.372 91.695 168.372 96.7152Z" fill="#F2F2D0"/>
<path d="M163.291 92.0278C162.595 96.413 158.815 99.7699 154.218 99.7699C153.976 99.7699 153.734 99.6792 153.462 99.7094C154.49 101.947 156.728 103.49 159.359 103.49C162.928 103.52 165.831 100.617 165.861 97.0481C165.831 94.9614 164.803 93.177 163.291 92.0278Z" fill="#D6A651"/>
<g opacity="0.7">
<path opacity="0.0434783" d="M176.598 96.7454C176.598 106.363 168.796 114.105 159.179 114.105C149.592 114.105 141.819 106.363 141.789 96.7151C141.789 87.0678 149.592 79.3257 159.179 79.3257C168.826 79.3559 176.598 87.098 176.598 96.7454Z" fill="#F3F3DD"/>
<path opacity="0.0869565" d="M176.144 96.7454C176.144 106.09 168.553 113.621 159.208 113.621C149.894 113.621 142.303 106.09 142.303 96.7152C142.303 87.34 149.894 79.8096 159.239 79.8096C168.553 79.8096 176.144 87.3702 176.144 96.7454Z" fill="#F3F3DB"/>
<path opacity="0.1304" d="M175.66 96.7459C175.66 105.849 168.281 113.168 159.208 113.168C150.165 113.168 142.786 105.849 142.786 96.7156C142.786 87.6126 150.165 80.2939 159.238 80.2939C168.281 80.2939 175.66 87.6429 175.66 96.7459Z" fill="#F4F4D9"/>
<path opacity="0.1739" d="M175.176 96.7454C175.176 105.576 168.039 112.683 159.208 112.683C150.408 112.683 143.27 105.576 143.24 96.7152C143.24 87.8843 150.408 80.7773 159.208 80.7773C168.039 80.7773 175.176 87.9146 175.176 96.7454Z" fill="#F4F4D7"/>
<path opacity="0.2174" d="M174.692 96.7454C174.692 105.304 167.766 112.199 159.208 112.199C150.679 112.199 143.754 105.304 143.724 96.7151C143.724 88.1565 150.679 81.231 159.208 81.231C167.766 81.2612 174.692 88.1565 174.692 96.7454Z" fill="#F5F5D5"/>
<path opacity="0.2609" d="M174.209 96.7454C174.209 105.032 167.495 111.715 159.178 111.715C150.922 111.715 144.208 105.032 144.178 96.7151C144.178 88.3984 150.892 81.7148 159.178 81.7148C167.495 81.7451 174.209 88.4287 174.209 96.7454Z" fill="#F5F5D3"/>
<path opacity="0.3043" d="M173.754 96.7455C173.754 104.79 167.252 111.262 159.208 111.262C151.194 111.262 144.691 104.79 144.691 96.7455C144.691 88.701 151.194 82.2291 159.238 82.2291C167.222 82.1989 173.724 88.701 173.754 96.7455Z" fill="#F6F6D1"/>
<path opacity="0.3478" d="M173.271 96.7455C173.271 104.518 166.981 110.778 159.208 110.778C151.466 110.778 145.176 104.518 145.176 96.7455C145.176 88.9732 151.466 82.713 159.239 82.713C166.981 82.6828 173.271 88.9732 173.271 96.7455Z" fill="#F7F7CF"/>
<path opacity="0.3913" d="M172.788 96.7459C172.788 104.246 166.709 110.295 159.209 110.295C151.739 110.295 145.66 104.246 145.63 96.7157C145.63 89.2155 151.709 83.167 159.209 83.167C166.709 83.167 172.788 89.2457 172.788 96.7459Z" fill="#F7F7CD"/>
<path opacity="0.4348" d="M172.303 96.7459C172.303 103.974 166.436 109.811 159.208 109.811C152.011 109.811 146.144 103.974 146.113 96.7156C146.113 89.4574 151.98 83.6206 159.208 83.6206C166.436 83.6508 172.303 89.4877 172.303 96.7459Z" fill="#F8F8CB"/>
<path opacity="0.4783" d="M171.819 96.7454C171.819 103.731 166.164 109.357 159.208 109.357C152.252 109.357 146.597 103.731 146.597 96.7454C146.597 89.7594 152.252 84.1343 159.208 84.1343C166.164 84.1343 171.819 89.7594 171.819 96.7454Z" fill="#F8F8C9"/>
<path opacity="0.5217" d="M171.366 96.7456C171.366 103.459 165.922 108.873 159.208 108.873C152.525 108.873 147.081 103.459 147.081 96.7456C147.081 90.0317 152.525 84.6183 159.208 84.6183C165.922 84.588 171.336 90.0317 171.366 96.7456Z" fill="#F9F9C8"/>
<path opacity="0.5652" d="M170.881 96.7456C170.881 103.187 165.65 108.389 159.208 108.389C152.796 108.389 147.564 103.187 147.564 96.7456C147.564 90.3039 152.796 85.1022 159.238 85.1022C165.65 85.0719 170.851 90.3039 170.881 96.7456Z" fill="#F9F9C6"/>
<path opacity="0.6087" d="M170.398 96.7454C170.398 102.915 165.378 107.905 159.208 107.905C153.039 107.905 148.049 102.915 148.019 96.7151C148.019 90.5457 153.039 85.5254 159.208 85.5254C165.378 85.5556 170.368 90.5457 170.398 96.7454Z" fill="#FAFAC4"/>
<path opacity="0.6522" d="M169.915 96.7454C169.915 102.673 165.106 107.421 159.209 107.421C153.312 107.421 148.533 102.643 148.503 96.7151C148.503 90.7876 153.312 86.0093 159.209 86.0093C165.136 86.0395 169.915 90.8178 169.915 96.7454Z" fill="#FAFAC2"/>
<path opacity="0.6957" d="M169.43 96.7456C169.43 102.401 164.833 106.968 159.208 106.968C153.583 106.968 148.986 102.401 148.986 96.7456C148.986 91.0902 153.583 86.5236 159.208 86.5236C164.864 86.4933 169.43 91.0902 169.43 96.7456Z" fill="#FBFBC0"/>
<path opacity="0.7391" d="M168.977 96.7456C168.977 102.129 164.592 106.484 159.239 106.484C153.886 106.484 149.501 102.129 149.501 96.7456C149.501 91.3624 153.886 87.0075 159.239 87.0075C164.592 86.9772 168.947 91.3624 168.977 96.7456Z" fill="#FCFCBE"/>
<path opacity="0.7826" d="M168.493 96.7456C168.493 101.857 164.35 106 159.208 106C154.097 106 149.954 101.857 149.954 96.7456C149.954 91.6346 154.128 87.4914 159.208 87.4914C164.319 87.4611 168.493 91.6044 168.493 96.7456Z" fill="#FCFCBC"/>
<path opacity="0.8261" d="M168.009 96.7454C168.009 101.614 164.078 105.516 159.209 105.516C154.37 105.516 150.408 101.584 150.408 96.7151C150.408 91.8763 154.34 87.9146 159.209 87.9146C164.078 87.9448 168.009 91.8763 168.009 96.7454Z" fill="#FDFDBA"/>
<path opacity="0.8696" d="M167.525 96.7454C167.525 101.342 163.805 105.062 159.208 105.062C154.642 105.062 150.892 101.342 150.892 96.7454C150.892 92.1485 154.611 88.4287 159.208 88.4287C163.805 88.4287 167.525 92.1485 167.525 96.7454Z" fill="#FDFDB8"/>
<path opacity="0.913" d="M167.042 96.7456C167.042 101.07 163.533 104.578 159.209 104.578C154.884 104.578 151.376 101.07 151.376 96.7456C151.376 92.4209 154.884 88.9128 159.209 88.9128C163.533 88.8825 167.042 92.4209 167.042 96.7456Z" fill="#FEFEB6"/>
<path opacity="0.9565" d="M166.588 96.7156C166.588 100.768 163.291 104.065 159.239 104.065C155.186 104.065 151.89 100.768 151.89 96.7156C151.89 92.6631 155.186 89.3667 159.239 89.3667C163.261 89.3667 166.557 92.6631 166.588 96.7156Z" fill="#FEFEB4"/>
<path opacity="0.7" d="M166.104 96.7151C166.104 100.495 163.019 103.58 159.239 103.58C155.459 103.58 152.374 100.495 152.374 96.7151C152.374 92.9348 155.459 89.8501 159.239 89.8501C163.019 89.8501 166.074 92.9348 166.104 96.7151Z" fill="#FFFFB2"/>
</g>
<path d="M361.713 96.7152C361.713 101.796 357.63 105.939 352.549 105.909C347.499 105.909 343.386 101.796 343.386 96.7152C343.416 91.695 347.499 87.5518 352.549 87.5518C357.63 87.5518 361.713 91.695 361.713 96.7152Z" fill="#F2F2D0"/>
<path d="M356.601 92.0278C355.906 96.413 352.125 99.7699 347.529 99.7699C347.317 99.7699 347.045 99.6792 346.772 99.7094C347.801 101.947 350.039 103.49 352.67 103.49C356.238 103.52 359.142 100.617 359.172 97.0481C359.172 94.9614 358.144 93.177 356.601 92.0278Z" fill="#D6A651"/>
<g opacity="0.7">
<path opacity="0.0434783" d="M369.938 96.7454C369.938 106.363 362.136 114.105 352.518 114.105C342.931 114.105 335.129 106.363 335.129 96.7151C335.129 87.0678 342.931 79.3257 352.518 79.3257C362.166 79.3559 369.938 87.098 369.938 96.7454Z" fill="#F3F3DD"/>
<path opacity="0.0869565" d="M369.455 96.7454C369.455 106.09 361.864 113.621 352.519 113.621C343.204 113.621 335.613 106.09 335.613 96.7152C335.613 87.34 343.204 79.8096 352.549 79.8096C361.894 79.8096 369.455 87.3702 369.455 96.7454Z" fill="#F3F3DB"/>
<path opacity="0.1304" d="M369.001 96.7459C369.001 105.849 361.621 113.168 352.549 113.168C343.476 113.168 336.127 105.849 336.127 96.7156C336.127 87.6126 343.506 80.2939 352.579 80.2939C361.621 80.2939 369.001 87.6429 369.001 96.7459Z" fill="#F4F4D9"/>
<path opacity="0.1739" d="M368.517 96.7454C368.517 105.576 361.35 112.683 352.549 112.683C343.749 112.683 336.611 105.576 336.581 96.7152C336.581 87.8843 343.718 80.7773 352.549 80.7773C361.35 80.7773 368.517 87.9146 368.517 96.7454Z" fill="#F4F4D7"/>
<path opacity="0.2174" d="M368.033 96.7454C368.033 105.304 361.107 112.199 352.549 112.199C344.02 112.199 337.095 105.304 337.064 96.7151C337.064 88.1565 343.99 81.231 352.549 81.231C361.107 81.2612 368.033 88.1565 368.033 96.7454Z" fill="#F5F5D5"/>
<path opacity="0.2609" d="M367.549 96.7454C367.549 105.032 360.836 111.715 352.519 111.715C344.263 111.715 337.519 105.032 337.519 96.7151C337.519 88.3984 344.232 81.7148 352.519 81.7148C360.836 81.7451 367.549 88.4287 367.549 96.7454Z" fill="#F5F5D3"/>
<path opacity="0.3043" d="M367.065 96.7455C367.065 104.79 360.563 111.262 352.518 111.262C344.504 111.262 338.002 104.79 338.002 96.7455C338.002 88.701 344.504 82.2291 352.549 82.2291C360.563 82.1989 367.065 88.701 367.065 96.7455Z" fill="#F6F6D1"/>
<path opacity="0.3478" d="M366.612 96.7455C366.612 104.518 360.321 110.778 352.549 110.778C344.807 110.778 338.517 104.518 338.517 96.7455C338.517 88.9732 344.807 82.713 352.579 82.713C360.291 82.6828 366.582 88.9732 366.612 96.7455Z" fill="#F7F7CF"/>
<path opacity="0.3913" d="M366.129 96.7459C366.129 104.246 360.05 110.295 352.55 110.295C345.08 110.295 339.001 104.246 338.971 96.7157C338.971 89.2155 345.049 83.167 352.55 83.167C360.05 83.167 366.129 89.2457 366.129 96.7459Z" fill="#F7F7CD"/>
<path opacity="0.4348" d="M365.644 96.7459C365.644 103.974 359.777 109.811 352.549 109.811C345.321 109.811 339.484 103.974 339.454 96.7156C339.454 89.4574 345.321 83.6206 352.549 83.6206C359.777 83.6508 365.644 89.4877 365.644 96.7459Z" fill="#F8F8CB"/>
<path opacity="0.4783" d="M365.16 96.7454C365.16 103.731 359.504 109.357 352.549 109.357C345.593 109.357 339.938 103.731 339.938 96.7454C339.938 89.7594 345.593 84.1343 352.549 84.1343C359.504 84.1343 365.16 89.7594 365.16 96.7454Z" fill="#F8F8C9"/>
<path opacity="0.5217" d="M364.676 96.7456C364.676 103.459 359.233 108.873 352.519 108.873C345.835 108.873 340.392 103.459 340.392 96.7456C340.392 90.0317 345.835 84.6183 352.519 84.6183C359.233 84.588 364.676 90.0317 364.676 96.7456Z" fill="#F9F9C8"/>
<path opacity="0.5652" d="M364.222 96.7456C364.222 103.187 358.99 108.389 352.549 108.389C346.137 108.389 340.905 103.187 340.905 96.7456C340.905 90.3039 346.137 85.1022 352.579 85.1022C358.99 85.0719 364.192 90.3039 364.222 96.7456Z" fill="#F9F9C6"/>
<path opacity="0.6087" d="M363.739 96.7454C363.739 102.915 358.719 107.905 352.549 107.905C346.38 107.905 341.359 102.915 341.359 96.7151C341.359 90.5457 346.38 85.5254 352.549 85.5254C358.719 85.5556 363.709 90.5457 363.739 96.7454Z" fill="#FAFAC4"/>
<path opacity="0.6522" d="M363.255 96.7454C363.255 102.673 358.447 107.421 352.55 107.421C346.652 107.421 341.844 102.643 341.844 96.7151C341.844 90.7876 346.652 86.0093 352.55 86.0093C358.447 86.0395 363.255 90.8178 363.255 96.7454Z" fill="#FAFAC2"/>
<path opacity="0.6957" d="M362.771 96.7456C362.771 102.401 358.174 106.968 352.549 106.968C346.924 106.968 342.327 102.401 342.327 96.7456C342.327 91.0902 346.924 86.5236 352.549 86.5236C358.205 86.4933 362.771 91.0902 362.771 96.7456Z" fill="#FBFBC0"/>
<path opacity="0.7391" d="M362.287 96.7456C362.287 102.129 357.902 106.484 352.549 106.484C347.165 106.484 342.811 102.129 342.811 96.7456C342.811 91.3624 347.165 87.0075 352.549 87.0075C357.932 86.9772 362.287 91.3624 362.287 96.7456Z" fill="#FCFCBE"/>
<path opacity="0.7826" d="M361.834 96.7456C361.834 101.857 357.66 106 352.549 106C347.438 106 343.295 101.857 343.295 96.7456C343.295 91.6346 347.438 87.4914 352.579 87.4914C357.66 87.4611 361.803 91.6044 361.834 96.7456Z" fill="#FCFCBC"/>
<path opacity="0.8261" d="M361.349 96.7454C361.349 101.614 357.418 105.516 352.549 105.516C347.71 105.516 343.748 101.584 343.748 96.7151C343.748 91.8763 347.68 87.9146 352.549 87.9146C357.387 87.9448 361.349 91.8763 361.349 96.7454Z" fill="#FDFDBA"/>
<path opacity="0.8696" d="M360.866 96.7454C360.866 101.342 357.146 105.062 352.549 105.062C347.952 105.062 344.232 101.342 344.232 96.7454C344.232 92.1485 347.952 88.4287 352.549 88.4287C357.146 88.4287 360.866 92.1485 360.866 96.7454Z" fill="#FDFDB8"/>
<path opacity="0.913" d="M360.382 96.7456C360.382 101.07 356.874 104.578 352.55 104.578C348.225 104.578 344.717 101.07 344.717 96.7456C344.717 92.4209 348.225 88.9128 352.55 88.9128C356.874 88.8825 360.382 92.4209 360.382 96.7456Z" fill="#FEFEB6"/>
<path opacity="0.9565" d="M359.898 96.7156C359.898 100.768 356.602 104.065 352.549 104.065C348.497 104.065 345.2 100.768 345.2 96.7156C345.2 92.6631 348.497 89.3667 352.549 89.3667C356.602 89.3667 359.898 92.6631 359.898 96.7156Z" fill="#FEFEB4"/>
<path opacity="0.7" d="M359.444 96.7151C359.444 100.495 356.359 103.58 352.579 103.58C348.799 103.58 345.714 100.495 345.714 96.7151C345.744 92.9348 348.799 89.8501 352.579 89.8501C356.329 89.8501 359.414 92.9348 359.444 96.7151Z" fill="#FFFFB2"/>
</g>
<path d="M479.387 219.107C479.387 224.188 475.304 228.331 470.223 228.301C465.173 228.301 461.06 224.188 461.06 219.107C461.09 214.087 465.173 209.944 470.223 209.944C475.304 209.913 479.387 214.057 479.387 219.107Z" fill="#F2F2D0"/>
<path d="M474.276 214.419C473.581 218.804 469.8 222.161 465.203 222.161C464.992 222.161 464.689 222.07 464.447 222.101C465.476 224.338 467.713 225.881 470.345 225.881C473.913 225.911 476.816 223.008 476.847 219.439C476.847 217.352 475.818 215.568 474.276 214.419Z" fill="#D6A651"/>
<g opacity="0.7">
<path opacity="0.0434783" d="M487.613 219.137C487.613 228.754 479.81 236.496 470.193 236.496C460.606 236.496 452.804 228.754 452.804 219.107C452.804 209.459 460.606 201.717 470.223 201.717C479.841 201.717 487.613 209.49 487.613 219.137Z" fill="#F3F3DD"/>
<path opacity="0.0869565" d="M487.129 219.137C487.129 228.482 479.538 236.012 470.193 236.012C460.878 236.012 453.287 228.482 453.287 219.107C453.287 209.732 460.878 202.201 470.223 202.201C479.568 202.201 487.129 209.762 487.129 219.137Z" fill="#F3F3DB"/>
<path opacity="0.1304" d="M486.675 219.137C486.675 228.24 479.296 235.559 470.223 235.559C461.151 235.559 453.802 228.24 453.771 219.107C453.771 210.004 461.151 202.685 470.223 202.685C479.296 202.685 486.675 210.034 486.675 219.137Z" fill="#F4F4D9"/>
<path opacity="0.1739" d="M486.191 219.137C486.191 227.968 479.024 235.075 470.223 235.075C461.422 235.075 454.285 227.968 454.255 219.107C454.255 210.276 461.422 203.169 470.223 203.169C479.024 203.169 486.191 210.276 486.191 219.137Z" fill="#F4F4D7"/>
<path opacity="0.2174" d="M485.707 219.137C485.707 227.696 478.781 234.591 470.222 234.591C461.694 234.591 454.769 227.696 454.738 219.107C454.738 210.548 461.694 203.653 470.222 203.653C478.781 203.623 485.707 210.548 485.707 219.137Z" fill="#F5F5D5"/>
<path opacity="0.2609" d="M485.223 219.137C485.223 227.423 478.509 234.107 470.193 234.107C461.906 234.107 455.192 227.423 455.192 219.107C455.192 210.79 461.906 204.106 470.193 204.106C478.509 204.106 485.223 210.82 485.223 219.137Z" fill="#F5F5D3"/>
<path opacity="0.3043" d="M484.74 219.137C484.74 227.182 478.238 233.654 470.193 233.654C462.179 233.654 455.677 227.182 455.677 219.137C455.677 211.093 462.179 204.621 470.223 204.621C478.238 204.59 484.74 211.093 484.74 219.137Z" fill="#F6F6D1"/>
<path opacity="0.3478" d="M484.286 219.137C484.286 226.909 477.995 233.17 470.223 233.17C462.481 233.17 456.19 226.909 456.16 219.107C456.16 211.334 462.451 205.074 470.223 205.074C477.965 205.074 484.255 211.334 484.286 219.137Z" fill="#F7F7CF"/>
<path opacity="0.3913" d="M483.802 219.137C483.802 226.637 477.724 232.686 470.223 232.686C462.754 232.686 456.675 226.637 456.645 219.107C456.645 211.607 462.723 205.558 470.223 205.558C477.724 205.558 483.802 211.607 483.802 219.137Z" fill="#F7F7CD"/>
<path opacity="0.4348" d="M483.318 219.137C483.318 226.365 477.451 232.202 470.223 232.202C462.995 232.202 457.158 226.365 457.128 219.107C457.128 211.879 462.995 206.012 470.223 206.012C477.451 206.012 483.318 211.879 483.318 219.137Z" fill="#F8F8CB"/>
<path opacity="0.4783" d="M482.834 219.137C482.834 226.123 477.178 231.748 470.222 231.748C463.267 231.748 457.611 226.123 457.611 219.137C457.611 212.151 463.267 206.526 470.222 206.526C477.178 206.496 482.834 212.151 482.834 219.137Z" fill="#F8F8C9"/>
<path opacity="0.5217" d="M482.38 219.137C482.38 225.851 476.937 231.264 470.223 231.264C463.539 231.264 458.096 225.851 458.096 219.137C458.096 212.423 463.539 207.01 470.253 207.01C476.937 206.98 482.35 212.393 482.38 219.137Z" fill="#F9F9C8"/>
<path opacity="0.5652" d="M481.897 219.107C481.897 225.548 476.665 230.75 470.223 230.75C463.782 230.75 458.58 225.548 458.55 219.076C458.55 212.635 463.782 207.433 470.223 207.433C476.665 207.463 481.867 212.665 481.897 219.107Z" fill="#F9F9C6"/>
<path opacity="0.6087" d="M481.413 219.107C481.413 225.276 476.392 230.266 470.223 230.266C464.053 230.266 459.063 225.276 459.033 219.077C459.033 212.907 464.053 207.917 470.223 207.917C476.392 207.947 481.413 212.937 481.413 219.107Z" fill="#FAFAC4"/>
<path opacity="0.6522" d="M480.929 219.107C480.929 225.034 476.121 229.813 470.223 229.813C464.326 229.813 459.548 225.034 459.518 219.107C459.518 213.179 464.326 208.401 470.223 208.401C476.121 208.401 480.929 213.209 480.929 219.107Z" fill="#FAFAC2"/>
<path opacity="0.6957" d="M480.445 219.107C480.445 224.762 475.848 229.329 470.223 229.329C464.568 229.329 460.001 224.762 460.001 219.107C460.001 213.451 464.598 208.885 470.223 208.885C475.878 208.885 480.445 213.451 480.445 219.107Z" fill="#FBFBC0"/>
<path opacity="0.7391" d="M479.992 219.107C479.992 224.49 475.607 228.845 470.254 228.845C464.871 228.845 460.516 224.49 460.516 219.107C460.516 213.724 464.871 209.369 470.254 209.369C475.607 209.369 479.962 213.724 479.992 219.107Z" fill="#FCFCBE"/>
<path opacity="0.7826" d="M479.507 219.107C479.507 224.218 475.334 228.361 470.223 228.361C465.112 228.361 460.969 224.218 460.969 219.107C460.969 213.996 465.112 209.853 470.253 209.853C475.334 209.853 479.507 213.996 479.507 219.107Z" fill="#FCFCBC"/>
<path opacity="0.8261" d="M479.024 219.107C479.024 223.976 475.092 227.877 470.223 227.877C465.385 227.877 461.423 223.946 461.423 219.076C461.423 214.238 465.354 210.276 470.223 210.276C475.062 210.306 479.024 214.268 479.024 219.107Z" fill="#FDFDBA"/>
<path opacity="0.8696" d="M478.54 219.107C478.54 223.704 474.82 227.423 470.223 227.423C465.626 227.423 461.906 223.704 461.906 219.107C461.906 214.51 465.626 210.79 470.223 210.79C474.82 210.79 478.54 214.51 478.54 219.107Z" fill="#FDFDB8"/>
<path opacity="0.913" d="M478.056 219.107C478.056 223.431 474.548 226.94 470.223 226.94C465.899 226.94 462.391 223.431 462.391 219.107C462.391 214.782 465.899 211.274 470.223 211.274C474.548 211.274 478.056 214.782 478.056 219.107Z" fill="#FEFEB6"/>
<path opacity="0.9565" d="M477.602 219.107C477.602 223.159 474.306 226.456 470.253 226.456C466.201 226.456 462.904 223.159 462.904 219.107C462.904 215.054 466.201 211.758 470.253 211.758C474.275 211.758 477.572 215.054 477.602 219.107Z" fill="#FEFEB4"/>
<path opacity="0.7" d="M477.119 219.107C477.089 222.887 474.034 225.972 470.254 225.972C466.443 225.972 463.389 222.887 463.389 219.107C463.389 215.326 466.473 212.242 470.254 212.242C474.034 212.242 477.089 215.326 477.119 219.107Z" fill="#FFFFB2"/>
</g>
<path d="M50.9412 219.107C50.9412 224.188 46.8585 228.331 41.7777 228.301C36.7272 228.301 32.584 224.188 32.584 219.107C32.6142 214.087 36.697 209.944 41.7475 209.944C46.8585 209.913 50.9412 214.057 50.9412 219.107Z" fill="#F2F2D0"/>
<path d="M45.8308 214.419C45.1352 218.804 41.3549 222.161 36.758 222.161C36.5463 222.161 36.2741 222.07 36.002 222.101C37.0302 224.338 39.2681 225.881 41.8992 225.881C45.4679 225.911 48.3712 223.008 48.4014 219.439C48.4014 217.352 47.3429 215.568 45.8308 214.419Z" fill="#D6A651"/>
<g opacity="0.7">
<path opacity="0.0434783" d="M59.1676 219.137C59.1676 228.754 51.365 236.496 41.7479 236.496C32.161 236.496 24.3886 228.754 24.3584 219.107C24.3584 209.459 32.161 201.717 41.7479 201.717C51.365 201.717 59.1676 209.49 59.1676 219.137Z" fill="#F3F3DD"/>
<path opacity="0.0869565" d="M58.6832 219.137C58.6832 228.482 51.0923 236.012 41.7474 236.012C32.4327 236.012 24.8418 228.482 24.8418 219.107C24.8418 209.732 32.4327 202.201 41.7776 202.201C51.1226 202.201 58.6832 209.762 58.6832 219.137Z" fill="#F3F3DB"/>
<path opacity="0.1304" d="M58.1998 219.137C58.1998 228.24 50.8206 235.559 41.7479 235.559C32.7054 235.559 25.3262 228.24 25.3262 219.107C25.3262 210.004 32.7054 202.685 41.7781 202.685C50.8509 202.685 58.1998 210.034 58.1998 219.137Z" fill="#F4F4D9"/>
<path opacity="0.1739" d="M57.7457 219.137C57.7457 227.968 50.6085 235.075 41.7776 235.075C32.9771 235.075 25.8398 227.968 25.8096 219.107C25.8096 210.276 32.9468 203.169 41.7776 203.169C50.5782 203.169 57.7155 210.276 57.7457 219.137Z" fill="#F4F4D7"/>
<path opacity="0.2174" d="M57.2613 219.137C57.2613 227.696 50.3358 234.591 41.7772 234.591C33.2488 234.591 26.3232 227.696 26.293 219.107C26.293 210.548 33.2185 203.653 41.7772 203.653C50.3055 203.623 57.2613 210.548 57.2613 219.137Z" fill="#F5F5D5"/>
<path opacity="0.2609" d="M56.7779 219.137C56.7779 227.423 50.0641 234.107 41.7474 234.107C33.4912 234.107 26.7773 227.423 26.7471 219.107C26.7471 210.79 33.4609 204.106 41.7474 204.106C50.0641 204.106 56.7779 210.82 56.7779 219.137Z" fill="#F5F5D3"/>
<path opacity="0.3043" d="M56.2945 219.137C56.2945 227.182 49.7924 233.654 41.7479 233.654C33.7336 233.654 27.2314 227.182 27.2314 219.137C27.2314 211.093 33.7336 204.621 41.7781 204.621C49.7924 204.59 56.2945 211.093 56.2945 219.137Z" fill="#F6F6D1"/>
<path opacity="0.3478" d="M55.8102 219.137C55.8102 226.909 49.5197 233.17 41.7474 233.17C34.0053 233.17 27.7148 226.909 27.7148 219.107C27.7148 211.334 34.0053 205.074 41.7776 205.074C49.5197 205.074 55.8102 211.334 55.8102 219.137Z" fill="#F7F7CF"/>
<path opacity="0.3913" d="M55.357 219.137C55.357 226.637 49.2783 232.686 41.7781 232.686C34.3082 232.686 28.2295 226.637 28.1992 219.107C28.1992 211.607 34.278 205.558 41.7781 205.558C49.2783 205.558 55.3268 211.607 55.357 219.137Z" fill="#F7F7CD"/>
<path opacity="0.4348" d="M54.8727 219.137C54.8727 226.365 49.0056 232.202 41.7776 232.202C34.5497 232.202 28.7129 226.365 28.6826 219.107C28.6826 211.879 34.5497 206.012 41.7776 206.012C49.0056 206.012 54.8424 211.879 54.8727 219.137Z" fill="#F8F8CB"/>
<path opacity="0.4783" d="M54.3883 219.137C54.3883 226.123 48.7329 231.748 41.7772 231.748C34.8214 231.748 29.1963 226.123 29.166 219.137C29.166 212.151 34.8214 206.526 41.7772 206.526C48.7329 206.496 54.3883 212.151 54.3883 219.137Z" fill="#F8F8C9"/>
<path opacity="0.5217" d="M53.9049 219.137C53.9049 225.851 48.4612 231.264 41.7474 231.264C35.0638 231.264 29.6201 225.851 29.6201 219.137C29.6201 212.423 35.0638 207.01 41.7474 207.01C48.4612 206.98 53.9049 212.393 53.9049 219.137Z" fill="#F9F9C8"/>
<path opacity="0.5652" d="M53.4215 219.107C53.4215 225.548 48.1895 230.75 41.7479 230.75C35.3365 230.75 30.1045 225.548 30.1045 219.076C30.1045 212.635 35.3365 207.433 41.7781 207.433C48.2198 207.463 53.4215 212.665 53.4215 219.107Z" fill="#F9F9C6"/>
<path opacity="0.6087" d="M52.9674 219.107C52.9674 225.276 47.9471 230.266 41.7776 230.266C35.6082 230.266 30.6181 225.276 30.5879 219.077C30.5879 212.907 35.6082 207.917 41.7776 207.917C47.9471 207.947 52.9371 212.937 52.9674 219.107Z" fill="#FAFAC4"/>
<path opacity="0.6522" d="M52.484 219.107C52.484 225.034 47.6754 229.813 41.7781 229.813C35.8808 229.813 31.1025 225.034 31.0723 219.107C31.0723 213.179 35.8808 208.401 41.7781 208.401C47.6754 208.401 52.4538 213.209 52.484 219.107Z" fill="#FAFAC2"/>
<path opacity="0.6957" d="M51.9996 219.107C51.9996 224.762 47.4028 229.329 41.7776 229.329C36.1525 229.329 31.5859 224.762 31.5557 219.107C31.5557 213.451 36.1525 208.885 41.7776 208.885C47.4028 208.885 51.9996 213.451 51.9996 219.107Z" fill="#FBFBC0"/>
<path opacity="0.7391" d="M51.5153 219.107C51.5153 224.49 47.1603 228.845 41.7772 228.845C36.394 228.845 32.0391 224.49 32.0391 219.107C32.0391 213.724 36.394 209.369 41.7772 209.369C47.1603 209.369 51.5153 213.724 51.5153 219.107Z" fill="#FCFCBE"/>
<path opacity="0.7826" d="M51.0318 219.107C51.0318 224.218 46.8886 228.361 41.7474 228.361C36.6364 228.361 32.4932 224.218 32.4932 219.107C32.4932 213.996 36.6364 209.853 41.7474 209.853C46.8886 209.853 51.0318 213.996 51.0318 219.107Z" fill="#FCFCBC"/>
<path opacity="0.8261" d="M50.5778 219.107C50.5778 223.976 46.6462 227.877 41.7772 227.877C36.9384 227.877 33.0068 223.946 33.0068 219.076C33.0068 214.238 36.9384 210.276 41.8074 210.276C46.616 210.306 50.5475 214.268 50.5778 219.107Z" fill="#FDFDBA"/>
<path opacity="0.8696" d="M50.0943 219.107C50.0943 223.704 46.3745 227.423 41.7776 227.423C37.211 227.423 33.4609 223.704 33.4609 219.107C33.4609 214.51 37.1808 210.79 41.7776 210.79C46.3745 210.79 50.0943 214.51 50.0943 219.107Z" fill="#FDFDB8"/>
<path opacity="0.913" d="M49.6109 219.107C49.6109 223.431 46.1028 226.94 41.7781 226.94C37.4534 226.94 33.9453 223.431 33.9453 219.107C33.9453 214.782 37.4534 211.274 41.7781 211.274C46.1028 211.274 49.6109 214.782 49.6109 219.107Z" fill="#FEFEB6"/>
<path opacity="0.9565" d="M49.1266 219.107C49.1266 223.159 45.8302 226.456 41.7777 226.456C37.7251 226.456 34.4287 223.159 34.4287 219.107C34.4287 215.054 37.7251 211.758 41.7777 211.758C45.8302 211.758 49.1266 215.054 49.1266 219.107Z" fill="#FEFEB4"/>
<path opacity="0.7" d="M48.6422 219.107C48.6422 222.887 45.5575 225.972 41.7772 225.972C37.9968 225.972 34.9121 222.887 34.9121 219.107C34.9121 215.326 37.9968 212.242 41.7772 212.242C45.5575 212.242 48.6422 215.326 48.6422 219.107Z" fill="#FFFFB2"/>
</g>
<path d="M477.723 400.411C477.723 405.492 473.641 409.635 468.56 409.605C463.509 409.605 459.396 405.492 459.396 400.411C459.396 395.391 463.509 391.248 468.56 391.248C473.641 391.217 477.723 395.361 477.723 400.411Z" fill="#F2F2D0"/>
<path d="M472.613 395.724C471.948 400.079 468.137 403.435 463.54 403.435C463.329 403.435 463.056 403.345 462.784 403.375C463.812 405.613 466.081 407.155 468.681 407.155C472.25 407.186 475.153 404.282 475.184 400.714C475.184 398.627 474.155 396.873 472.613 395.724Z" fill="#D6A651"/>
<g opacity="0.7">
<path opacity="0.0434783" d="M485.95 400.442C485.95 410.059 478.147 417.801 468.53 417.801C458.943 417.801 451.141 410.059 451.141 400.411C451.141 390.764 458.943 383.022 468.53 383.022C478.147 383.022 485.95 390.794 485.95 400.442Z" fill="#F3F3DD"/>
<path opacity="0.0869565" d="M485.465 400.441C485.465 409.786 477.875 417.317 468.53 417.317C459.215 417.317 451.624 409.786 451.624 400.411C451.624 391.036 459.215 383.505 468.53 383.505C477.905 383.505 485.465 391.036 485.465 400.441Z" fill="#F3F3DB"/>
<path opacity="0.1304" d="M485.012 400.441C485.012 409.544 477.633 416.863 468.56 416.863C459.518 416.863 452.139 409.544 452.139 400.411C452.139 391.308 459.518 383.989 468.591 383.989C477.633 383.989 484.982 391.308 485.012 400.441Z" fill="#F4F4D9"/>
<path opacity="0.1739" d="M484.528 400.441C484.528 409.272 477.391 416.379 468.56 416.379C459.759 416.379 452.622 409.272 452.592 400.411C452.592 391.58 459.759 384.473 468.56 384.473C477.36 384.443 484.528 391.58 484.528 400.441Z" fill="#F4F4D7"/>
<path opacity="0.2174" d="M484.044 400.441C484.044 409 477.119 415.895 468.56 415.895C460.032 415.895 453.106 409 453.076 400.411C453.076 391.852 460.002 384.927 468.56 384.927C477.119 384.927 484.044 391.852 484.044 400.441Z" fill="#F5F5D5"/>
<path opacity="0.2609" d="M483.56 400.411C483.56 408.697 476.846 415.381 468.53 415.381C460.273 415.381 453.529 408.697 453.529 400.381C453.529 392.064 460.243 385.38 468.53 385.38C476.846 385.411 483.56 392.094 483.56 400.411Z" fill="#F5F5D3"/>
<path opacity="0.3043" d="M483.077 400.411C483.077 408.455 476.575 414.927 468.53 414.927C460.516 414.927 454.014 408.455 454.014 400.411C454.014 392.366 460.516 385.895 468.53 385.895C476.575 385.895 483.077 392.366 483.077 400.411Z" fill="#F6F6D1"/>
<path opacity="0.3478" d="M482.623 400.411C482.623 408.184 476.332 414.444 468.56 414.444C460.818 414.444 454.527 408.184 454.527 400.381C454.527 392.609 460.818 386.349 468.59 386.349C476.302 386.349 482.592 392.639 482.623 400.411Z" fill="#F7F7CF"/>
<path opacity="0.3913" d="M482.139 400.411C482.139 407.911 476.06 413.96 468.56 413.96C461.09 413.96 455.012 407.911 454.981 400.381C454.981 392.881 461.06 386.832 468.56 386.832C476.06 386.832 482.109 392.911 482.139 400.411Z" fill="#F7F7CD"/>
<path opacity="0.4348" d="M481.655 400.411C481.655 407.639 475.788 413.476 468.56 413.476C461.362 413.476 455.495 407.639 455.465 400.381C455.465 393.122 461.332 387.286 468.56 387.286C475.788 387.316 481.655 393.183 481.655 400.411Z" fill="#F8F8CB"/>
<path opacity="0.4783" d="M481.171 400.411C481.171 407.367 475.515 413.022 468.559 413.022C461.604 413.022 455.948 407.397 455.948 400.411C455.948 393.425 461.604 387.8 468.559 387.8C475.515 387.8 481.171 393.425 481.171 400.411Z" fill="#F8F8C9"/>
<path opacity="0.5217" d="M480.687 400.411C480.687 407.125 475.243 412.538 468.53 412.538C461.846 412.538 456.402 407.125 456.402 400.411C456.402 393.697 461.846 388.284 468.53 388.284C475.243 388.284 480.687 393.697 480.687 400.411Z" fill="#F9F9C8"/>
<path opacity="0.5652" d="M480.233 400.411C480.233 406.853 475.001 412.054 468.559 412.054C462.148 412.054 456.916 406.853 456.916 400.381C456.916 393.939 462.148 388.737 468.59 388.737C475.001 388.737 480.203 393.969 480.233 400.411Z" fill="#F9F9C6"/>
<path opacity="0.6087" d="M479.75 400.411C479.75 406.581 474.729 411.571 468.56 411.571C462.39 411.571 457.4 406.581 457.37 400.381C457.37 394.212 462.39 389.222 468.56 389.222C474.729 389.222 479.75 394.242 479.75 400.411Z" fill="#FAFAC4"/>
<path opacity="0.6522" d="M479.266 400.411C479.266 406.308 474.458 411.117 468.56 411.117C462.663 411.117 457.885 406.338 457.854 400.411C457.854 394.483 462.663 389.705 468.56 389.705C474.458 389.705 479.266 394.483 479.266 400.411Z" fill="#FAFAC2"/>
<path opacity="0.6957" d="M478.782 400.411C478.782 406.066 474.185 410.633 468.56 410.633C462.935 410.633 458.338 406.066 458.338 400.411C458.338 394.756 462.935 390.189 468.56 390.189C474.215 390.189 478.782 394.756 478.782 400.411Z" fill="#FBFBC0"/>
<path opacity="0.7391" d="M478.297 400.411C478.297 405.794 473.943 410.149 468.559 410.149C463.206 410.149 458.821 405.794 458.821 400.411C458.821 395.028 463.206 390.673 468.559 390.673C473.943 390.673 478.297 395.028 478.297 400.411Z" fill="#FCFCBE"/>
<path opacity="0.7826" d="M477.844 400.411C477.844 405.522 473.701 409.665 468.56 409.665C463.449 409.665 459.306 405.522 459.306 400.411C459.306 395.3 463.479 391.157 468.56 391.157C473.671 391.127 477.814 395.3 477.844 400.411Z" fill="#FCFCBC"/>
<path opacity="0.8261" d="M477.361 400.411C477.361 405.25 473.429 409.181 468.56 409.181C463.722 409.181 459.76 405.25 459.76 400.381C459.76 395.542 463.691 391.58 468.56 391.58C473.399 391.61 477.361 395.542 477.361 400.411Z" fill="#FDFDBA"/>
<path opacity="0.8696" d="M476.877 400.411C476.877 405.008 473.157 408.728 468.56 408.728C463.993 408.728 460.243 405.008 460.243 400.411C460.243 395.815 463.963 392.095 468.56 392.095C473.157 392.095 476.877 395.815 476.877 400.411Z" fill="#FDFDB8"/>
<path opacity="0.913" d="M476.393 400.411C476.393 404.736 472.885 408.244 468.56 408.244C464.236 408.244 460.728 404.736 460.728 400.411C460.728 396.086 464.236 392.578 468.56 392.578C472.885 392.578 476.393 396.086 476.393 400.411Z" fill="#FEFEB6"/>
<path opacity="0.9565" d="M475.909 400.411C475.909 404.464 472.612 407.76 468.56 407.76C464.507 407.76 461.211 404.464 461.211 400.411C461.211 396.359 464.507 393.062 468.56 393.062C472.612 393.032 475.909 396.359 475.909 400.411Z" fill="#FEFEB4"/>
<path opacity="0.7" d="M475.456 400.411C475.425 404.191 472.371 407.276 468.591 407.276C464.81 407.276 461.726 404.191 461.726 400.411C461.726 396.63 464.81 393.546 468.591 393.546C472.371 393.515 475.425 396.6 475.456 400.411Z" fill="#FFFFB2"/>
</g>
<path d="M50.9412 400.411C50.9412 405.492 46.8585 409.635 41.7777 409.605C36.7272 409.605 32.584 405.492 32.584 400.411C32.6142 395.391 36.697 391.248 41.7475 391.248C46.8585 391.217 50.9412 395.361 50.9412 400.411Z" fill="#F2F2D0"/>
<path d="M45.8308 395.724C45.1352 400.079 41.3549 403.435 36.758 403.435C36.5463 403.435 36.2741 403.345 36.002 403.375C37.0302 405.613 39.2681 407.155 41.8992 407.155C45.4679 407.186 48.3712 404.282 48.4014 400.714C48.4014 398.627 47.3429 396.873 45.8308 395.724Z" fill="#D6A651"/>
<g opacity="0.7">
<path opacity="0.0434783" d="M59.1676 400.442C59.1676 410.059 51.365 417.801 41.7479 417.801C32.161 417.801 24.3886 410.059 24.3584 400.411C24.3584 390.764 32.161 383.022 41.7479 383.022C51.365 383.022 59.1676 390.794 59.1676 400.442Z" fill="#F3F3DD"/>
<path opacity="0.0869565" d="M58.6832 400.441C58.6832 409.786 51.0923 417.317 41.7474 417.317C32.4327 417.317 24.8418 409.786 24.8418 400.411C24.8418 391.036 32.4327 383.505 41.7776 383.505C51.1226 383.505 58.6832 391.036 58.6832 400.441Z" fill="#F3F3DB"/>
<path opacity="0.1304" d="M58.1998 400.441C58.1998 409.544 50.8206 416.863 41.7479 416.863C32.7054 416.863 25.3262 409.544 25.3262 400.411C25.3262 391.308 32.7054 383.989 41.7781 383.989C50.8509 383.989 58.1998 391.308 58.1998 400.441Z" fill="#F4F4D9"/>
<path opacity="0.1739" d="M57.7457 400.441C57.7457 409.272 50.6085 416.379 41.7776 416.379C32.9771 416.379 25.8398 409.272 25.8096 400.411C25.8096 391.58 32.9468 384.473 41.7776 384.473C50.5782 384.443 57.7155 391.58 57.7457 400.441Z" fill="#F4F4D7"/>
<path opacity="0.2174" d="M57.2613 400.441C57.2613 409 50.3358 415.895 41.7772 415.895C33.2488 415.895 26.3232 409 26.293 400.411C26.293 391.852 33.2185 384.927 41.7772 384.927C50.3055 384.927 57.2613 391.852 57.2613 400.441Z" fill="#F5F5D5"/>
<path opacity="0.2609" d="M56.7779 400.411C56.7779 408.697 50.0641 415.381 41.7474 415.381C33.4912 415.381 26.7773 408.697 26.7471 400.381C26.7471 392.064 33.4609 385.38 41.7474 385.38C50.0641 385.411 56.7779 392.094 56.7779 400.411Z" fill="#F5F5D3"/>
<path opacity="0.3043" d="M56.2945 400.411C56.2945 408.455 49.7924 414.927 41.7479 414.927C33.7336 414.927 27.2314 408.455 27.2314 400.411C27.2314 392.366 33.7336 385.895 41.7781 385.895C49.7924 385.895 56.2945 392.366 56.2945 400.411Z" fill="#F6F6D1"/>
<path opacity="0.3478" d="M55.8102 400.411C55.8102 408.184 49.5197 414.444 41.7474 414.444C34.0053 414.444 27.7148 408.184 27.7148 400.381C27.7148 392.609 34.0053 386.349 41.7776 386.349C49.5197 386.349 55.8102 392.639 55.8102 400.411Z" fill="#F7F7CF"/>
<path opacity="0.3913" d="M55.357 400.411C55.357 407.911 49.2783 413.96 41.7781 413.96C34.3082 413.96 28.2295 407.911 28.1992 400.381C28.1992 392.881 34.278 386.832 41.7781 386.832C49.2783 386.832 55.3268 392.911 55.357 400.411Z" fill="#F7F7CD"/>
<path opacity="0.4348" d="M54.8727 400.411C54.8727 407.639 49.0056 413.476 41.7776 413.476C34.5497 413.476 28.7129 407.639 28.6826 400.381C28.6826 393.122 34.5497 387.286 41.7776 387.286C49.0056 387.316 54.8424 393.183 54.8727 400.411Z" fill="#F8F8CB"/>
<path opacity="0.4783" d="M54.3883 400.411C54.3883 407.367 48.7329 413.022 41.7772 413.022C34.8214 413.022 29.1963 407.397 29.166 400.411C29.166 393.425 34.8214 387.8 41.7772 387.8C48.7329 387.8 54.3883 393.425 54.3883 400.411Z" fill="#F8F8C9"/>
<path opacity="0.5217" d="M53.9049 400.411C53.9049 407.125 48.4612 412.538 41.7474 412.538C35.0638 412.538 29.6201 407.125 29.6201 400.411C29.6201 393.697 35.0638 388.284 41.7474 388.284C48.4612 388.284 53.9049 393.697 53.9049 400.411Z" fill="#F9F9C8"/>
<path opacity="0.5652" d="M53.4215 400.411C53.4215 406.853 48.1895 412.054 41.7479 412.054C35.3365 412.054 30.1045 406.853 30.1045 400.381C30.1045 393.939 35.3365 388.737 41.7781 388.737C48.2198 388.737 53.4215 393.969 53.4215 400.411Z" fill="#F9F9C6"/>
<path opacity="0.6087" d="M52.9674 400.411C52.9674 406.581 47.9471 411.571 41.7776 411.571C35.6082 411.571 30.6181 406.581 30.5879 400.381C30.5879 394.212 35.6082 389.222 41.7776 389.222C47.9471 389.222 52.9371 394.242 52.9674 400.411Z" fill="#FAFAC4"/>
<path opacity="0.6522" d="M52.484 400.411C52.484 406.308 47.6754 411.117 41.7781 411.117C35.8808 411.117 31.1025 406.338 31.0723 400.411C31.0723 394.483 35.8808 389.705 41.7781 389.705C47.6754 389.705 52.4538 394.483 52.484 400.411Z" fill="#FAFAC2"/>
<path opacity="0.6957" d="M51.9996 400.411C51.9996 406.066 47.4028 410.633 41.7776 410.633C36.1525 410.633 31.5859 406.066 31.5557 400.411C31.5557 394.756 36.1525 390.189 41.7776 390.189C47.4028 390.189 51.9996 394.756 51.9996 400.411Z" fill="#FBFBC0"/>
<path opacity="0.7391" d="M51.5153 400.411C51.5153 405.794 47.1603 410.149 41.7772 410.149C36.394 410.149 32.0391 405.794 32.0391 400.411C32.0391 395.028 36.394 390.673 41.7772 390.673C47.1603 390.673 51.5153 395.028 51.5153 400.411Z" fill="#FCFCBE"/>
<path opacity="0.7826" d="M51.0318 400.411C51.0318 405.522 46.8886 409.665 41.7474 409.665C36.6364 409.665 32.4932 405.522 32.4932 400.411C32.4932 395.3 36.6364 391.157 41.7474 391.157C46.8886 391.127 51.0318 395.3 51.0318 400.411Z" fill="#FCFCBC"/>
<path opacity="0.8261" d="M50.5778 400.411C50.5778 405.25 46.6462 409.181 41.7772 409.181C36.9384 409.181 33.0068 405.25 33.0068 400.381C33.0068 395.542 36.9384 391.58 41.8074 391.58C46.616 391.61 50.5475 395.542 50.5778 400.411Z" fill="#FDFDBA"/>
<path opacity="0.8696" d="M50.0943 400.411C50.0943 405.008 46.3745 408.728 41.7776 408.728C37.211 408.728 33.4609 405.008 33.4609 400.411C33.4609 395.815 37.1808 392.095 41.7776 392.095C46.3745 392.095 50.0943 395.815 50.0943 400.411Z" fill="#FDFDB8"/>
<path opacity="0.913" d="M49.6109 400.411C49.6109 404.736 46.1028 408.244 41.7781 408.244C37.4534 408.244 33.9453 404.736 33.9453 400.411C33.9453 396.086 37.4534 392.578 41.7781 392.578C46.1028 392.578 49.6109 396.086 49.6109 400.411Z" fill="#FEFEB6"/>
<path opacity="0.9565" d="M49.1266 400.411C49.1266 404.464 45.8302 407.76 41.7777 407.76C37.7251 407.76 34.4287 404.464 34.4287 400.411C34.4287 396.359 37.7251 393.062 41.7777 393.062C45.8302 393.032 49.1266 396.359 49.1266 400.411Z" fill="#FEFEB4"/>
<path opacity="0.7" d="M48.6422 400.411C48.6422 404.191 45.5575 407.276 41.7772 407.276C37.9968 407.276 34.9121 404.191 34.9121 400.411C34.9121 396.63 37.9968 393.546 41.7772 393.546C45.5575 393.515 48.6422 396.6 48.6422 400.411Z" fill="#FFFFB2"/>
</g>
<path d="M355.09 522.561C355.09 527.641 351.007 531.785 345.926 531.754C340.876 531.754 336.763 527.641 336.763 522.561C336.793 517.54 340.876 513.397 345.926 513.397C350.977 513.367 355.09 517.51 355.09 522.561Z" fill="#F2F2D0"/>
<path d="M349.978 517.873C349.283 522.228 345.502 525.615 340.905 525.615C340.664 525.615 340.422 525.524 340.149 525.555C341.178 527.793 343.416 529.335 346.047 529.335C349.615 529.365 352.519 526.462 352.549 522.893C352.549 520.807 351.49 519.022 349.978 517.873Z" fill="#D6A651"/>
<g opacity="0.7">
<path opacity="0.0434783" d="M363.315 522.591C363.315 532.208 355.512 539.95 345.895 539.95C336.308 539.95 328.536 532.208 328.506 522.56C328.506 512.913 336.308 505.171 345.895 505.171C355.512 505.201 363.315 512.943 363.315 522.591Z" fill="#F3F3DD"/>
<path opacity="0.0869565" d="M362.832 522.591C362.832 531.936 355.241 539.466 345.896 539.466C336.581 539.466 328.99 531.936 328.99 522.56C328.99 513.185 336.581 505.655 345.926 505.655C355.241 505.655 362.832 513.215 362.832 522.591Z" fill="#F3F3DB"/>
<path opacity="0.1304" d="M362.347 522.59C362.347 531.693 354.968 539.012 345.895 539.012C336.853 539.012 329.474 531.693 329.474 522.59C329.474 513.487 336.853 506.169 345.926 506.169C354.968 506.138 362.347 513.487 362.347 522.59Z" fill="#F4F4D9"/>
<path opacity="0.1739" d="M361.864 522.591C361.864 531.421 354.727 538.528 345.896 538.528C337.095 538.528 329.958 531.421 329.928 522.56C329.928 513.73 337.065 506.623 345.896 506.623C354.727 506.623 361.864 513.73 361.864 522.591Z" fill="#F4F4D7"/>
<path opacity="0.2174" d="M361.38 522.591C361.38 531.149 354.454 538.045 345.895 538.045C337.367 538.045 330.441 531.149 330.411 522.56C330.411 513.971 337.337 507.076 345.895 507.076C354.454 507.106 361.38 514.002 361.38 522.591Z" fill="#F5F5D5"/>
<path opacity="0.2609" d="M360.926 522.591C360.926 530.877 354.212 537.561 345.896 537.561C337.64 537.561 330.926 530.877 330.896 522.56C330.896 514.244 337.609 507.56 345.896 507.56C354.182 507.56 360.896 514.274 360.926 522.591Z" fill="#F5F5D3"/>
<path opacity="0.3043" d="M360.442 522.591C360.442 530.635 353.94 537.107 345.895 537.107C337.881 537.107 331.379 530.635 331.379 522.591C331.379 514.546 337.881 508.074 345.895 508.074C353.94 508.044 360.442 514.546 360.442 522.591Z" fill="#F6F6D1"/>
<path opacity="0.3478" d="M359.959 522.591C359.959 530.363 353.668 536.623 345.896 536.623C338.154 536.623 331.863 530.363 331.863 522.591C331.863 514.818 338.154 508.558 345.926 508.558C353.668 508.528 359.959 514.788 359.959 522.591Z" fill="#F7F7CF"/>
<path opacity="0.3913" d="M359.475 522.591C359.475 530.091 353.396 536.139 345.896 536.139C338.426 536.139 332.348 530.091 332.317 522.56C332.317 515.06 338.396 509.012 345.896 509.012C353.396 509.012 359.475 515.06 359.475 522.591Z" fill="#F7F7CD"/>
<path opacity="0.4348" d="M358.991 522.591C358.991 529.819 353.124 535.655 345.896 535.655C338.698 535.655 332.831 529.819 332.801 522.56C332.801 515.302 338.668 509.465 345.896 509.465C353.124 509.496 358.991 515.332 358.991 522.591Z" fill="#F8F8CB"/>
<path opacity="0.4783" d="M358.537 522.591C358.537 529.577 352.881 535.202 345.926 535.202C338.97 535.202 333.345 529.577 333.314 522.591C333.314 515.605 338.97 509.98 345.926 509.98C352.881 509.949 358.506 515.605 358.537 522.591Z" fill="#F8F8C9"/>
<path opacity="0.5217" d="M358.053 522.591C358.053 529.305 352.61 534.718 345.896 534.718C339.212 534.718 333.769 529.305 333.769 522.591C333.769 515.877 339.212 510.464 345.896 510.464C352.61 510.433 358.023 515.847 358.053 522.591Z" fill="#F9F9C8"/>
<path opacity="0.5652" d="M357.569 522.59C357.569 529.032 352.337 534.234 345.895 534.234C339.484 534.234 334.252 529.032 334.252 522.59C334.252 516.149 339.484 510.947 345.926 510.947C352.337 510.917 357.569 516.118 357.569 522.59Z" fill="#F9F9C6"/>
<path opacity="0.6087" d="M357.086 522.591C357.086 528.76 352.065 533.75 345.896 533.75C339.726 533.75 334.736 528.76 334.736 522.56C334.736 516.391 339.757 511.371 345.926 511.371C352.096 511.401 357.086 516.391 357.086 522.591Z" fill="#FAFAC4"/>
<path opacity="0.6522" d="M356.602 522.591C356.602 528.518 351.794 533.297 345.896 533.297C339.999 533.297 335.221 528.518 335.19 522.591C335.19 516.663 339.999 511.885 345.896 511.885C351.824 511.855 356.602 516.663 356.602 522.591Z" fill="#FAFAC2"/>
<path opacity="0.6957" d="M356.148 522.56C356.148 528.216 351.551 532.782 345.926 532.782C340.301 532.782 335.704 528.216 335.704 522.56C335.704 516.905 340.301 512.338 345.926 512.338C351.551 512.338 356.118 516.935 356.148 522.56Z" fill="#FBFBC0"/>
<path opacity="0.7391" d="M355.664 522.56C355.664 527.944 351.309 532.299 345.926 532.299C340.573 532.299 336.188 527.944 336.188 522.56C336.188 517.177 340.573 512.822 345.926 512.822C351.279 512.822 355.664 517.177 355.664 522.56Z" fill="#FCFCBE"/>
<path opacity="0.7826" d="M355.18 522.56C355.18 527.671 351.037 531.815 345.896 531.815C340.785 531.815 336.642 527.671 336.642 522.56C336.642 517.449 340.785 513.306 345.896 513.306C351.037 513.306 355.18 517.449 355.18 522.56Z" fill="#FCFCBC"/>
<path opacity="0.8261" d="M354.696 522.56C354.696 527.399 350.764 531.331 345.895 531.331C341.057 531.331 337.125 527.399 337.125 522.53C337.125 517.691 341.057 513.729 345.926 513.729C350.764 513.79 354.696 517.722 354.696 522.56Z" fill="#FDFDBA"/>
<path opacity="0.8696" d="M354.212 522.56C354.212 527.157 350.493 530.877 345.896 530.877C341.329 530.877 337.609 527.157 337.579 522.56C337.579 517.963 341.299 514.244 345.896 514.244C350.493 514.244 354.212 517.994 354.212 522.56Z" fill="#FDFDB8"/>
<path opacity="0.913" d="M353.758 522.56C353.758 526.885 350.25 530.393 345.926 530.393C341.601 530.393 338.093 526.885 338.093 522.56C338.093 518.236 341.601 514.728 345.926 514.728C350.22 514.728 353.728 518.236 353.758 522.56Z" fill="#FEFEB6"/>
<path opacity="0.9565" d="M353.275 522.56C353.275 526.613 349.979 529.909 345.926 529.909C341.874 529.909 338.577 526.613 338.577 522.56C338.577 518.508 341.874 515.211 345.926 515.211C349.979 515.211 353.275 518.508 353.275 522.56Z" fill="#FEFEB4"/>
<path opacity="0.7" d="M352.791 522.56C352.791 526.341 349.706 529.425 345.926 529.425C342.145 529.425 339.061 526.341 339.061 522.56C339.061 518.78 342.145 515.695 345.926 515.695C349.706 515.695 352.76 518.78 352.791 522.56Z" fill="#FFFFB2"/>
</g>
<path d="M174.754 522.561C174.754 527.641 170.671 531.785 165.59 531.754C160.54 531.754 156.427 527.641 156.427 522.561C156.457 517.54 160.54 513.397 165.59 513.397C170.641 513.367 174.754 517.51 174.754 522.561Z" fill="#F2F2D0"/>
<path d="M169.643 517.873C168.948 522.228 165.167 525.615 160.571 525.615C160.359 525.615 160.087 525.524 159.814 525.555C160.843 527.793 163.081 529.335 165.712 529.335C169.28 529.365 172.184 526.462 172.214 522.893C172.214 520.807 171.155 519.022 169.643 517.873Z" fill="#D6A651"/>
<g opacity="0.7">
<path opacity="0.0434783" d="M182.98 522.591C182.98 532.208 175.177 539.95 165.56 539.95C155.973 539.95 148.171 532.208 148.171 522.56C148.171 512.913 155.973 505.171 165.56 505.171C175.177 505.201 182.98 512.943 182.98 522.591Z" fill="#F3F3DD"/>
<path opacity="0.0869565" d="M182.496 522.591C182.496 531.936 174.905 539.466 165.56 539.466C156.245 539.466 148.654 531.936 148.654 522.56C148.654 513.185 156.245 505.655 165.59 505.655C174.905 505.655 182.496 513.215 182.496 522.591Z" fill="#F3F3DB"/>
<path opacity="0.1304" d="M182.012 522.59C182.012 531.693 174.633 539.012 165.56 539.012C156.488 539.012 149.139 531.693 149.139 522.59C149.139 513.487 156.518 506.169 165.591 506.169C174.663 506.138 182.012 513.487 182.012 522.59Z" fill="#F4F4D9"/>
<path opacity="0.1739" d="M181.528 522.591C181.528 531.421 174.391 538.528 165.56 538.528C156.759 538.528 149.622 531.421 149.592 522.56C149.592 513.73 156.759 506.623 165.56 506.623C174.391 506.623 181.528 513.73 181.528 522.591Z" fill="#F4F4D7"/>
<path opacity="0.2174" d="M181.074 522.591C181.074 531.149 174.148 538.045 165.59 538.045C157.061 538.045 150.136 531.149 150.105 522.56C150.105 513.971 157.031 507.076 165.59 507.076C174.118 507.106 181.044 514.002 181.074 522.591Z" fill="#F5F5D5"/>
<path opacity="0.2609" d="M180.59 522.591C180.59 530.877 173.877 537.561 165.56 537.561C157.304 537.561 150.56 530.877 150.56 522.56C150.56 514.244 157.273 507.56 165.56 507.56C173.877 507.56 180.59 514.274 180.59 522.591Z" fill="#F5F5D3"/>
<path opacity="0.3043" d="M180.107 522.591C180.107 530.635 173.605 537.107 165.56 537.107C157.546 537.107 151.044 530.635 151.044 522.591C151.044 514.546 157.546 508.074 165.591 508.074C173.605 508.044 180.107 514.546 180.107 522.591Z" fill="#F6F6D1"/>
<path opacity="0.3478" d="M179.623 522.591C179.623 530.363 173.332 536.623 165.56 536.623C157.818 536.623 151.527 530.363 151.527 522.591C151.527 514.818 157.818 508.558 165.59 508.558C173.332 508.528 179.623 514.788 179.623 522.591Z" fill="#F7F7CF"/>
<path opacity="0.3913" d="M179.138 522.591C179.138 530.091 173.06 536.139 165.559 536.139C158.089 536.139 152.011 530.091 151.98 522.56C151.98 515.06 158.059 509.012 165.559 509.012C173.06 509.012 179.138 515.06 179.138 522.591Z" fill="#F7F7CD"/>
<path opacity="0.4348" d="M178.685 522.591C178.685 529.819 172.818 535.655 165.59 535.655C158.362 535.655 152.525 529.819 152.495 522.56C152.495 515.302 158.362 509.465 165.59 509.465C172.818 509.496 178.655 515.332 178.685 522.591Z" fill="#F8F8CB"/>
<path opacity="0.4783" d="M178.201 522.591C178.201 529.577 172.545 535.202 165.59 535.202C158.634 535.202 152.979 529.577 152.979 522.591C152.979 515.605 158.634 509.98 165.59 509.98C172.545 509.949 178.171 515.605 178.201 522.591Z" fill="#F8F8C9"/>
<path opacity="0.5217" d="M177.717 522.591C177.717 529.305 172.274 534.718 165.56 534.718C158.876 534.718 153.433 529.305 153.433 522.591C153.433 515.877 158.876 510.464 165.56 510.464C172.274 510.433 177.717 515.847 177.717 522.591Z" fill="#F9F9C8"/>
<path opacity="0.5652" d="M177.234 522.59C177.234 529.032 172.002 534.234 165.56 534.234C159.149 534.234 153.917 529.032 153.917 522.59C153.917 516.149 159.149 510.947 165.591 510.947C172.002 510.917 177.234 516.118 177.234 522.59Z" fill="#F9F9C6"/>
<path opacity="0.6087" d="M176.75 522.591C176.75 528.76 171.729 533.75 165.56 533.75C159.39 533.75 154.4 528.76 154.37 522.56C154.37 516.391 159.39 511.371 165.56 511.371C171.76 511.401 176.75 516.391 176.75 522.591Z" fill="#FAFAC4"/>
<path opacity="0.6522" d="M176.296 522.591C176.296 528.518 171.488 533.297 165.591 533.297C159.693 533.297 154.915 528.518 154.885 522.591C154.885 516.663 159.693 511.885 165.591 511.885C171.488 511.855 176.266 516.663 176.296 522.591Z" fill="#FAFAC2"/>
<path opacity="0.6957" d="M175.812 522.56C175.812 528.216 171.215 532.782 165.59 532.782C159.965 532.782 155.368 528.216 155.368 522.56C155.368 516.905 159.965 512.338 165.59 512.338C171.215 512.338 175.812 516.935 175.812 522.56Z" fill="#FBFBC0"/>
<path opacity="0.7391" d="M175.328 522.56C175.328 527.944 170.943 532.299 165.59 532.299C160.207 532.299 155.852 527.944 155.852 522.56C155.852 517.177 160.237 512.822 165.59 512.822C170.973 512.822 175.328 517.177 175.328 522.56Z" fill="#FCFCBE"/>
<path opacity="0.7826" d="M174.844 522.56C174.844 527.671 170.701 531.815 165.56 531.815C160.449 531.815 156.306 527.671 156.306 522.56C156.306 517.449 160.449 513.306 165.56 513.306C170.701 513.306 174.844 517.449 174.844 522.56Z" fill="#FCFCBC"/>
<path opacity="0.8261" d="M174.361 522.56C174.361 527.399 170.429 531.331 165.56 531.331C160.722 531.331 156.79 527.399 156.79 522.53C156.79 517.691 160.722 513.729 165.591 513.729C170.429 513.79 174.361 517.722 174.361 522.56Z" fill="#FDFDBA"/>
<path opacity="0.8696" d="M173.907 522.56C173.907 527.157 170.187 530.877 165.59 530.877C161.024 530.877 157.304 527.157 157.273 522.56C157.273 517.963 160.993 514.244 165.59 514.244C170.157 514.244 173.877 517.994 173.907 522.56Z" fill="#FDFDB8"/>
<path opacity="0.913" d="M173.423 522.56C173.423 526.885 169.915 530.393 165.591 530.393C161.266 530.393 157.758 526.885 157.758 522.56C157.758 518.236 161.266 514.728 165.591 514.728C169.915 514.728 173.423 518.236 173.423 522.56Z" fill="#FEFEB6"/>
<path opacity="0.9565" d="M172.939 522.56C172.939 526.613 169.643 529.909 165.59 529.909C161.538 529.909 158.241 526.613 158.241 522.56C158.241 518.508 161.538 515.211 165.59 515.211C169.643 515.211 172.939 518.508 172.939 522.56Z" fill="#FEFEB4"/>
<path opacity="0.7" d="M172.455 522.56C172.455 526.341 169.37 529.425 165.59 529.425C161.809 529.425 158.725 526.341 158.725 522.56C158.725 518.78 161.809 515.695 165.59 515.695C169.37 515.695 172.424 518.78 172.455 522.56Z" fill="#FFFFB2"/>
</g>
<path d="M429.305 472.479C429.305 477.53 425.192 481.642 420.112 481.673C415.061 481.673 410.948 477.53 410.948 472.479C410.948 467.398 415.061 463.285 420.112 463.285C425.223 463.255 429.305 467.398 429.305 472.479Z" fill="#F2F2D0"/>
<path d="M424.194 467.701C423.498 472.146 419.718 475.473 415.121 475.473C414.879 475.503 414.607 475.413 414.365 475.382C415.393 477.681 417.631 479.223 420.263 479.223C423.861 479.223 426.765 476.29 426.765 472.721C426.734 470.695 425.706 468.91 424.194 467.701Z" fill="#D6A651"/>
<path opacity="0.0434783" d="M437.532 472.479C437.562 482.096 429.76 489.868 420.142 489.868C410.525 489.868 402.753 482.066 402.753 472.479C402.753 462.801 410.556 455.059 420.112 455.089C429.729 455.059 437.532 462.801 437.532 472.479Z" fill="#F3F3DD"/>
<path opacity="0.0869565" d="M437.048 472.479C437.078 481.824 429.487 489.385 420.142 489.385C410.797 489.385 403.236 481.794 403.236 472.479C403.236 463.074 410.827 455.543 420.142 455.573C429.457 455.543 437.048 463.043 437.048 472.479Z" fill="#F3F3DB"/>
<path opacity="0.1304" d="M436.563 472.479C436.593 481.552 429.214 488.901 420.111 488.901C411.038 488.901 403.689 481.521 403.689 472.479C403.689 463.346 411.069 456.027 420.111 456.057C429.184 456.027 436.563 463.315 436.563 472.479Z" fill="#F4F4D9"/>
<path opacity="0.1739" d="M436.08 472.479C436.11 481.31 428.943 488.417 420.112 488.417C411.311 488.417 404.174 481.249 404.174 472.479C404.174 463.618 411.311 456.511 420.112 456.511C428.943 456.511 436.08 463.588 436.08 472.479Z" fill="#F4F4D7"/>
<path opacity="0.2174" d="M435.626 472.479C435.656 481.037 428.7 487.963 420.142 487.963C411.583 487.963 404.657 481.037 404.688 472.479C404.688 463.86 411.613 456.995 420.142 456.995C428.67 456.995 435.626 463.86 435.626 472.479Z" fill="#F5F5D5"/>
<path opacity="0.2609" d="M435.142 472.479C435.172 480.765 428.428 487.479 420.142 487.479C411.855 487.479 405.142 480.765 405.142 472.479C405.142 464.132 411.855 457.448 420.112 457.479C428.398 457.448 435.142 464.132 435.142 472.479Z" fill="#F5F5D3"/>
<path opacity="0.3043" d="M434.659 472.479C434.659 480.493 428.157 486.995 420.142 486.995C412.128 486.995 405.626 480.493 405.626 472.479C405.626 464.404 412.128 457.932 420.112 457.963C428.157 457.932 434.659 464.374 434.659 472.479Z" fill="#F6F6D1"/>
<path opacity="0.3478" d="M434.174 472.479C434.174 480.251 427.884 486.511 420.112 486.511C412.37 486.511 406.079 480.221 406.079 472.479C406.079 464.676 412.37 458.416 420.112 458.446C427.884 458.416 434.174 464.646 434.174 472.479Z" fill="#F7F7CF"/>
<path opacity="0.3913" d="M433.69 472.479C433.69 479.979 427.611 486.027 420.111 486.027C412.641 486.027 406.562 479.949 406.562 472.479C406.562 464.948 412.641 458.9 420.111 458.9C427.611 458.9 433.69 464.918 433.69 472.479Z" fill="#F7F7CD"/>
<path opacity="0.4348" d="M433.207 472.479C433.207 479.707 427.34 485.574 420.112 485.544C412.884 485.544 407.047 479.677 407.047 472.479C407.047 465.221 412.914 459.384 420.112 459.384C427.34 459.384 433.237 465.19 433.207 472.479Z" fill="#F8F8CB"/>
<path opacity="0.4783" d="M432.753 472.479C432.753 479.435 427.097 485.09 420.142 485.09C413.186 485.09 407.53 479.435 407.561 472.479C407.561 465.493 413.216 459.868 420.142 459.868C427.097 459.838 432.753 465.463 432.753 472.479Z" fill="#F8F8C9"/>
<path opacity="0.5217" d="M432.269 472.479C432.269 479.193 426.826 484.606 420.142 484.606C413.458 484.606 408.015 479.163 408.015 472.479C408.015 465.735 413.458 460.321 420.112 460.352C426.826 460.321 432.269 465.705 432.269 472.479Z" fill="#F9F9C8"/>
<path opacity="0.5652" d="M431.786 472.479C431.786 478.921 426.584 484.122 420.112 484.122C413.701 484.122 408.469 478.89 408.469 472.479C408.439 466.007 413.701 460.805 420.082 460.836C426.554 460.805 431.786 465.977 431.786 472.479Z" fill="#F9F9C6"/>
<path opacity="0.6087" d="M431.301 472.479C431.301 478.648 426.311 483.638 420.112 483.638C413.972 483.638 408.952 478.648 408.952 472.479C408.952 466.279 413.972 461.289 420.112 461.289C426.311 461.289 431.301 466.249 431.301 472.479Z" fill="#FAFAC4"/>
<path opacity="0.6522" d="M430.817 472.479C430.817 478.376 426.039 483.185 420.111 483.154C414.214 483.154 409.436 478.376 409.436 472.479C409.436 466.551 414.214 461.773 420.111 461.773C426.039 461.773 430.847 466.521 430.817 472.479Z" fill="#FAFAC2"/>
<path opacity="0.6957" d="M430.364 472.479C430.364 478.104 425.797 482.701 420.142 482.671C414.517 482.671 409.95 478.104 409.95 472.479C409.95 466.824 414.517 462.257 420.142 462.257C425.767 462.227 430.364 466.793 430.364 472.479Z" fill="#FBFBC0"/>
<path opacity="0.7391" d="M429.88 472.479C429.88 477.862 425.525 482.217 420.141 482.217C414.789 482.217 410.434 477.862 410.434 472.479C410.434 467.096 414.789 462.741 420.141 462.741C425.494 462.711 429.88 467.035 429.88 472.479Z" fill="#FCFCBE"/>
<path opacity="0.7826" d="M429.396 472.479C429.396 477.59 425.253 481.733 420.142 481.733C415.061 481.733 410.918 477.59 410.918 472.479C410.918 467.368 415.061 463.195 420.142 463.225C425.253 463.195 429.396 467.308 429.396 472.479Z" fill="#FCFCBC"/>
<path opacity="0.8261" d="M428.913 472.479C428.913 477.318 424.981 481.25 420.112 481.25C415.273 481.25 411.372 477.318 411.342 472.479C411.342 467.61 415.273 463.679 420.082 463.679C424.981 463.679 428.913 467.58 428.913 472.479Z" fill="#FDFDBA"/>
<path opacity="0.8696" d="M428.428 472.479C428.428 477.045 424.709 480.765 420.112 480.765C415.545 480.765 411.825 477.045 411.825 472.479C411.825 467.882 415.545 464.162 420.112 464.162C424.709 464.162 428.459 467.852 428.428 472.479Z" fill="#FDFDB8"/>
<path opacity="0.913" d="M427.944 472.479C427.944 476.804 424.436 480.312 420.111 480.282C415.817 480.282 412.309 476.774 412.309 472.479C412.309 468.154 415.817 464.646 420.111 464.646C424.436 464.616 427.974 468.124 427.944 472.479Z" fill="#FEFEB6"/>
<path opacity="0.9565" d="M427.491 472.479C427.491 476.531 424.194 479.827 420.142 479.797C416.12 479.797 412.823 476.501 412.823 472.479C412.823 468.426 416.12 465.13 420.142 465.13C424.194 465.099 427.491 468.366 427.491 472.479Z" fill="#FEFEB4"/>
<path d="M427.007 472.479C427.007 476.259 423.922 479.344 420.142 479.344C416.392 479.344 413.277 476.259 413.307 472.479C413.277 468.699 416.392 465.614 420.142 465.614C423.922 465.584 427.007 468.638 427.007 472.479Z" fill="#FFFFB2"/>
<path d="M101.778 473.144C101.778 478.225 97.6651 482.338 92.5844 482.338C87.5339 482.338 83.4511 478.194 83.4209 473.144C83.4209 468.093 87.5339 463.98 92.5844 463.98C97.6651 463.98 101.778 468.093 101.778 473.144Z" fill="#F2F2D0"/>
<path d="M96.6667 468.426C95.9409 472.841 92.1605 476.198 87.5637 476.198C87.3217 476.198 87.0496 476.107 86.8076 476.107C87.8359 478.376 90.0738 479.918 92.7049 479.918C96.2735 479.918 99.2071 477.015 99.2071 473.446C99.2071 471.39 98.1788 469.605 96.6667 468.426Z" fill="#D6A651"/>
<path opacity="0.0434783" d="M109.974 473.144C109.974 482.761 102.172 490.533 92.5848 490.533C82.9979 490.533 75.1953 482.761 75.1953 473.144C75.1953 463.496 82.9979 455.754 92.5848 455.754C102.202 455.785 109.974 463.527 109.974 473.144Z" fill="#F3F3DD"/>
<path opacity="0.0869565" d="M109.52 473.144C109.52 482.519 101.929 490.049 92.5843 490.049C83.2696 490.049 75.6787 482.489 75.6787 473.144C75.6787 463.769 83.2696 456.238 92.5843 456.238C101.929 456.238 109.52 463.769 109.52 473.144Z" fill="#F3F3DB"/>
<path opacity="0.1304" d="M109.037 473.144C109.037 482.247 101.658 489.566 92.5848 489.566C83.5423 489.566 76.1631 482.217 76.1631 473.144C76.1631 464.041 83.5423 456.722 92.5848 456.722C101.688 456.722 109.037 464.041 109.037 473.144Z" fill="#F4F4D9"/>
<path opacity="0.1739" d="M108.552 473.144C108.552 481.975 101.385 489.112 92.5843 489.112C83.7837 489.112 76.6465 481.975 76.6465 473.144C76.6465 464.313 83.7837 457.206 92.5843 457.206C101.415 457.206 108.552 464.313 108.552 473.144Z" fill="#F4F4D7"/>
<path opacity="0.2174" d="M108.068 473.144C108.068 481.702 101.112 488.628 92.5838 488.628C84.0554 488.628 77.1299 481.702 77.0996 473.144C77.0996 464.585 84.0251 457.66 92.5838 457.66C101.142 457.69 108.068 464.585 108.068 473.144Z" fill="#F5F5D5"/>
<path opacity="0.2609" d="M107.585 473.144C107.585 481.461 100.871 488.144 92.5843 488.144C84.3281 488.144 77.584 481.43 77.584 473.144C77.584 464.827 84.2978 458.144 92.5843 458.144C100.871 458.174 107.585 464.857 107.585 473.144Z" fill="#F5F5D3"/>
<path opacity="0.3043" d="M107.101 473.144C107.101 481.188 100.599 487.66 92.5545 487.66C84.5705 487.66 78.0381 481.158 78.0381 473.144C78.0381 465.099 84.5402 458.627 92.5545 458.627C100.629 458.627 107.101 465.099 107.101 473.144Z" fill="#F6F6D1"/>
<path opacity="0.3478" d="M106.647 473.144C106.647 480.916 100.357 487.207 92.5843 487.207C84.8422 487.207 78.5518 480.916 78.5518 473.144C78.5518 465.372 84.8422 459.111 92.5843 459.111C100.357 459.111 106.647 465.372 106.647 473.144Z" fill="#F7F7CF"/>
<path opacity="0.3913" d="M106.164 473.144C106.164 480.644 100.085 486.723 92.5848 486.723C85.1149 486.723 79.0361 480.644 79.0361 473.144C79.0361 465.644 85.1149 459.595 92.5848 459.595C100.085 459.595 106.164 465.644 106.164 473.144Z" fill="#F7F7CD"/>
<path opacity="0.4348" d="M105.679 473.144C105.679 480.372 99.8123 486.239 92.5843 486.239C85.3866 486.239 79.5195 480.372 79.5195 473.144C79.5195 465.916 85.3866 460.049 92.6145 460.049C99.8123 460.079 105.679 465.916 105.679 473.144Z" fill="#F8F8CB"/>
<path opacity="0.4783" d="M105.195 473.144C105.195 480.13 99.5396 485.755 92.5838 485.755C85.628 485.755 80.0029 480.13 79.9727 473.144C79.9727 466.158 85.628 460.533 92.5838 460.533C99.5698 460.563 105.195 466.188 105.195 473.144Z" fill="#F8F8C9"/>
<path opacity="0.5217" d="M104.712 473.144C104.712 479.858 99.2679 485.271 92.5843 485.271C85.9007 485.271 80.4873 479.858 80.457 473.144C80.457 466.43 85.9007 461.017 92.5843 461.017C99.2982 461.017 104.712 466.43 104.712 473.144Z" fill="#F9F9C8"/>
<path opacity="0.5652" d="M104.258 473.144C104.258 479.586 99.0264 484.818 92.5848 484.818C86.1734 484.818 80.9414 479.616 80.9414 473.144C80.9414 466.702 86.1734 461.5 92.5848 461.5C99.0264 461.5 104.258 466.702 104.258 473.144Z" fill="#F9F9C6"/>
<path opacity="0.6087" d="M103.774 473.144C103.774 479.313 98.7538 484.334 92.5843 484.334C86.4451 484.334 81.4248 479.344 81.4248 473.144C81.4248 466.974 86.4451 461.984 92.5843 461.984C98.7538 461.984 103.774 466.974 103.774 473.144Z" fill="#FAFAC4"/>
<path opacity="0.6522" d="M103.291 473.144C103.291 479.071 98.4821 483.85 92.5848 483.85C86.6875 483.85 81.9092 479.071 81.9092 473.144C81.9092 467.247 86.6875 462.438 92.5848 462.438C98.5123 462.468 103.291 467.247 103.291 473.144Z" fill="#FAFAC2"/>
<path opacity="0.6957" d="M102.806 473.144C102.806 478.799 98.2397 483.366 92.5843 483.366C86.9592 483.366 82.3926 478.799 82.3926 473.144C82.3926 467.489 86.9592 462.922 92.6146 462.922C98.2397 462.922 102.806 467.519 102.806 473.144Z" fill="#FBFBC0"/>
<path opacity="0.7391" d="M102.322 473.144C102.322 478.527 97.967 482.882 92.5838 482.882C87.2309 482.882 82.876 478.527 82.876 473.144C82.876 467.761 87.2309 463.406 92.6141 463.406C97.967 463.406 102.322 467.761 102.322 473.144Z" fill="#FCFCBE"/>
<path opacity="0.7826" d="M101.838 473.144C101.838 478.255 97.6953 482.428 92.554 482.428C87.4733 482.428 83.33 478.285 83.2998 473.144C83.2998 468.033 87.443 463.89 92.554 463.89C97.6953 463.89 101.838 468.033 101.838 473.144Z" fill="#FCFCBC"/>
<path opacity="0.8261" d="M101.385 473.144C101.385 477.983 97.4538 481.944 92.5848 481.944C87.746 481.944 83.8145 478.013 83.8145 473.144C83.8145 468.305 87.746 464.374 92.5848 464.374C97.4538 464.374 101.385 468.305 101.385 473.144Z" fill="#FDFDBA"/>
<path opacity="0.8696" d="M100.901 473.144C100.901 477.741 97.1812 481.461 92.5843 481.461C88.0177 481.461 84.2979 477.741 84.2979 473.144C84.2979 468.577 88.0177 464.827 92.5843 464.827C97.1812 464.857 100.901 468.577 100.901 473.144Z" fill="#FDFDB8"/>
<path opacity="0.913" d="M100.418 473.144C100.418 477.469 96.9095 480.977 92.5848 480.977C88.2904 480.977 84.7822 477.469 84.7822 473.144C84.7822 468.819 88.2904 465.311 92.615 465.311C96.9095 465.311 100.418 468.849 100.418 473.144Z" fill="#FEFEB6"/>
<path opacity="0.9565" d="M99.9333 473.144C99.9333 477.196 96.6368 480.493 92.5843 480.493C88.5621 480.493 85.2656 477.196 85.2656 473.144C85.2656 469.091 88.5621 465.795 92.6146 465.795C96.6368 465.795 99.9333 469.122 99.9333 473.144Z" fill="#FEFEB4"/>
<path d="M99.4489 473.144C99.4489 476.924 96.3641 480.039 92.5838 480.039C88.8035 480.039 85.749 476.954 85.749 473.144C85.749 469.364 88.8338 466.279 92.6141 466.279C96.3944 466.279 99.4489 469.364 99.4489 473.144Z" fill="#FFFFB2"/>
<defs>
<filter id="filter0_f" x="0" y="508" width="515" height="85" filterUnits="userSpaceOnUse" color-interpolation-filters="sRGB">
<feFlood flood-opacity="0" result="BackgroundImageFix"/>
<feBlend mode="normal" in="SourceGraphic" in2="BackgroundImageFix" result="shape"/>
<feGaussianBlur stdDeviation="12" result="effect1_foregroundBlur"/>
</filter>
<filter id="filter1_f" x="114" y="508" width="287" height="85" filterUnits="userSpaceOnUse" color-interpolation-filters="sRGB">
<feFlood flood-opacity="0" result="BackgroundImageFix"/>
<feBlend mode="normal" in="SourceGraphic" in2="BackgroundImageFix" result="shape"/>
<feGaussianBlur stdDeviation="12" result="effect1_foregroundBlur"/>
</filter>
<linearGradient id="paint0_linear" x1="256.002" y1="131.874" x2="256.002" y2="0" gradientUnits="userSpaceOnUse">
<stop stop-color="#D91D5B"/>
<stop offset="0.2282" stop-color="#DE2664"/>
<stop offset="0.6086" stop-color="#ED407D"/>
<stop offset="1" stop-color="#FF619D"/>
</linearGradient>
<linearGradient id="paint1_linear" x1="256" y1="115.39" x2="256" y2="16.486" gradientUnits="userSpaceOnUse">
<stop stop-color="#FF619D"/>
<stop offset="0.3914" stop-color="#ED407D"/>
<stop offset="0.7718" stop-color="#DE2664"/>
<stop offset="1" stop-color="#D91D5B"/>
</linearGradient>
<linearGradient id="paint2_linear" x1="256.001" y1="102.569" x2="256.001" y2="29.3057" gradientUnits="userSpaceOnUse">
<stop stop-color="#D91D5B"/>
<stop offset="0.2282" stop-color="#DE2664"/>
<stop offset="0.6086" stop-color="#ED407D"/>
<stop offset="1" stop-color="#FF619D"/>
</linearGradient>
<linearGradient id="paint3_linear" x1="256.002" y1="554.192" x2="256.002" y2="62.4449" gradientUnits="userSpaceOnUse">
<stop stop-color="#EB9B2E"/>
<stop offset="0.1969" stop-color="#F1A437"/>
<stop offset="0.502" stop-color="#FFB94F"/>
<stop offset="1" stop-color="#FFE373"/>
</linearGradient>
<linearGradient id="paint4_linear" x1="256.001" y1="539.071" x2="256.001" y2="77.566" gradientUnits="userSpaceOnUse">
<stop stop-color="#FFE373"/>
<stop offset="0.498" stop-color="#FFB94F"/>
<stop offset="0.8031" stop-color="#F1A437"/>
<stop offset="1" stop-color="#EB9B2E"/>
</linearGradient>
</defs>
</svg>
