<svg width="424" height="286" viewBox="0 0 424 286" fill="none" xmlns="http://www.w3.org/2000/svg">
<path opacity="0.2" d="M0.37837 285.492C1.01346 259.241 6.51761 233.475 16.4372 209.553C38.8166 155.54 80.9445 115.71 130.996 94.9942C185.009 72.6147 242.984 74.2478 293.005 94.9942V94.964C347.018 117.343 386.848 159.471 407.564 209.523C417.846 234.352 423.018 259.997 423.623 285.371C424.318 256.731 419.238 227.487 407.564 199.301C386.848 149.249 347.018 107.091 293.005 84.742V84.7722C242.954 64.0258 185.009 62.3928 130.996 84.7722C80.9143 105.488 38.7864 145.318 16.4069 199.331C5.21718 226.368 -0.347452 255.733 0.37837 285.492Z" fill="black"/>
<path opacity="0.1" d="M217.882 126.991C214.707 132.767 209.323 132.767 206.148 126.991C196.168 108.876 176.903 65.2961 176.903 50.9007C176.903 31.5152 192.629 15.7891 212.015 15.7891C231.4 15.7891 247.127 31.5152 247.127 50.9007C247.127 65.2961 227.892 108.876 217.882 126.991Z" fill="black"/>
<path d="M217.882 111.93C214.707 117.707 209.323 117.707 206.148 111.93C196.168 93.8151 176.903 50.2356 176.903 35.8401C176.903 16.4546 192.629 0.728516 212.015 0.728516C231.4 0.728516 247.127 16.4546 247.127 35.8401C247.127 50.2356 227.892 93.8151 217.882 111.93Z" fill="url(#paint0_linear)"/>
<path d="M233.245 32.8461C233.245 44.6104 223.688 54.1066 211.984 54.1066C200.311 54.1066 190.814 44.5197 190.754 32.8461C190.754 21.1725 200.311 11.6461 211.984 11.6461C223.748 11.6158 233.245 21.1725 233.245 32.8461Z" fill="#3063E4"/>
<path d="M226.562 32.846C226.562 40.9208 220.03 47.4229 212.015 47.4229C204.001 47.4229 197.499 40.8603 197.469 32.846C197.469 24.862 204.001 18.3296 212.015 18.3296C220.06 18.3296 226.562 24.862 226.562 32.846Z" fill="#CFE6FF"/>
<path d="M218.487 25.3765C217.338 32.3625 211.35 37.6852 204.061 37.6852C203.668 37.6852 203.245 37.5642 202.852 37.5642C204.485 41.1631 208.053 43.6127 212.197 43.6127C217.852 43.6127 222.479 39.0461 222.479 33.3605C222.509 30.0641 220.876 27.2515 218.487 25.3765Z" fill="#75B8FF"/>
<defs>
<linearGradient id="paint0_linear" x1="176.903" y1="58.4956" x2="247.127" y2="58.4956" gradientUnits="userSpaceOnUse">
<stop stop-color="#3C50FF"/>
<stop offset="1" stop-color="#3CA1FF"/>
</linearGradient>
</defs>
</svg>
